<svg id="Layer_1" data-name="Layer 1" xmlns="http://www.w3.org/2000/svg" xmlns:xlink="http://www.w3.org/1999/xlink" viewBox="0 0 85.2272 44.0032"><defs><style>.cls-1,.cls-17{fill:none;}.cls-2{clip-path:url(#clip-path);}.cls-3{fill:#2be8bc;}.cls-4{clip-path:url(#clip-path-2);}.cls-5{clip-path:url(#clip-path-4);}.cls-6{clip-path:url(#clip-path-6);}.cls-7{clip-path:url(#clip-path-8);}.cls-8{clip-path:url(#clip-path-10);}.cls-9{clip-path:url(#clip-path-12);}.cls-10{clip-path:url(#clip-path-14);}.cls-11{clip-path:url(#clip-path-16);}.cls-12{clip-path:url(#clip-path-18);}.cls-13{clip-path:url(#clip-path-20);}.cls-14{clip-path:url(#clip-path-22);}.cls-15{clip-path:url(#clip-path-24);}.cls-16{clip-path:url(#clip-path-25);}.cls-17{stroke:#2be8bc;stroke-miterlimit:10;stroke-width:0.5px;}</style><clipPath id="clip-path"><rect class="cls-1" y="0.00021" width="85.227" height="44.003"/></clipPath><clipPath id="clip-path-2"><path class="cls-1" d="M4.383,35.9292l-.924,4.135c-.025.093-.053.139-.084.139-.046,0-.077-.049-.093-.142l-.823-4.135a.27321.27321,0,0,0-.119-.175.32563.32563,0,0,0-.2-.082H1.363a.32571.32571,0,0,0-.271.113.31867.31867,0,0,0-.059.287l1.492,6.537c.035.172.129.259.278.259H3.848c.143,0,.232-.087.271-.259l1.621-6.537a.37894.37894,0,0,0,.013-.093c0-.205-.11-.307-.328-.307H4.699l-.022-.001a.29678.29678,0,0,0-.294.261"/></clipPath><clipPath id="clip-path-4"><path class="cls-1" d="M9.187,36.8782a.57.57,0,0,1,.424.185.618.618,0,0,1,.176.441v3.548a.64441.64441,0,0,1-.172.449.56477.56477,0,0,1-.424.185h-.27a.66649.66649,0,0,1-.636-.634v-3.548a.59153.59153,0,0,1,.186-.441.6198.6198,0,0,1,.446-.185Zm.088-1.344H8.77a1.86148,1.86148,0,0,0-1.358.556,1.8305,1.8305,0,0,0-.555,1.345v3.638a1.90022,1.90022,0,0,0,1.913,1.918h.508a1.91367,1.91367,0,0,0,1.914-1.918l-.005-3.638a1.82958,1.82958,0,0,0-.554-1.345,1.858,1.858,0,0,0-1.326-.556H9.275"/></clipPath><clipPath id="clip-path-6"><path class="cls-1" d="M15.755,35.5392a1.87448,1.87448,0,0,0-1.409.6.37119.37119,0,0,1-.211.141c-.048,0-.071-.043-.071-.129v-.153a.29611.29611,0,0,0-.082-.248.291.291,0,0,0-.247-.082h-.833a.289.289,0,0,0-.246.082.29371.29371,0,0,0-.083.248v6.537a.29026.29026,0,0,0,.329.329h.833a.28922.28922,0,0,0,.329-.329v-4.936a.66635.66635,0,0,1,.342-.494,1.17833,1.17833,0,0,1,.688-.247c.331,0,.498.203.498.613v5.064a.29034.29034,0,0,0,.081.247.286.286,0,0,0,.244.082h.828q.315,0,.315-.329v-5.629a1.36917,1.36917,0,0,0-.364-.985,1.2402,1.2402,0,0,0-.894-.383c-.015,0-.031,0-.047.001"/></clipPath><clipPath id="clip-path-8"><path class="cls-1" d="M23.874,38.9312l.505-3.086c.025-.165.062-.247.117-.247.056,0,.098.082.13.247l.554,3.086a.28947.28947,0,0,1-.284.341h-.764q-.3165,0-.258-.341m-.189-5.488c-.172,0-.281.111-.328.331l-1.728,8.75a.27888.27888,0,0,0,.059.236.25473.25473,0,0,0,.211.106h1.047c.181,0,.295-.113.342-.342l.246-1.389a.31733.31733,0,0,1,.105-.226.31221.31221,0,0,1,.235-.08h1.434q.246-.0015.305.307l.283,1.389c.047.226.149.339.308.339h1.065a.28881.28881,0,0,0,.231-.105.249.249,0,0,0,.054-.236l-1.859-8.749c-.047-.22-.157-.331-.328-.331Z"/></clipPath><clipPath id="clip-path-10"><path class="cls-1" d="M30.362,37.1872v-1.979c0-.211.086-.318.27-.318h.905a.92948.92948,0,0,1,.677.272.8876.8876,0,0,1,.277.658v.755a.87884.87884,0,0,1-.277.654.94335.94335,0,0,1-.677.264h-.881c-.196,0-.294-.101-.294-.306m1.132-3.741H29.085q-.294,0-.294.306v8.791c0,.212.098.319.294.319h.964a.29748.29748,0,0,0,.223-.101.31435.31435,0,0,0,.093-.218v-3.345c0-.212.098-.317.294-.317h.519c.101,0,.18.078.235.234l1.202,3.429c.077.215.183.32.316.32h1.017c.172,0,.258-.078.258-.235a.21408.21408,0,0,0-.023-.083l-1.362-3.878q-.0465-.1305.012-.165a2.35732,2.35732,0,0,0,1.187-2.132v-.463a2.36272,2.36272,0,0,0-.74-1.79,2.54053,2.54053,0,0,0-1.724-.673c-.02,0-.041,0-.062.001"/></clipPath><clipPath id="clip-path-12"><path class="cls-1" d="M39.128,40.1102v0Zm-1.938,1.211a.318.318,0,0,1-.108-.241v-5.83c0-.221.116-.33.345-.33h.357a1.306,1.306,0,0,1,.945.389,1.256,1.256,0,0,1,.399.926v3.874a1.23887,1.23887,0,0,1-.399.929,1.32163,1.32163,0,0,1-.945.383h-.357a.34067.34067,0,0,1-.237-.1m-1.647-7.797a.29137.29137,0,0,0-.081.248v8.751a.31873.31873,0,0,0,.1.241.30669.30669,0,0,0,.227.1h2.339a2.6187,2.6187,0,0,0,2.62-2.625v-4.171a2.54279,2.54279,0,0,0-.763-1.854,2.51272,2.51272,0,0,0-1.857-.772H35.789a.26929.26929,0,0,0-.04-.003.28645.28645,0,0,0-.206.085"/></clipPath><clipPath id="clip-path-14"><path class="cls-1" d="M46.749,35.6772h-.833a.29116.29116,0,0,0-.328.329v5.714a1.31976,1.31976,0,0,0,.351.871,1.01516,1.01516,0,0,0,.776.412h.435a.98792.98792,0,0,0,.676-.347c.229-.232.383-.349.462-.349.105,0,.199.093.277.279.079.186.184.278.318.278h.831a.29543.29543,0,0,0,.248-.081.29926.29926,0,0,0,.082-.248l.001-6.529a.28957.28957,0,0,0-.325-.329h-.816a.28991.28991,0,0,0-.327.329v4.783a.63176.63176,0,0,1-.285.495.91228.91228,0,0,1-.567.223q-.648,0-.648-.695v-4.806a.293.293,0,0,0-.287-.332.27277.27277,0,0,0-.041.003"/></clipPath><clipPath id="clip-path-16"><path class="cls-1" d="M54.637,35.5392a1.8751,1.8751,0,0,0-1.41.6.36672.36672,0,0,1-.212.141c-.046,0-.07-.043-.07-.129v-.153a.29371.29371,0,0,0-.083-.248.28605.28605,0,0,0-.246-.082h-.833a.288.288,0,0,0-.246.082.293.293,0,0,0-.082.248v6.537a.289.289,0,0,0,.328.329h.833a.29026.29026,0,0,0,.329-.329v-4.936a.66261.66261,0,0,1,.343-.494,1.17833,1.17833,0,0,1,.688-.247c.331,0,.497.203.497.613v5.064a.29034.29034,0,0,0,.081.247.287.287,0,0,0,.245.082h.827c.21,0,.316-.11.316-.329v-5.629a1.37343,1.37343,0,0,0-.364-.985,1.2402,1.2402,0,0,0-.894-.383c-.016,0-.031,0-.047.001"/></clipPath><clipPath id="clip-path-18"><path class="cls-1" d="M58.998,41.4402a.546.546,0,0,1-.167-.401v-3.546a.50748.50748,0,0,1,.167-.388.56558.56558,0,0,1,.402-.153h.427a.51633.51633,0,0,1,.383.207.5804.5804,0,0,1,.186.334v3.546a.65349.65349,0,0,1-.186.34.505.505,0,0,1-.383.226h-.434a.55789.55789,0,0,1-.395-.165m2.552-8.127h-.831a.29258.29258,0,0,0-.33.329v2.31c0,.122-.03.185-.093.185-.046,0-.105-.04-.175-.119a4.441,4.441,0,0,0-.318-.34,1.49952,1.49952,0,0,0-.752-.142h-.352a1.36569,1.36569,0,0,0-1.364,1.368v4.676a1.40187,1.40187,0,0,0,.4.99,1.27619,1.27619,0,0,0,.964.424h.361a1.49446,1.49446,0,0,0,.647-.118,2.47131,2.47131,0,0,0,.422-.341.289.289,0,0,1,.185-.119c.054,0,.084.04.084.119a.28922.28922,0,0,0,.329.329h.832a.28936.28936,0,0,0,.246-.081.29749.29749,0,0,0,.084-.248l-.009-8.893a.2916.2916,0,0,0-.29-.332.27963.27963,0,0,0-.04.003"/></clipPath><clipPath id="clip-path-20"><path class="cls-1" d="M71.401,33.4422H67.159q-.318,0-.318.306v.824c-.001.197.106.295.318.295H69.72c.109,0,.164.043.164.13a.10985.10985,0,0,1-.023.057l-3.207,6.469a.94819.94819,0,0,0-.059.388v.635c0,.211.098.318.293.318h4.531a.28228.28228,0,0,0,.24-.078.27417.27417,0,0,0,.076-.24l.006-.9c0-.186-.106-.279-.317-.279H68.573c-.132,0-.168-.065-.106-.197l3.186-6.395a.85747.85747,0,0,0,.064-.378v-.649a.276.276,0,0,0-.082-.232.28013.28013,0,0,0-.193-.078.184.184,0,0,0-.041.004"/></clipPath><clipPath id="clip-path-22"><path class="cls-1" d="M76.688,40.1102v0Zm-1.938,1.211a.32415.32415,0,0,1-.107-.241v-5.83c0-.221.116-.33.345-.33h.357a1.30207,1.30207,0,0,1,.944.389,1.25228,1.25228,0,0,1,.399.926v3.874a1.23527,1.23527,0,0,1-.399.929,1.31765,1.31765,0,0,1-.944.383h-.357a.34487.34487,0,0,1-.238-.1m-1.646-7.797a.29575.29575,0,0,0-.083.248v8.751a.33.33,0,0,0,.1.241.31488.31488,0,0,0,.23.1h2.338a2.6187,2.6187,0,0,0,2.62-2.625v-4.171a2.6204,2.6204,0,0,0-2.62-2.626H73.351a.28279.28279,0,0,0-.041-.003.28645.28645,0,0,0-.206.085"/></clipPath><clipPath id="clip-path-24"><path class="cls-1" d="M83.875,33.4422H80.008a.326.326,0,0,0-.235.1.31205.31205,0,0,0-.106.23v8.751a.34142.34142,0,0,0,.341.341h.952a.29508.29508,0,0,0,.25-.088.29878.29878,0,0,0,.08-.253v-3.534q-.0015-.33.317-.33h1.739a.32679.32679,0,0,0,.241-.099.33231.33231,0,0,0,.099-.241v-.802a.30848.30848,0,0,0-.106-.23.33367.33367,0,0,0-.234-.1H81.629q-.339,0-.339-.317v-1.602a.31322.31322,0,0,1,.105-.231.33367.33367,0,0,1,.234-.1h2.248a.3351.3351,0,0,0,.236-.101.31525.31525,0,0,0,.105-.241l-.001-.823a.30076.30076,0,0,0-.089-.25.29714.29714,0,0,0-.207-.084.23834.23834,0,0,0-.046.004"/></clipPath><clipPath id="clip-path-25"><path class="cls-1" d="M68.818,9.28621h3.516v3.335H68.818Zm-1.416-1.44v6.182H73.76l-.004-6.182Zm-49.558,7.601,6.942-5.604v11.209Zm33.199-.005,6.94-5.605v11.209ZM26.202,26.9032V9.2662h6.466a1.54115,1.54115,0,0,1,1.539,1.531v14.846c-1.087.881-2.214,1.79-2.816,2.27l-.181.144c-.133.104-.221.173-.251.195a1.36344,1.36344,0,0,1-.568.207H27.743a1.55266,1.55266,0,0,1-1.541-1.556m33.201.02V8.11821l7.085-5.713H80.226a1.53685,1.53685,0,0,1,1.534,1.531v22.985a1.53833,1.53833,0,0,1-1.534,1.538H73.76v-8.458H67.402v8.458H60.937a1.53854,1.53854,0,0,1-1.534-1.536M18.687,2.6722a1.52051,1.52051,0,0,1,.864-.267h3.723a1.54252,1.54252,0,0,1,1.51,1.531v4.064l-9.208,7.432,9.208,7.433v4.061a1.54072,1.54072,0,0,1-1.502,1.533H19.544a1.52611,1.52611,0,0,1-.864-.265l-8.259-7.149v7.415H3.955a1.54048,1.54048,0,0,1-1.536-1.534V3.9402a1.54178,1.54178,0,0,1,1.536-1.534h6.466v7.415Zm33.201-.007a1.5239,1.5239,0,0,1,.865-.26H56.48a1.53417,1.53417,0,0,1,1.502,1.524v4.065l-9.203,7.433,9.203,7.43v4.064a1.54251,1.54251,0,0,1-1.499,1.538h-3.73a1.51976,1.51976,0,0,1-.864-.274l-8.262-7.141v5.873a1.542,1.542,0,0,1-1.535,1.542H35.628V2.4052h6.464a1.53536,1.53536,0,0,1,1.535,1.526v5.882Zm-25.682.992a1.51027,1.51027,0,0,1,1.532-1.252h6.469v5.437l-8.001.001Zm39.778-2.654-6.585,5.31V3.9492a2.96575,2.96575,0,0,0-2.909-2.945H52.746a2.92691,2.92691,0,0,0-1.679.516l-6.028,5.202v-2.771a2.96,2.96,0,0,0-2.956-2.947H27.734a3.07853,3.07853,0,0,0-2.273,1.007,2.92813,2.92813,0,0,0-2.172-1.007H19.544a2.93211,2.93211,0,0,0-1.68.523l-6.022,5.202V1.0042H3.956A2.96186,2.96186,0,0,0,1,3.9572v22.989a2.96765,2.96765,0,0,0,2.956,2.959h7.886v-5.735l5.975,5.178.013.01a2.97532,2.97532,0,0,0,1.714.549h3.752a2.96739,2.96739,0,0,0,2.191-1.046,2.963,2.963,0,0,0,2.252,1.046h2.766a3.00027,3.00027,0,0,0,1.262-.467c.105-.074.74-.581,1.405-1.118l.308-.248c.256-.204.503-.406.716-.578v2.413H42.08a2.96656,2.96656,0,0,0,2.956-2.963v-2.771l6.009,5.19.016.013a2.93525,2.93525,0,0,0,1.68.531h3.752a2.95384,2.95384,0,0,0,2.186-1.043,2.95655,2.95655,0,0,0,2.247,1.043H68.81v-8.458h3.524v8.458h7.885a2.96615,2.96615,0,0,0,2.955-2.959V3.9622a2.96209,2.96209,0,0,0-2.951-2.959Z"/></clipPath></defs><title>greenlogo</title><g class="cls-2"><path class="cls-3" d="M5.7402,36.0696l-1.621,6.537c-.04.172-.129.259-.271.259H2.8022c-.148,0-.243-.087-.277-.259l-1.492-6.537a.32327.32327,0,0,1,.058-.288.331.331,0,0,1,.272-.112h.777a.32557.32557,0,0,1,.2.082.26956.26956,0,0,1,.119.175l.823,4.134c.015.093.047.143.093.143.032,0,.059-.046.083-.14l.925-4.135a.29532.29532,0,0,1,.316-.259h.726c.218,0,.327.101.327.306a.37277.37277,0,0,1-.012.094"/></g><g class="cls-4"><rect class="cls-3" x="0.005" y="34.6572" width="6.747" height="9.208"/></g><g class="cls-2"><path class="cls-3" d="M9.7868,41.0525v-3.548a.60974.60974,0,0,0-.176-.441.5694.5694,0,0,0-.423-.185h-.27a.6204.6204,0,0,0-.447.185.59062.59062,0,0,0-.185.441v3.548a.66458.66458,0,0,0,.635.634h.27a.56634.56634,0,0,0,.424-.185.63222.63222,0,0,0,.172-.449m1.406.021a1.91366,1.91366,0,0,1-1.915,1.917h-.508a1.89688,1.89688,0,0,1-1.912-1.917v-3.639a1.81968,1.81968,0,0,1,.554-1.344,1.85759,1.85759,0,0,1,1.358-.556h.505a1.85374,1.85374,0,0,1,1.357.556,1.82059,1.82059,0,0,1,.555,1.344Z"/></g><g class="cls-5"><rect class="cls-3" x="5.847" y="34.5252" width="6.354" height="9.475"/></g><g class="cls-2"><path class="cls-3" d="M17.0605,42.5354q0,.3285-.315.329h-.828a.2867.2867,0,0,1-.245-.083.29036.29036,0,0,1-.081-.246v-5.064c0-.41-.166-.614-.498-.614a1.17644,1.17644,0,0,0-.687.248c-.228.165-.343.329-.343.493v4.937a.293.293,0,0,1-.082.247.29.29,0,0,1-.247.082h-.832a.29027.29027,0,0,1-.329-.329v-6.537a.29046.29046,0,0,1,.329-.33h.832a.29.29,0,0,1,.247.082.295.295,0,0,1,.082.248v.152c0,.087.023.13.071.13a.36822.36822,0,0,0,.211-.141,1.87763,1.87763,0,0,1,1.41-.601,1.23986,1.23986,0,0,1,.941.383,1.37695,1.37695,0,0,1,.364.984Z"/></g><g class="cls-6"><rect class="cls-3" x="11.561" y="34.5252" width="6.513" height="9.352"/></g><g class="cls-2"><path class="cls-3" d="M25.1802,38.9307l-.554-3.086c-.032-.165-.074-.247-.13-.247-.055,0-.092.082-.117.247l-.505,3.086c-.04.228.047.341.258.341h.763a.28947.28947,0,0,0,.285-.341m2.374,3.592a.25043.25043,0,0,1-.054.236.2897.2897,0,0,1-.231.106h-1.065c-.159,0-.261-.113-.308-.339l-.283-1.39q-.0585-.3075-.305-.306h-1.434a.31663.31663,0,0,0-.341.305l-.246,1.39c-.046.228-.16.342-.34.342h-1.048a.25436.25436,0,0,1-.211-.107.276.276,0,0,1-.059-.235l1.728-8.751c.046-.22.156-.33.328-.33h1.681q.258,0,.329.33Z"/></g><g class="cls-7"><rect class="cls-3" x="20.612" y="32.4432" width="7.966" height="11.424"/></g><g class="cls-2"><path class="cls-3" d="M32.4906,36.5751v-.755a.88767.88767,0,0,0-.277-.658.927.927,0,0,0-.677-.271h-.904c-.184,0-.27.106-.27.317v1.98c0,.204.097.305.294.305h.88a.94172.94172,0,0,0,.677-.264.87516.87516,0,0,0,.277-.654m1.692,5.971a.18441.18441,0,0,1,.023.083c0,.157-.086.235-.258.235h-1.017c-.133,0-.239-.105-.316-.32l-1.202-3.429c-.055-.156-.133-.234-.235-.234h-.518c-.197,0-.295.105-.295.317v3.345a.31335.31335,0,0,1-.092.218.29865.29865,0,0,1-.224.1h-.963c-.196,0-.295-.106-.295-.318v-8.791a.266.266,0,0,1,.295-.306h2.408a2.54471,2.54471,0,0,1,1.787.672,2.36693,2.36693,0,0,1,.739,1.79v.463a2.35344,2.35344,0,0,1-1.187,2.132q-.05851.0345-.012.165Z"/></g><g class="cls-8"><rect class="cls-3" x="27.791" y="32.4302" width="7.415" height="11.435"/></g><g class="cls-2"><path class="cls-3" d="M39.1275,40.1105v-3.875a1.2577,1.2577,0,0,0-.399-.927,1.30277,1.30277,0,0,0-.944-.388h-.357c-.23,0-.346.109-.346.33v5.83a.32152.32152,0,0,0,.108.241.34121.34121,0,0,0,.238.1h.357a1.3152,1.3152,0,0,0,.944-.383,1.2323,1.2323,0,0,0,.399-.93Zm1.621.129a2.6204,2.6204,0,0,1-2.62,2.625h-2.339a.31148.31148,0,0,1-.228-.101.32085.32085,0,0,1-.1-.241v-8.751a.29027.29027,0,0,1,.328-.33h2.339a2.62381,2.62381,0,0,1,2.62,2.626Z"/></g><g class="cls-9"><rect class="cls-3" x="34.448" y="32.4292" width="7.31" height="11.447"/></g><g class="cls-2"><path class="cls-3" d="M50.0434,42.5354a.293.293,0,0,1-.082.247.29.29,0,0,1-.247.082h-.832c-.133,0-.238-.093-.318-.278-.078-.186-.171-.279-.277-.279-.078,0-.232.118-.462.348a.98508.98508,0,0,1-.676.348h-.434a1.01658,1.01658,0,0,1-.776-.412,1.32578,1.32578,0,0,1-.352-.871v-5.713a.29149.29149,0,0,1,.329-.33h.832a.29257.29257,0,0,1,.329.33v4.805q0,.6945.648.695a.91228.91228,0,0,0,.567-.223.636.636,0,0,0,.285-.495v-4.782a.28885.28885,0,0,1,.326-.33h.816a.28991.28991,0,0,1,.326.33Z"/></g><g class="cls-10"><rect class="cls-3" x="44.574" y="34.6642" width="6.485" height="9.339"/></g><g class="cls-2"><path class="cls-3" d="M55.9419,42.5354q0,.3285-.315.329h-.828a.2867.2867,0,0,1-.245-.083.29407.29407,0,0,1-.082-.246v-5.064c0-.41-.165-.614-.496-.614a1.174,1.174,0,0,0-.687.248c-.23.165-.344.329-.344.493v4.937a.29027.29027,0,0,1-.329.329h-.832a.29027.29027,0,0,1-.329-.329v-6.537a.29046.29046,0,0,1,.329-.33h.832a.29.29,0,0,1,.247.082.295.295,0,0,1,.082.248v.152c0,.087.023.13.07.13a.36672.36672,0,0,0,.212-.141,1.87609,1.87609,0,0,1,1.41-.601,1.23986,1.23986,0,0,1,.941.383,1.36838,1.36838,0,0,1,.364.984Z"/></g><g class="cls-11"><rect class="cls-3" x="50.442" y="34.5252" width="6.514" height="9.352"/></g><g class="cls-2"><path class="cls-3" d="M60.3962,41.0394v-3.546a.58861.58861,0,0,0-.186-.335.52308.52308,0,0,0-.384-.207h-.426a.57323.57323,0,0,0-.403.154.50657.50657,0,0,0-.166.388v3.546a.54127.54127,0,0,0,.166.4.55578.55578,0,0,0,.403.165h.426a.5047.5047,0,0,0,.384-.224.66026.66026,0,0,0,.186-.341m1.492,1.496a.29069.29069,0,0,1-.083.247.287.287,0,0,1-.246.082h-.832a.29027.29027,0,0,1-.329-.329c0-.079-.03-.119-.084-.119a.289.289,0,0,0-.185.119,2.44016,2.44016,0,0,1-.423.341,1.49,1.49,0,0,1-.646.118h-.361a1.27465,1.27465,0,0,1-.964-.424,1.39762,1.39762,0,0,1-.4-.99v-4.677a1.36571,1.36571,0,0,1,1.364-1.367h.352a1.489,1.489,0,0,1,.752.142,4.428,4.428,0,0,1,.317.34c.071.08.129.119.176.119.063,0,.093-.063.093-.186v-2.309a.29257.29257,0,0,1,.329-.33h.832a.29577.29577,0,0,1,.247.083.28806.28806,0,0,1,.082.247Z"/></g><g class="cls-12"><rect class="cls-3" x="56.33" y="32.3002" width="6.571" height="11.703"/></g><g class="cls-2"><path class="cls-3" d="M71.7358,42.5461a.27659.27659,0,0,1-.316.318h-4.532c-.195,0-.294-.106-.294-.318v-.636a.98157.98157,0,0,1,.06-.387l3.207-6.468a.10508.10508,0,0,0,.023-.058c0-.087-.054-.13-.164-.13h-2.561c-.212,0-.319-.098-.318-.295v-.825q0-.3045.318-.305h4.242a.27655.27655,0,0,1,.316.306v.65a.858.858,0,0,1-.064.377l-3.186,6.395c-.061.132-.026.197.106.197h2.851c.211,0,.317.093.317.279Z"/></g><g class="cls-13"><rect class="cls-3" x="65.587" y="32.4292" width="7.163" height="11.449"/></g><g class="cls-2"><path class="cls-3" d="M76.6881,40.1105v-3.875a1.25771,1.25771,0,0,0-.399-.927,1.30112,1.30112,0,0,0-.944-.388h-.357c-.229,0-.345.109-.345.33v5.83a.32414.32414,0,0,0,.107.241.34487.34487,0,0,0,.238.1h.357a1.31352,1.31352,0,0,0,.944-.383,1.23231,1.23231,0,0,0,.399-.93Zm1.621.129a2.62042,2.62042,0,0,1-2.62,2.625h-2.338a.31581.31581,0,0,1-.229-.101.32089.32089,0,0,1-.1-.241v-8.751a.29152.29152,0,0,1,.329-.33h2.338a2.62383,2.62383,0,0,1,2.62,2.626Z"/></g><g class="cls-14"><rect class="cls-3" x="72.008" y="32.4292" width="7.312" height="11.447"/></g><g class="cls-2"><path class="cls-3" d="M84.2182,34.5959a.31872.31872,0,0,1-.105.241.33513.33513,0,0,1-.236.101h-2.248a.33514.33514,0,0,0-.234.099.31053.31053,0,0,0-.106.231v1.602c0,.211.114.318.34.318h1.717a.337.337,0,0,1,.234.099.30852.30852,0,0,1,.106.23v.802a.33971.33971,0,0,1-.34.34h-1.739a.28682.28682,0,0,0-.318.331v3.533a.29475.29475,0,0,1-.08.254.298.298,0,0,1-.249.088h-.952a.34314.34314,0,0,1-.341-.342v-8.751a.30852.30852,0,0,1,.106-.23.33418.33418,0,0,1,.235-.1h3.866a.29808.29808,0,0,1,.342.33Z"/></g><g class="cls-15"><rect class="cls-3" x="78.666" y="32.4272" width="6.561" height="11.449"/></g><g class="cls-16"><rect class="cls-3" y="0.00021" width="84.174" height="30.909"/></g><g class="cls-2"><path class="cls-17" d="M34.2072,2.40511h-6.469a1.51026,1.51026,0,0,0-1.532,1.252v4.186l8.001-.001Zm38.126,6.881h-3.516v3.335h3.516Zm1.423-1.439.004,6.18h-6.358v-6.18Zm-15.772,1.99-6.942,5.605,6.942,5.604Zm-33.199.007-6.941,5.603,6.941,5.605Zm17.307-7.439h-6.464v26.054h6.464a1.54111,1.54111,0,0,0,1.534-1.542v-5.873l8.263,7.141a1.519,1.519,0,0,0,.863.274h3.731a1.54405,1.54405,0,0,0,1.5-1.538v-4.063l-9.204-7.431,9.204-7.433v-4.065a1.53571,1.53571,0,0,0-1.503-1.524h-3.728a1.523,1.523,0,0,0-.864.26l-8.262,7.148v-5.881A1.53406,1.53406,0,0,0,42.0922,2.40511Zm-9.424,6.861h-6.467v17.637a1.55352,1.55352,0,0,0,1.542,1.556h2.648a1.36849,1.36849,0,0,0,.568-.207c.03-.022.118-.091.251-.195l.181-.144c.602-.48,1.729-1.388,2.816-2.27v-14.845A1.54135,1.54135,0,0,0,32.6682,9.26611Zm47.558-6.861H66.4882l-7.085,5.713v18.805a1.53854,1.53854,0,0,0,1.534,1.536h6.465v-8.458h6.358v8.458h6.466a1.5396,1.5396,0,0,0,1.534-1.538V3.93611A1.53683,1.53683,0,0,0,80.2262,2.40511Zm-56.952,0h-3.724a1.52512,1.52512,0,0,0-.864.267l-8.265,7.149v-7.415H3.9542a1.54048,1.54048,0,0,0-1.535,1.535v22.985a1.539,1.539,0,0,0,1.535,1.534h6.467v-7.415l8.258,7.148a1.52407,1.52407,0,0,0,.864.266h3.738a1.54,1.54,0,0,0,1.503-1.532v-4.063l-9.208-7.432,9.208-7.432v-4.064A1.54252,1.54252,0,0,0,23.2742,2.40511Zm-11.432-1.401v5.725l6.021-5.203a2.94409,2.94409,0,0,1,1.681-.522h3.744a2.93029,2.93029,0,0,1,2.173,1.007,3.077,3.077,0,0,1,2.273-1.007h14.349a2.95845,2.95845,0,0,1,2.955,2.947v2.772l6.029-5.202a2.92048,2.92048,0,0,1,1.679-.517h3.744a2.96643,2.96643,0,0,1,2.909,2.945v2.364l6.585-5.31h14.239a2.96271,2.96271,0,0,1,2.951,2.959v22.988a2.96616,2.96616,0,0,1-2.955,2.959h-7.886v-8.458h-3.523v8.458h-7.885a2.95789,2.95789,0,0,1-2.246-1.043,2.95431,2.95431,0,0,1-2.187,1.043h-3.752a2.93464,2.93464,0,0,1-1.679-.531l-.016-.013-6.01-5.19v2.771a2.96572,2.96572,0,0,1-2.955,2.963h-7.883v-2.413c-.214.172-.462.373-.717.578l-.308.248c-.665.536-1.301,1.044-1.405,1.119a3.00858,3.00858,0,0,1-1.262.466h-2.767a2.961,2.961,0,0,1-2.251-1.046,2.96426,2.96426,0,0,1-2.192,1.046h-3.751a2.97532,2.97532,0,0,1-1.714-.549l-.013-.009-5.975-5.179v5.734H3.9552a2.96528,2.96528,0,0,1-2.955-2.958V3.95711a2.96166,2.96166,0,0,1,2.955-2.953Z"/></g></svg>