<svg id="Layer_1" data-name="Layer 1" xmlns="http://www.w3.org/2000/svg" viewBox="0 0 398.17 42.83"><defs><style>.cls-1{fill:#fff;}</style></defs><path class="cls-1" d="M1.21,5.6H7.86l5.85,17.7L20,5.53h5.33L31.7,23.3,37.55,5.6H44L34.4,31.92H29l-6.38-17.1-6.37,17.1h-5.4Z"/><path class="cls-1" d="M48.92,5.6h6.21V31.74H48.92Z"/><path class="cls-1" d="M62.18,5.6H75.09c3.59,0,6.37.93,8.22,2.65a7.86,7.86,0,0,1,2.42,6v.07c0,4.22-2.46,6.87-6,8.1l6.9,9.34H79.32l-6-8.37H68.39v8.37H62.18Zm12.5,12.7c3,0,4.76-1.5,4.76-3.7v-.08c0-2.46-1.85-3.73-4.88-3.73H68.39V18.3Z"/><path class="cls-1" d="M103.43,5.6h21.5v5.23H109.64v5.56h13.47v5.23H109.64V31.74h-6.21Z"/><path class="cls-1" d="M129.89,5.6h21.29v5.12H136.06V16h13.31v5.11H136.06v5.49h15.32v5.12H129.89Z"/><path class="cls-1" d="M157.19,5.6h6.21V31.74h-6.21Z"/><path class="cls-1" d="M170.45,5.6h21.3v5.12H176.62V16h13.31v5.11H176.62v5.49H192v5.12h-21.5Z"/><path class="cls-1" d="M197.47,5.6h12.91c3.59,0,6.37.93,8.22,2.65a7.86,7.86,0,0,1,2.42,6v.07c0,4.22-2.46,6.87-6,8.1l6.89,9.34h-7.26l-6.05-8.37h-4.88v8.37h-6.21ZM210,18.3c3,0,4.76-1.5,4.76-3.7v-.08c0-2.46-1.85-3.73-4.88-3.73h-6.17V18.3Z"/><path class="cls-1" d="M226.63,5.6h5.72l13.23,16.09V5.6h6.13V31.74h-5.28L232.76,15.12V31.74h-6.13Z"/><path class="cls-1" d="M270.58,5.6h21.3v5.12H276.75V16h13.31v5.11H276.75v5.49h15.33v5.12h-21.5Z"/><path class="cls-1" d="M297.16,20.54V5.6h6.21V20.39c0,4.25,2.3,6.46,6.09,6.46s6.09-2.13,6.09-6.28V5.6h6.21V20.35c0,7.91-4.8,11.8-12.38,11.8S297.16,28.23,297.16,20.54Z"/><path class="cls-1" d="M326.83,18.74v-.07c0-7.43,6.05-13.52,14.72-13.52,5.33,0,8.51,1.65,11.14,4l-4,4.21a10.8,10.8,0,0,0-7.22-3,8,8,0,0,0-8.18,8.14v.08a8,8,0,0,0,8.18,8.21c3.23,0,5.21-1.19,7.42-3.06l4,3.7a15,15,0,0,1-11.58,4.67C333,32.19,326.83,26.25,326.83,18.74Z"/><path class="cls-1" d="M357.84,5.6h6.22V15.94h11.45V5.6h6.21V31.74h-6.21V21.25H364.06V31.74h-6.22Z"/><path class="cls-1" d="M388.05,6.35V5.6h7.18v.75l-1.9,16.5h-3.39Zm.32,19.41h6.53v6h-6.53Z"/></svg>