<svg id="txt-3" xmlns="http://www.w3.org/2000/svg" viewBox="0 0 1000 600"><defs><style>.cls-1{fill:#fff;}</style></defs><path class="cls-1" d="M101.4,322.72v-.13c0-7.42,6.1-10.84,14.79-10.84a27.77,27.77,0,0,1,9,1.4v-.57c0-4-2.67-6.22-7.87-6.22a29,29,0,0,0-10.14,1.84l-2.6-7.36a34.56,34.56,0,0,1,14.24-2.72c5.69,0,9.8,1.39,12.4,3.8s4,6.28,4,10.84v19.73H125.09v-3.68c-2.53,2.6-6,4.31-11.09,4.31C107.08,333.12,101.4,329.44,101.4,322.72Zm23.9-2.22v-1.71a17.26,17.26,0,0,0-6.64-1.27c-4.45,0-7.19,1.65-7.19,4.69v.13c0,2.6,2.32,4.12,5.68,4.12C122,326.46,125.3,324,125.3,320.5Z"/><path class="cls-1" d="M144.13,298.5h10.41v4.82c2.4-2.86,5.55-5.46,10.82-5.46,4.8,0,8.43,2,10.34,5.39a15.59,15.59,0,0,1,12.05-5.39c7.74,0,12.4,4.31,12.4,12.5v22.13H189.74v-19c0-4.57-2.19-6.92-6.09-6.92s-6.3,2.35-6.3,6.92v19H166.94v-19c0-4.57-2.19-6.92-6.1-6.92s-6.3,2.35-6.3,6.92v19H144.13Z"/><path class="cls-1" d="M209.39,286.19h11v8.56h-11Zm.28,12.31h10.41v34H209.67Z"/><path class="cls-1" d="M229.87,298.5h10.41v4.82c2.4-2.86,5.55-5.46,10.82-5.46,4.79,0,8.42,2,10.34,5.39a15.58,15.58,0,0,1,12.05-5.39c7.74,0,12.4,4.31,12.4,12.5v22.13H275.48v-19c0-4.57-2.19-6.92-6.1-6.92s-6.3,2.35-6.3,6.92v19H252.67v-19c0-4.57-2.19-6.92-6.09-6.92s-6.3,2.35-6.3,6.92v19H229.87Z"/><path class="cls-1" d="M292.74,322.72v-.13c0-7.42,6.09-10.84,14.79-10.84a27.77,27.77,0,0,1,9,1.4v-.57c0-4-2.67-6.22-7.88-6.22a28.88,28.88,0,0,0-10.13,1.84l-2.6-7.36a34.56,34.56,0,0,1,14.24-2.72c5.68,0,9.79,1.39,12.4,3.8s4,6.28,4,10.84v19.73H316.43v-3.68c-2.53,2.6-6,4.31-11.09,4.31C298.42,333.12,292.74,329.44,292.74,322.72Zm23.9-2.22v-1.71a17.28,17.28,0,0,0-6.65-1.27c-4.45,0-7.19,1.65-7.19,4.69v.13c0,2.6,2.33,4.12,5.69,4.12C313.35,326.46,316.64,324,316.64,320.5Z"/><path class="cls-1" d="M336,286.19h10.41v46.3H336Z"/><path class="cls-1" d="M356.35,286.19h11v8.56h-11Zm.28,12.31H367v34H356.63Z"/><path class="cls-1" d="M374,328l4.45-6.34A21.76,21.76,0,0,0,390,325.7c3,0,4.38-1,4.38-2.53V323c0-2.09-3.56-2.79-7.6-3.93-5.14-1.4-11-3.62-11-10.21v-.13c0-6.91,6-10.78,13.42-10.78a26.88,26.88,0,0,1,13.7,3.93l-4,6.66c-3.63-2-7.26-3.17-9.93-3.17s-3.84,1-3.84,2.34v.13c0,1.9,3.5,2.79,7.47,4.06,5.13,1.59,11.09,3.87,11.09,10.08v.13c0,7.55-6.09,11-14,11A27,27,0,0,1,374,328Z"/><path class="cls-1" d="M409.43,315.68v-.12c0-9.71,8-17.7,19.24-17.7,6.92,0,11.23,2.16,14.65,5.71L437,309.91c-2.33-2.28-4.66-3.74-8.36-3.74a9,9,0,0,0-8.9,9.26v.13a9,9,0,0,0,9.31,9.38c3.49,0,5.89-1.39,8.42-3.61l6.1,5.7c-3.56,3.62-7.67,6.22-15,6.22C417.51,333.25,409.43,325.38,409.43,315.68Z"/><path class="cls-1" d="M450.31,286.19h10.41v17.13c2.4-2.86,5.48-5.46,10.75-5.46,7.88,0,12.46,4.82,12.46,12.62v22H473.52v-19c0-4.57-2.32-6.92-6.3-6.92s-6.5,2.35-6.5,6.92v19H450.31Z"/></svg>