<svg id="Layer_1" data-name="Layer 1" xmlns="http://www.w3.org/2000/svg" viewBox="0 0 293.62 39.91"><path d="M93.53,3.09H97v5.7h6.32V3.09h3.42V17.51h-3.42V11.72H97v5.79H93.53Z"/><path d="M109.51,12.05v0a5.7,5.7,0,0,1,5.89-5.75c4,0,5.81,2.86,5.81,6,0,.25,0,.54,0,.83h-8.29a2.72,2.72,0,0,0,2.91,2.16,4.08,4.08,0,0,0,2.89-1.13l1.94,1.59a6.18,6.18,0,0,1-4.87,2.05C112.15,17.75,109.51,15.43,109.51,12.05Zm8.41-.93a2.47,2.47,0,0,0-2.52-2.35,2.58,2.58,0,0,0-2.58,2.35Z"/><path d="M123.63,13.61V6.47H127v6.16c0,1.48.76,2.24,2,2.24a2,2,0,0,0,2.11-2.24V6.47h3.39v11h-3.39V15.94a4.28,4.28,0,0,1-3.49,1.77A3.75,3.75,0,0,1,123.63,13.61Z"/><path d="M138.14,14.38V9.14h-1.43V6.47h1.43V3.64h3.38V6.47h2.8V9.14h-2.8v4.72c0,.72.33,1.07,1.09,1.07a3.64,3.64,0,0,0,1.67-.39v2.51a5.24,5.24,0,0,1-2.67.64C139.54,17.69,138.14,16.93,138.14,14.38Z"/><path d="M146.23,12.05v0a5.71,5.71,0,0,1,5.9-5.75c4,0,5.81,2.86,5.81,6,0,.25,0,.54-.05.83h-8.3a2.73,2.73,0,0,0,2.92,2.16,4.08,4.08,0,0,0,2.89-1.13l1.94,1.59a6.21,6.21,0,0,1-4.88,2.05C148.88,17.75,146.23,15.43,146.23,12.05Zm8.41-.93a2.47,2.47,0,0,0-2.51-2.35,2.58,2.58,0,0,0-2.58,2.35Z"/><path d="M167.19,2.47h3.56V5.25h-3.56Zm.09,4h3.38v11h-3.38Z"/><path d="M172.9,16l1.45-2a7.11,7.11,0,0,0,3.76,1.31c1,0,1.42-.33,1.42-.82v0c0-.68-1.15-.91-2.46-1.28-1.67-.45-3.56-1.17-3.56-3.32v0c0-2.24,2-3.5,4.36-3.5a8.8,8.8,0,0,1,4.45,1.28L181,9.74a7.37,7.37,0,0,0-3.22-1c-.82,0-1.25.33-1.25.76v0c0,.61,1.14.9,2.43,1.31,1.67.52,3.6,1.26,3.6,3.28v0c0,2.45-2,3.56-4.56,3.56A8.75,8.75,0,0,1,172.9,16Z"/><path d="M185.56,14.38V9.14h-1.42V6.47h1.42V3.64h3.38V6.47h2.81V9.14h-2.81v4.72c0,.72.34,1.07,1.1,1.07a3.6,3.6,0,0,0,1.66-.39v2.51a5.19,5.19,0,0,1-2.67.64C187,17.69,185.56,16.93,185.56,14.38Z"/><path d="M2.34,23.69H5.77V38.11H2.34Z"/><path d="M9.3,27.06h3.38v1.57a4.3,4.3,0,0,1,3.5-1.77A3.75,3.75,0,0,1,20.23,31v7.15H16.84V32c0-1.49-.75-2.25-2-2.25A2,2,0,0,0,12.68,32v6.16H9.3Z"/><path d="M23.72,35V29.74H22.29V27.06h1.43V24.24H27.1v2.82h2.8v2.68H27.1v4.72c0,.72.33,1.07,1.09,1.07a3.64,3.64,0,0,0,1.67-.39v2.51a5.32,5.32,0,0,1-2.67.64C25.12,38.29,23.72,37.53,23.72,35Z"/><path d="M31.82,32.65v0a5.7,5.7,0,0,1,5.89-5.75c4,0,5.81,2.86,5.81,6,0,.25,0,.54-.05.83h-8.3a2.74,2.74,0,0,0,2.92,2.16A4.08,4.08,0,0,0,41,34.71l1.94,1.58A6.18,6.18,0,0,1,38,38.35C34.46,38.35,31.82,36,31.82,32.65Zm8.4-.93a2.47,2.47,0,0,0-2.51-2.35,2.58,2.58,0,0,0-2.58,2.35Z"/><path d="M46,27.06h3.38v2.23a3.67,3.67,0,0,1,3.8-2.43v3.27H53c-2.25,0-3.63,1.26-3.63,3.9v4.08H46Z"/><path d="M55.33,27.06h3.38v1.57a4.3,4.3,0,0,1,3.49-1.77,3.75,3.75,0,0,1,4,4.1v7.15H62.87V32c0-1.49-.76-2.25-2-2.25A2,2,0,0,0,58.71,32v6.16H55.33Z"/><path d="M68.48,34.93v0c0-2.41,2-3.52,4.8-3.52a9,9,0,0,1,2.91.45v-.18c0-1.3-.86-2-2.55-2a9.22,9.22,0,0,0-3.3.6l-.84-2.39a11.15,11.15,0,0,1,4.63-.89,5.73,5.73,0,0,1,4,1.24,4.59,4.59,0,0,1,1.29,3.52v6.41H76.17v-1.2a4.76,4.76,0,0,1-3.6,1.4C70.32,38.31,68.48,37.12,68.48,34.93Zm7.76-.72v-.55a5.57,5.57,0,0,0-2.16-.42c-1.44,0-2.33.54-2.33,1.53v0c0,.84.75,1.34,1.84,1.34C75.17,36.15,76.24,35.34,76.24,34.21Z"/><path d="M82.91,35V29.74H81.49V27.06h1.42V24.24h3.38v2.82H89.1v2.68H86.29v4.72c0,.72.34,1.07,1.09,1.07a3.61,3.61,0,0,0,1.67-.39v2.51a5.29,5.29,0,0,1-2.67.64C84.31,38.29,82.91,37.53,82.91,35Z"/><path d="M91.65,23.07h3.56v2.78H91.65Zm.09,4h3.39V38.11H91.74Z"/><path d="M97.73,32.65v0c0-3.18,2.76-5.75,6.47-5.75s6.43,2.53,6.43,5.7v0c0,3.17-2.76,5.74-6.47,5.74S97.73,35.82,97.73,32.65Zm9.56,0v0a3,3,0,0,0-3.13-3.05,2.93,2.93,0,0,0-3.09,3v0a3,3,0,0,0,3.13,3A2.93,2.93,0,0,0,107.29,32.65Z"/><path d="M113.08,27.06h3.38v1.57A4.3,4.3,0,0,1,120,26.86a3.75,3.75,0,0,1,4,4.1v7.15h-3.38V32c0-1.49-.76-2.25-2.05-2.25A2,2,0,0,0,116.46,32v6.16h-3.38Z"/><path d="M126.22,34.93v0c0-2.41,2-3.52,4.81-3.52a9,9,0,0,1,2.91.45v-.18c0-1.3-.86-2-2.56-2a9.17,9.17,0,0,0-3.29.6l-.84-2.39a11.13,11.13,0,0,1,4.62-.89,5.74,5.74,0,0,1,4,1.24,4.59,4.59,0,0,1,1.29,3.52v6.41h-3.27v-1.2a4.77,4.77,0,0,1-3.6,1.4C128.07,38.31,126.22,37.12,126.22,34.93Zm7.77-.72v-.55a5.57,5.57,0,0,0-2.16-.42c-1.45,0-2.34.54-2.34,1.53v0c0,.84.76,1.34,1.85,1.34C132.92,36.15,134,35.34,134,34.21Z"/><path d="M140.26,23.07h3.38v15h-3.38Z"/><path d="M146.24,32.65v0a5.71,5.71,0,0,1,5.9-5.75c4,0,5.81,2.86,5.81,6,0,.25,0,.54,0,.83h-8.3a2.74,2.74,0,0,0,2.92,2.16,4.08,4.08,0,0,0,2.89-1.13l1.94,1.58a6.18,6.18,0,0,1-4.88,2.06C148.89,38.35,146.24,36,146.24,32.65Zm8.41-.93a2.47,2.47,0,0,0-2.51-2.35,2.58,2.58,0,0,0-2.58,2.35Z"/><path d="M160.46,27.06h3.38v2.23a3.68,3.68,0,0,1,3.81-2.43v3.27h-.18c-2.25,0-3.63,1.26-3.63,3.9v4.08h-3.38Z"/><path d="M176.79,23.69h11.86v2.88h-8.44v3.07h7.43v2.88h-7.43v5.59h-3.42Z"/><path d="M191,27.06h3.39v2.23a3.67,3.67,0,0,1,3.8-2.43v3.27H198c-2.25,0-3.62,1.26-3.62,3.9v4.08H191Z"/><path d="M199.61,34.93v0c0-2.41,2-3.52,4.81-3.52a9,9,0,0,1,2.91.45v-.18c0-1.3-.87-2-2.56-2a9.17,9.17,0,0,0-3.29.6l-.85-2.39a11.21,11.21,0,0,1,4.63-.89,5.76,5.76,0,0,1,4,1.24,4.59,4.59,0,0,1,1.29,3.52v6.41h-3.27v-1.2a4.78,4.78,0,0,1-3.61,1.4C201.46,38.31,199.61,37.12,199.61,34.93Zm7.77-.72v-.55a5.57,5.57,0,0,0-2.16-.42c-1.45,0-2.34.54-2.34,1.53v0c0,.84.76,1.34,1.85,1.34C206.31,36.15,207.38,35.34,207.38,34.21Z"/><path d="M213.4,34.21V27.06h3.39v6.16c0,1.49.75,2.25,2,2.25A2,2,0,0,0,221,33.22V27.06h3.38V38.11H221V36.54a4.3,4.3,0,0,1-3.5,1.77A3.75,3.75,0,0,1,213.4,34.21Z"/><path d="M226.77,32.65v0a5.71,5.71,0,0,1,5.9-5.75c4,0,5.81,2.86,5.81,6,0,.25,0,.54,0,.83h-8.3a2.73,2.73,0,0,0,2.92,2.16,4.09,4.09,0,0,0,2.89-1.13l1.93,1.58A6.14,6.14,0,0,1,233,38.35C229.42,38.35,226.77,36,226.77,32.65Zm8.41-.93a2.47,2.47,0,0,0-2.51-2.35,2.58,2.58,0,0,0-2.58,2.35Z"/><path d="M241,27.06h3.38v1.57a4.3,4.3,0,0,1,3.49-1.77,3.75,3.75,0,0,1,4,4.1v7.15h-3.38V32c0-1.49-.76-2.25-2.05-2.25A2,2,0,0,0,244.37,32v6.16H241Z"/><path d="M255.4,35V29.74H254V27.06h1.42V24.24h3.38v2.82h2.81v2.68h-2.81v4.72c0,.72.34,1.07,1.09,1.07a3.61,3.61,0,0,0,1.67-.39v2.51a5.29,5.29,0,0,1-2.67.64C256.8,38.29,255.4,37.53,255.4,35Z"/><path d="M263.37,34.93v0c0-2.41,2-3.52,4.8-3.52a9.09,9.09,0,0,1,2.92.45v-.18c0-1.3-.87-2-2.56-2a9.17,9.17,0,0,0-3.29.6l-.85-2.39a11.15,11.15,0,0,1,4.63-.89,5.73,5.73,0,0,1,4,1.24,4.59,4.59,0,0,1,1.29,3.52v6.41h-3.27v-1.2a4.76,4.76,0,0,1-3.6,1.4C265.21,38.31,263.37,37.12,263.37,34.93Zm7.76-.72v-.55a5.54,5.54,0,0,0-2.16-.42c-1.44,0-2.33.54-2.33,1.53v0c0,.84.75,1.34,1.84,1.34C270.06,36.15,271.13,35.34,271.13,34.21Z"/><path d="M277.31,40.29l1.16-2.35a8.25,8.25,0,0,0,4,1c2.31,0,3.4-1,3.4-3v-.53A4.79,4.79,0,0,1,282,37.2a5.05,5.05,0,0,1-5.3-5.15v0a5.06,5.06,0,0,1,5.3-5.15,5,5,0,0,1,3.85,1.65V27.06h3.38v8.55A5.67,5.67,0,0,1,287.73,40c-1.12,1-2.83,1.48-5.14,1.48A12.12,12.12,0,0,1,277.31,40.29Zm8.59-8.24v0a2.92,2.92,0,0,0-5.8,0v0A2.63,2.63,0,0,0,283,34.6,2.67,2.67,0,0,0,285.9,32.05Z"/></svg>