<svg id="Layer_1" data-name="Layer 1" xmlns="http://www.w3.org/2000/svg" viewBox="0 0 298.2 37.16"><rect x="1.61" y="34.02" width="293.57" height="0.78"/><path d="M14,20.43c0,2.49-.16,2.65-.16,3.89-2.87-.15-3.34-.15-6.21-.15h-6c1.43-.32,1.75-.63,1.75-2.65V5.63C3.36,3.3,3,3.14,1.92,3V2.83H7.33V3c-1.11.15-1.59.31-1.59,2.64v17.6a8.56,8.56,0,0,0,2.55.16C12.9,23.39,13.54,23.39,14,20.43Z"/><path d="M41.38,6.41,38,15.13h6.05Zm9.07,17.91H45v-.15c1,0,1.28-.47,1.28-1.09A6.65,6.65,0,0,0,46,21.52l-1.75-5.61H37.56l-1.75,4.83a5.41,5.41,0,0,0-.47,2c0,.63.32,1.25,1.43,1.25v.16H31.84c1.59-.32,2.07-.78,3.34-4.05L42,2.36h.32L48.7,22C49.34,23.85,49.34,24,50.45,24.32Z"/><path d="M120.14,24.32h-5.73v-.15c1.28-.16,1.6-.47,1.6-1.09a8.58,8.58,0,0,0-.32-1.56l-2.55-14L106.62,24h-.16L99.62,7.66,97.39,20.27a12.66,12.66,0,0,0-.32,2c0,1.09.32,1.55,1.59,1.87v.15H93.57v-.15c1.6-.47,2.07-1.41,2.7-4.21l3.35-17.6h.16l7.48,17.76,7.31-17.76h.16L118.39,22C118.55,23.54,118.87,23.85,120.14,24.32Z"/><path d="M146.4,6.41l-3.19,8.72h6Zm9.22,17.91h-5.4v-.15c.95,0,1.27-.47,1.27-1.09a6.65,6.65,0,0,0-.32-1.56l-1.59-5.45h-6.69l-1.74,4.83a5.21,5.21,0,0,0-.48,2c0,.62.32,1.25,1.43,1.25v.15h-4.93v-.15c1.59-.32,2.06-.78,3.34-4.05l6.68-17.76h.32L153.87,22C154.51,23.85,154.51,24,155.62,24.32Z"/><path d="M180.45,24.32H175v-.15c1.11-.16,1.43-.32,1.43-2.65V5.63c0-2.33-.32-2.49-1.43-2.64V2.83h5.41V3c-1.12.15-1.6.31-1.6,2.64V21.52C179,23.85,179.33,24,180.45,24.32Z"/><path d="M201.77,19.34v.78c0,2.49,2.38,3.73,4.77,3.73a3.87,3.87,0,0,0,4.14-4c0-5.92-9.07-5.77-9.07-12.15,0-3.27,2.38-5.3,5.56-5.3,1.76,0,2.87.47,4,.47h.48c0,.62-.16,1.09-.16,2V6.41h-.16A4,4,0,0,0,207,3c-1.9,0-3.66.93-3.66,3.27,0,5.6,9.07,5.45,9.07,12.3,0,3.74-2.7,6.07-6.36,6.07-2.07,0-2.87-.62-4.29-.62h-.48v-.78c0-.62-.16-1.24-.16-2A12.62,12.62,0,0,1,201.77,19.34Z"/><path d="M251.73,13.89c0-7.48-4.14-10.59-8.28-10.59-4,0-7.95,3-7.95,10.43,0,7.17,3.66,10.28,7.95,10.28C248.07,23.85,251.73,20.74,251.73,13.89Zm-19.1-.16a11,11,0,1,1,22,0,11,11,0,0,1-22,0Z"/><path d="M294.37,24.94,277.18,6.26V8.9c0,14.8,0,14.64,2.07,15.27v.15h-4.93v-.15c1.91-.78,1.91-.47,1.91-15.27V2.36h.16L293.57,20.9V18.25c0-14.95-.16-14.8-2.06-15.42h5.08V3c-2.06.62-2.06.46-2.06,15.26Z"/></svg>