<svg id="Layer_1" data-name="Layer 1" xmlns="http://www.w3.org/2000/svg" viewBox="0 0 398.17 23.63"><path d="M1.87,3.09H5.29v5.7h6.32V3.09H15V17.51H11.61V11.72H5.29v5.79H1.87Z"/><path d="M17.84,12.05v0a5.71,5.71,0,0,1,5.9-5.75c4,0,5.8,2.86,5.8,6,0,.25,0,.54,0,.83H21.2a2.72,2.72,0,0,0,2.91,2.16A4.1,4.1,0,0,0,27,14.11l1.93,1.58a6.14,6.14,0,0,1-4.87,2.06C20.49,17.75,17.84,15.43,17.84,12.05Zm8.41-.93a2.47,2.47,0,0,0-2.51-2.35,2.57,2.57,0,0,0-2.58,2.35Z"/><path d="M32,13.61V6.47h3.38v6.16c0,1.48.75,2.24,2,2.24a2,2,0,0,0,2.11-2.24V6.47h3.38v11H39.51V15.94A4.3,4.3,0,0,1,36,17.71,3.75,3.75,0,0,1,32,13.61Z"/><path d="M46.47,14.38V9.14H45.05V6.47h1.42V3.64h3.38V6.47h2.81V9.14H49.85v4.72c0,.72.34,1.07,1.09,1.07a3.61,3.61,0,0,0,1.67-.39v2.51a5.19,5.19,0,0,1-2.67.64C47.87,17.69,46.47,16.93,46.47,14.38Z"/><path d="M54.57,12.05v0a5.7,5.7,0,0,1,5.89-5.75c4,0,5.81,2.86,5.81,6,0,.25,0,.54,0,.83h-8.3a2.72,2.72,0,0,0,2.91,2.16,4.06,4.06,0,0,0,2.89-1.13l1.94,1.58a6.14,6.14,0,0,1-4.87,2.06C57.22,17.75,54.57,15.43,54.57,12.05ZM63,11.12a2.47,2.47,0,0,0-2.52-2.35,2.58,2.58,0,0,0-2.58,2.35Z"/><path d="M75.52,2.47h3.56V5.25H75.52Zm.09,4H79v11H75.61Z"/><path d="M81.24,16,82.69,14a7,7,0,0,0,3.76,1.32c1,0,1.42-.33,1.42-.82v0c0-.68-1.16-.91-2.47-1.28-1.67-.45-3.56-1.17-3.56-3.32v0c0-2.24,2-3.5,4.36-3.5a8.67,8.67,0,0,1,4.45,1.28L89.36,9.74a7.44,7.44,0,0,0-3.23-1c-.82,0-1.24.33-1.24.76v0c0,.61,1.13.9,2.42,1.31,1.67.52,3.61,1.26,3.61,3.28v0c0,2.45-2,3.56-4.56,3.56A8.75,8.75,0,0,1,81.24,16Z"/><path d="M93.9,14.38V9.14H92.47V6.47H93.9V3.64h3.38V6.47h2.8V9.14h-2.8v4.72c0,.72.33,1.07,1.09,1.07a3.64,3.64,0,0,0,1.67-.39v2.51a5.22,5.22,0,0,1-2.67.64C95.3,17.69,93.9,16.93,93.9,14.38Z"/><path d="M109.76,3.09h3.42V17.51h-3.42Z"/><path d="M116.72,6.47h3.38V8a4.33,4.33,0,0,1,3.5-1.77,3.76,3.76,0,0,1,4.05,4.1v7.15h-3.39V11.35c0-1.49-.75-2.25-2-2.25a2,2,0,0,0-2.12,2.25v6.16h-3.38Z"/><path d="M131.14,14.38V9.14h-1.43V6.47h1.43V3.64h3.38V6.47h2.8V9.14h-2.8v4.72c0,.72.33,1.07,1.09,1.07a3.64,3.64,0,0,0,1.67-.39v2.51a5.24,5.24,0,0,1-2.67.64C132.54,17.69,131.14,16.93,131.14,14.38Z"/><path d="M139.23,12.05v0a5.71,5.71,0,0,1,5.9-5.75c4,0,5.81,2.86,5.81,6,0,.25,0,.54-.05.83h-8.3a2.73,2.73,0,0,0,2.92,2.16,4.09,4.09,0,0,0,2.89-1.13l1.93,1.58a6.14,6.14,0,0,1-4.87,2.06C141.88,17.75,139.23,15.43,139.23,12.05Zm8.41-.93a2.47,2.47,0,0,0-2.51-2.35,2.58,2.58,0,0,0-2.58,2.35Z"/><path d="M153.45,6.47h3.38V8.69a3.68,3.68,0,0,1,3.8-2.43V9.54h-.17c-2.25,0-3.63,1.25-3.63,3.89v4.08h-3.38Z"/><path d="M162.75,6.47h3.38V8a4.32,4.32,0,0,1,3.49-1.77,3.75,3.75,0,0,1,4,4.1v7.15h-3.38V11.35c0-1.49-.76-2.25-2-2.25a2,2,0,0,0-2.11,2.25v6.16h-3.38Z"/><path d="M175.89,14.34v-.05c0-2.41,2-3.52,4.81-3.52a9.26,9.26,0,0,1,2.91.45V11c0-1.3-.86-2-2.56-2a9.39,9.39,0,0,0-3.29.6l-.84-2.39a11.13,11.13,0,0,1,4.62-.89,5.79,5.79,0,0,1,4,1.24,4.59,4.59,0,0,1,1.29,3.52v6.41h-3.27v-1.2a4.74,4.74,0,0,1-3.6,1.4C177.74,17.71,175.89,16.52,175.89,14.34Zm7.77-.73v-.55a5.58,5.58,0,0,0-2.16-.41c-1.45,0-2.34.53-2.34,1.52v0c0,.85.76,1.34,1.85,1.34C182.59,15.55,183.66,14.75,183.66,13.61Z"/><path d="M190.33,14.38V9.14h-1.42V6.47h1.42V3.64h3.38V6.47h2.81V9.14h-2.81v4.72c0,.72.34,1.07,1.09,1.07a3.61,3.61,0,0,0,1.67-.39v2.51a5.19,5.19,0,0,1-2.67.64C191.73,17.69,190.33,16.93,190.33,14.38Z"/><path d="M199.07,2.47h3.56V5.25h-3.56Zm.09,4h3.38v11h-3.38Z"/><path d="M205.15,12.05v0c0-3.17,2.76-5.75,6.47-5.75s6.43,2.53,6.43,5.71v0c0,3.17-2.76,5.74-6.47,5.74S205.15,15.22,205.15,12.05Zm9.56,0v0a3,3,0,0,0-3.13-3,2.94,2.94,0,0,0-3.1,3v0a3.05,3.05,0,0,0,3.14,3.05A2.93,2.93,0,0,0,214.71,12.05Z"/><path d="M220.5,6.47h3.38V8a4.32,4.32,0,0,1,3.49-1.77,3.75,3.75,0,0,1,4,4.1v7.15H228V11.35c0-1.49-.76-2.25-2-2.25a2,2,0,0,0-2.11,2.25v6.16H220.5Z"/><path d="M233.64,14.34v-.05c0-2.41,2-3.52,4.81-3.52a9.26,9.26,0,0,1,2.91.45V11c0-1.3-.86-2-2.56-2a9.39,9.39,0,0,0-3.29.6l-.84-2.39a11.13,11.13,0,0,1,4.62-.89,5.81,5.81,0,0,1,4,1.24,4.59,4.59,0,0,1,1.29,3.52v6.41h-3.27v-1.2a4.74,4.74,0,0,1-3.6,1.4C235.49,17.71,233.64,16.52,233.64,14.34Zm7.77-.73v-.55a5.58,5.58,0,0,0-2.16-.41c-1.45,0-2.34.53-2.34,1.52v0c0,.85.76,1.34,1.85,1.34C240.34,15.55,241.41,14.75,241.41,13.61Z"/><path d="M247.68,2.47h3.38v15h-3.38Z"/><path d="M253.66,12.05v0a5.71,5.71,0,0,1,5.9-5.75c4,0,5.81,2.86,5.81,6,0,.25,0,.54-.05.83H257a2.73,2.73,0,0,0,2.92,2.16,4.08,4.08,0,0,0,2.89-1.13l1.94,1.58a6.18,6.18,0,0,1-4.88,2.06C256.31,17.75,253.66,15.43,253.66,12.05Zm8.41-.93a2.47,2.47,0,0,0-2.51-2.35A2.58,2.58,0,0,0,257,11.12Z"/><path d="M267.88,6.47h3.38V8.69a3.68,3.68,0,0,1,3.8-2.43V9.54h-.17c-2.25,0-3.63,1.25-3.63,3.89v4.08h-3.38Z"/><path d="M284.21,3.09h11.85V6h-8.43V9h7.43v2.89h-7.43v5.58h-3.42Z"/><path d="M298.44,6.47h3.39V8.69a3.68,3.68,0,0,1,3.8-2.43V9.54h-.18c-2.25,0-3.62,1.25-3.62,3.89v4.08h-3.39Z"/><path d="M307,14.34v-.05c0-2.41,2-3.52,4.81-3.52a9.26,9.26,0,0,1,2.91.45V11c0-1.3-.87-2-2.56-2a9.39,9.39,0,0,0-3.29.6l-.85-2.39a11.21,11.21,0,0,1,4.63-.89,5.81,5.81,0,0,1,4,1.24A4.59,4.59,0,0,1,318,11.1v6.41h-3.27v-1.2a4.74,4.74,0,0,1-3.61,1.4C308.88,17.71,307,16.52,307,14.34Zm7.76-.73v-.55a5.49,5.49,0,0,0-2.15-.41c-1.45,0-2.34.53-2.34,1.52v0c0,.85.76,1.34,1.85,1.34C313.73,15.55,314.79,14.75,314.79,13.61Z"/><path d="M320.82,13.61V6.47h3.38v6.16c0,1.48.76,2.24,2.05,2.24a2,2,0,0,0,2.11-2.24V6.47h3.39v11h-3.39V15.94a4.3,4.3,0,0,1-3.49,1.77A3.75,3.75,0,0,1,320.82,13.61Z"/><path d="M334.19,12.05v0a5.71,5.71,0,0,1,5.9-5.75c4,0,5.8,2.86,5.8,6,0,.25,0,.54,0,.83h-8.3a2.73,2.73,0,0,0,2.92,2.16,4.09,4.09,0,0,0,2.89-1.13l1.93,1.58a6.14,6.14,0,0,1-4.87,2.06C336.84,17.75,334.19,15.43,334.19,12.05Zm8.41-.93a2.47,2.47,0,0,0-2.51-2.35,2.57,2.57,0,0,0-2.58,2.35Z"/><path d="M348.41,6.47h3.38V8a4.32,4.32,0,0,1,3.49-1.77,3.75,3.75,0,0,1,4.05,4.1v7.15H356V11.35c0-1.49-.76-2.25-2.05-2.25a2,2,0,0,0-2.11,2.25v6.16h-3.38Z"/><path d="M362.82,14.38V9.14H361.4V6.47h1.42V3.64h3.38V6.47H369V9.14H366.2v4.72c0,.72.34,1.07,1.09,1.07a3.61,3.61,0,0,0,1.67-.39v2.51a5.19,5.19,0,0,1-2.67.64C364.22,17.69,362.82,16.93,362.82,14.38Z"/><path d="M370.79,14.34v-.05c0-2.41,2-3.52,4.8-3.52a9.26,9.26,0,0,1,2.91.45V11c0-1.3-.86-2-2.55-2a9.45,9.45,0,0,0-3.3.6l-.84-2.39a11.15,11.15,0,0,1,4.63-.89,5.78,5.78,0,0,1,4,1.24,4.59,4.59,0,0,1,1.29,3.52v6.41h-3.27v-1.2a4.72,4.72,0,0,1-3.6,1.4C372.63,17.71,370.79,16.52,370.79,14.34Zm7.76-.73v-.55a5.58,5.58,0,0,0-2.16-.41c-1.44,0-2.33.53-2.33,1.52v0c0,.85.75,1.34,1.84,1.34C377.48,15.55,378.55,14.75,378.55,13.61Z"/><path d="M384.73,19.69l1.16-2.35a8.25,8.25,0,0,0,4,1c2.31,0,3.4-1,3.4-3v-.53a4.79,4.79,0,0,1-3.89,1.79,5,5,0,0,1-5.3-5.15v0a5.06,5.06,0,0,1,5.3-5.15,5,5,0,0,1,3.85,1.65V6.47h3.38V15a5.66,5.66,0,0,1-1.51,4.34c-1.12,1-2.83,1.48-5.14,1.48A12.12,12.12,0,0,1,384.73,19.69Zm8.59-8.24v0a2.93,2.93,0,0,0-5.81,0v0a2.64,2.64,0,0,0,2.9,2.56A2.68,2.68,0,0,0,393.32,11.45Z"/></svg>