<svg xmlns="http://www.w3.org/2000/svg" viewBox="0 0 162 35"><defs><style>.cls-1{fill:#fff;}</style></defs><g id="SVG"><path class="cls-1" d="M9,9.44c0,1.77-1,3.09-3.4,3.09H1.71V1.18h4c2.14,0,3.2,1.26,3.2,3a2.63,2.63,0,0,1-1.53,2.6v.07A2.63,2.63,0,0,1,9,9.44ZM3.19,2.5V6.14h2.3A1.68,1.68,0,0,0,7.34,4.32,1.68,1.68,0,0,0,5.49,2.5ZM7.48,9.32c0-1.22-.73-1.89-2.06-1.89H3.19v3.78H5.42C6.75,11.21,7.48,10.53,7.48,9.32Z"/><path class="cls-1" d="M17.32,8.81H12c.08,1.87.83,2.7,2,2.7a1.75,1.75,0,0,0,1.77-1.1h1.48A3.17,3.17,0,0,1,14,12.75c-2.08,0-3.42-1.56-3.42-4.25S11.86,4.27,14,4.27s3.33,1.55,3.33,4.06A3.47,3.47,0,0,1,17.32,8.81ZM12,7.67h4c-.14-1.46-.85-2.16-2-2.16S12.17,6.19,12,7.67Z"/><path class="cls-1" d="M23.24,1.21V2.4a3.69,3.69,0,0,0-.87-.1c-1,0-1.29.51-1.29,1.29v.9h2V5.72h-2v6.81H19.67V5.72H18.29V4.49h1.38v-1A2.19,2.19,0,0,1,22.06,1,3.83,3.83,0,0,1,23.24,1.21Z"/><path class="cls-1" d="M28.52,4.46V5.75a4,4,0,0,0-.56,0c-1.44,0-2.07.8-2.07,2.36v4.45H24.46v-8H25.8V5.63h.09A2.21,2.21,0,0,1,28,4.39,1.89,1.89,0,0,1,28.52,4.46Z"/><path class="cls-1" d="M36,8.81H30.67c.08,1.87.83,2.7,2,2.7a1.74,1.74,0,0,0,1.76-1.1H36a3.16,3.16,0,0,1-3.24,2.34c-2.08,0-3.42-1.56-3.42-4.25s1.29-4.23,3.43-4.23,3.33,1.55,3.33,4.06C36.05,8.5,36.05,8.69,36,8.81ZM30.72,7.67h4c-.14-1.46-.85-2.16-2-2.16S30.89,6.19,30.72,7.67Z"/><path class="cls-1" d="M37.91,1.18h1.43V3H37.91Zm0,3.31h1.43v8H37.91Z"/><path class="cls-1" d="M48,8.81H42.58c.09,1.87.84,2.7,2,2.7a1.74,1.74,0,0,0,1.77-1.1h1.48a3.17,3.17,0,0,1-3.25,2.34c-2.07,0-3.41-1.56-3.41-4.25s1.29-4.23,3.43-4.23S48,5.82,48,8.33A3.47,3.47,0,0,1,48,8.81ZM42.63,7.67h4c-.13-1.46-.85-2.16-2-2.16S42.8,6.19,42.63,7.67Z"/><path class="cls-1" d="M56,7.21v5.32H54.62V7.35c0-1-.39-1.77-1.51-1.77S51.25,6.52,51.25,8v4.53H49.83v-8h1.34V5.6h.08a2.43,2.43,0,0,1,2.28-1.33C55.3,4.27,56,5.41,56,7.21Z"/><path class="cls-1" d="M61.11,9.42h1.5a2.06,2.06,0,0,0,2.24,1.92c1.28,0,2-.71,2-1.78S66.28,8,65.19,7.67l-1.34-.42a3.09,3.09,0,0,1-2.48-3A3.22,3.22,0,0,1,64.82,1a3.31,3.31,0,0,1,3.55,3.19H66.89a1.9,1.9,0,0,0-2.07-1.78A1.75,1.75,0,0,0,62.9,4.12c0,.9.56,1.43,1.56,1.75l1.36.41a3.24,3.24,0,0,1,2.59,3.19c0,2-1.48,3.28-3.56,3.28A3.42,3.42,0,0,1,61.11,9.42Z"/><path class="cls-1" d="M70.33,1.18h1.42V3H70.33Zm0,3.31h1.42v8H70.33Z"/><path class="cls-1" d="M80.37,8.81H75c.09,1.87.83,2.7,2,2.7a1.74,1.74,0,0,0,1.77-1.1h1.48A3.17,3.17,0,0,1,77,12.75c-2.07,0-3.42-1.56-3.42-4.25s1.3-4.23,3.44-4.23,3.33,1.55,3.33,4.06A3.47,3.47,0,0,1,80.37,8.81ZM75.05,7.67h4c-.13-1.46-.85-2.16-2-2.16S75.22,6.19,75.05,7.67Z"/><path class="cls-1" d="M85.05,10.41h1.34a1.4,1.4,0,0,0,1.53,1.17c.83,0,1.43-.46,1.43-1.15s-.63-1.06-1.24-1.24l-1-.26A2.21,2.21,0,0,1,85.2,6.65,2.49,2.49,0,0,1,88,4.27a2.57,2.57,0,0,1,2.74,2.4l-1.36,0A1.32,1.32,0,0,0,88,5.46,1.22,1.22,0,0,0,86.6,6.62c0,.63.35,1,1.08,1.14l1,.25a2.33,2.33,0,0,1,2.07,2.33c0,1.45-1.15,2.41-2.82,2.41A2.6,2.6,0,0,1,85.05,10.41Z"/><path class="cls-1" d="M92.6,1.18H94V3H92.6Zm0,3.31H94v8H92.6Z"/><path class="cls-1" d="M99.35,4.27A3.06,3.06,0,0,1,102.56,7h-1.45a1.65,1.65,0,0,0-1.76-1.46c-1.31,0-2,1.06-2,2.92s.7,2.95,2,2.95A1.66,1.66,0,0,0,101.11,10h1.45a3.05,3.05,0,0,1-3.21,2.77c-2.16,0-3.45-1.63-3.45-4.25S97.19,4.27,99.35,4.27Z"/><path class="cls-1" d="M110.5,7.21v5.32h-1.41V7.35c0-1-.39-1.77-1.52-1.77s-1.85.94-1.85,2.42v4.53h-1.43V1.18h1.43V5.46h.09A2.34,2.34,0,0,1,108,4.27C109.77,4.27,110.5,5.41,110.5,7.21Z"/><path class="cls-1" d="M122.21,4.49l-2.82,8h-1.5l-2.82-8h1.53l2,5.94h.1l2-5.94Z"/><path class="cls-1" d="M123.08,8.5c0-2.58,1.34-4.23,3.53-4.23s3.54,1.65,3.54,4.23-1.34,4.25-3.54,4.25S123.08,11.11,123.08,8.5Zm5.63,0c0-1.83-.7-2.92-2.1-2.92s-2.07,1.09-2.07,2.92.7,2.95,2.07,2.95S128.71,10.36,128.71,8.5Z"/><path class="cls-1" d="M138.23,7.21v5.32h-1.42V7.35c0-1-.39-1.77-1.51-1.77s-1.85.94-1.85,2.42v4.53H132v-8h1.34V5.6h.09a2.41,2.41,0,0,1,2.28-1.33C137.49,4.27,138.23,5.41,138.23,7.21Z"/><path class="cls-1" d="M9,29.84c0,1.77-1,3.09-3.4,3.09H1.71V21.58h4c2.14,0,3.2,1.26,3.2,3a2.63,2.63,0,0,1-1.53,2.6v.07A2.63,2.63,0,0,1,9,29.84ZM3.19,22.9v3.64h2.3a1.68,1.68,0,0,0,1.85-1.82A1.68,1.68,0,0,0,5.49,22.9Zm4.29,6.82c0-1.22-.73-1.89-2.06-1.89H3.19v3.78H5.42C6.75,31.61,7.48,30.93,7.48,29.72Z"/><path class="cls-1" d="M15.06,24.86v1.29a4.11,4.11,0,0,0-.56,0c-1.45,0-2.08.8-2.08,2.36v4.45H11v-8h1.34V26h.08a2.21,2.21,0,0,1,2.06-1.24A2,2,0,0,1,15.06,24.86Z"/><path class="cls-1" d="M16.56,21.58H18v1.77H16.56Zm0,3.31H18v8H16.56Z"/><path class="cls-1" d="M22.25,31.81a2.53,2.53,0,0,0,.63-.08v1.14a2.51,2.51,0,0,1-.92.18,1.55,1.55,0,0,1-1.7-1.71V21.58h1.43v9.57C21.69,31.57,21.89,31.81,22.25,31.81Z"/><path class="cls-1" d="M26.35,31.81a2.53,2.53,0,0,0,.63-.08v1.14a2.51,2.51,0,0,1-.92.18,1.54,1.54,0,0,1-1.7-1.71V21.58h1.43v9.57C25.79,31.57,26,31.81,26.35,31.81Z"/><path class="cls-1" d="M34.75,29.21H29.37c.09,1.87.84,2.7,2,2.7a1.74,1.74,0,0,0,1.77-1.1h1.48a3.16,3.16,0,0,1-3.25,2.34c-2.07,0-3.41-1.56-3.41-4.25s1.29-4.23,3.43-4.23,3.33,1.55,3.33,4.06C34.76,28.9,34.76,29.09,34.75,29.21Zm-5.33-1.14h4c-.14-1.46-.85-2.16-2-2.16S29.59,26.59,29.42,28.07Z"/><path class="cls-1" d="M39.86,30.21V24.89h1.41v5.19c0,1.05.41,1.77,1.52,1.77s1.87-.94,1.87-2.43V24.89h1.41v8H44.72v-1.1h-.08a2.41,2.41,0,0,1-2.26,1.32C40.59,33.15,39.86,32,39.86,30.21Z"/><path class="cls-1" d="M54.62,27.61v5.32H53.21V27.75c0-1.05-.39-1.77-1.52-1.77s-1.85.94-1.85,2.42v4.53H48.41v-8h1.35V26h.08a2.43,2.43,0,0,1,2.28-1.33C53.89,24.67,54.62,25.81,54.62,27.61Z"/><path class="cls-1" d="M63.46,21.58V32.93H62.12V31.68H62a2.61,2.61,0,0,1-2.43,1.47c-2,0-3.18-1.61-3.18-4.25s1.16-4.23,3.18-4.23A2.63,2.63,0,0,1,62,26h.1v-4.4ZM62.05,28.9c0-1.81-.7-2.92-2.09-2.92s-2.09,1.09-2.09,2.92.68,3,2.09,3S62.05,30.74,62.05,28.9Z"/><path class="cls-1" d="M71.79,27.73l-1,1.21v4H69.29V21.58h1.48v5h.1l4.18-5H77l-4.17,4.91L77,32.93H75.29l-3.4-5.2Z"/><path class="cls-1" d="M77.36,28.9c0-2.58,1.35-4.23,3.54-4.23s3.54,1.65,3.54,4.23-1.35,4.25-3.54,4.25S77.36,31.51,77.36,28.9Zm5.63,0c0-1.83-.7-2.92-2.09-2.92s-2.07,1.09-2.07,2.92.69,3,2.07,3S83,30.76,83,28.9Z"/><path class="cls-1" d="M92.51,27.61v5.32H91.1V27.75c0-1.05-.39-1.77-1.51-1.77s-1.86.94-1.86,2.42v4.53H86.31v-8h1.34V26h.08A2.43,2.43,0,0,1,90,24.67C91.78,24.67,92.51,25.81,92.51,27.61Z"/><path class="cls-1" d="M95.28,30.79V26.12H93.79V24.89h1.49V23.33l1.14-1.17h.29v2.73H99v1.23H96.71v4.52c0,.78.39,1.15,1,1.15a4,4,0,0,0,1-.17v1.14a3.05,3.05,0,0,1-1.4.28A2,2,0,0,1,95.28,30.79Z"/><path class="cls-1" d="M107,31.73v1.14a2.08,2.08,0,0,1-.83.17,1.24,1.24,0,0,1-1.34-1.18h-.07a2.72,2.72,0,0,1-2.34,1.23,2.17,2.17,0,0,1-2.4-2.35c0-1.84,1.56-2.77,4.16-2.77h.56v-.36c0-1-.4-1.75-1.58-1.75a1.38,1.38,0,0,0-1.53,1.21h-1.39a2.66,2.66,0,0,1,2.94-2.4,2.73,2.73,0,0,1,3,3v3.59c0,.34.17.52.46.52A1.11,1.11,0,0,0,107,31.73Zm-2.26-2.18v-.46h-.56c-1.8,0-2.78.48-2.78,1.57a1.22,1.22,0,0,0,1.3,1.3A2.18,2.18,0,0,0,104.73,29.55Z"/><path class="cls-1" d="M111.53,28.34l3.25,4.59h-1.72l-2.44-3.5h-.09L110,30v2.9h-1.42V21.58H110V28H110l3-3.15h1.85Z"/><path class="cls-1" d="M116.74,30.79V26.12h-1.5V24.89h1.5V23.33l1.14-1.17h.28v2.73h2.25v1.23h-2.25v4.52c0,.78.39,1.15,1,1.15a4,4,0,0,0,1-.17v1.14a3,3,0,0,1-1.39.28A2,2,0,0,1,116.74,30.79Z"/><path class="cls-1" d="M123.88,31.81a2.39,2.39,0,0,0,.62-.08v1.14a2.41,2.41,0,0,1-.91.18,1.54,1.54,0,0,1-1.7-1.71V21.58h1.42v9.57C123.31,31.57,123.52,31.81,123.88,31.81Z"/><path class="cls-1" d="M126,21.58h1.42v1.77H126Zm0,3.31h1.42v8H126Z"/><path class="cls-1" d="M136,27.61v5.32h-1.41V27.75c0-1.05-.4-1.77-1.52-1.77s-1.85.94-1.85,2.42v4.53h-1.43v-8h1.34V26h.09a2.42,2.42,0,0,1,2.28-1.33C135.27,24.67,136,25.81,136,27.61Z"/><path class="cls-1" d="M137.73,30.81h1.34A1.4,1.4,0,0,0,140.6,32c.84,0,1.43-.46,1.43-1.15s-.63-1.06-1.24-1.25l-1-.25a2.22,2.22,0,0,1-1.91-2.28,2.49,2.49,0,0,1,2.77-2.38,2.57,2.57,0,0,1,2.74,2.4l-1.36,0a1.31,1.31,0,0,0-1.38-1.19A1.22,1.22,0,0,0,139.28,27c0,.63.35.95,1.09,1.14l1,.25a2.33,2.33,0,0,1,2.08,2.33c0,1.45-1.16,2.41-2.83,2.41A2.6,2.6,0,0,1,137.73,30.81Z"/><path class="cls-1" d="M151.57,29.21H146.2c.08,1.87.83,2.7,2,2.7a1.73,1.73,0,0,0,1.76-1.1h1.48a3.15,3.15,0,0,1-3.24,2.34c-2.08,0-3.42-1.56-3.42-4.25s1.29-4.23,3.43-4.23,3.33,1.55,3.33,4.06C151.58,28.9,151.58,29.09,151.57,29.21Zm-5.32-1.14h4c-.14-1.46-.85-2.16-2-2.16S146.42,26.59,146.25,28.07Z"/><path class="cls-1" d="M159.64,27.61v5.32h-1.41V27.75c0-1.05-.39-1.77-1.51-1.77s-1.85.94-1.85,2.42v4.53h-1.43v-8h1.34V26h.09a2.41,2.41,0,0,1,2.27-1.33C158.91,24.67,159.64,25.81,159.64,27.61Z"/></g></svg>