<svg id="SVG" xmlns="http://www.w3.org/2000/svg" viewBox="0 0 79.71 16"><defs><style>.cls-1{fill:#10a8ba;}.cls-2{fill:#fff;}</style></defs><rect class="cls-1" width="79.71" height="16" rx="7.72"/><path class="cls-2" d="M17.37,10.81V5.87l-2,4.94H15L13,5.87v4.94h-.74v-6h1.07l1.86,4.52L17.05,4.8h1.07v6Z"/><path class="cls-2" d="M19.24,8.63a2.18,2.18,0,0,1,2.14-2.28,2.11,2.11,0,0,1,2.09,2.33v.18H20a1.53,1.53,0,0,0,1.57,1.5,1.91,1.91,0,0,0,1.34-.55l.32.44a2.36,2.36,0,0,1-1.73.67A2.16,2.16,0,0,1,19.24,8.63Zm2.13-1.72A1.45,1.45,0,0,0,20,8.36H22.8A1.4,1.4,0,0,0,21.37,6.91Z"/><path class="cls-2" d="M27.5,10.81V8c0-.77-.39-1-1-1a1.72,1.72,0,0,0-1.29.67v3.18h-.67v-6h.67V7.09a2.17,2.17,0,0,1,1.56-.74,1.23,1.23,0,0,1,1.39,1.39v3.07Z"/><path class="cls-2" d="M29.53,10.81V6.46h.67v.7a1.85,1.85,0,0,1,1.45-.79v.69l-.27,0a1.6,1.6,0,0,0-1.18.69v3.08Z"/><path class="cls-2" d="M34.57,8.63a2.18,2.18,0,0,1,2.14-2.28A2.12,2.12,0,0,1,38.8,8.68v.18H35.28a1.53,1.53,0,0,0,1.56,1.5,1.89,1.89,0,0,0,1.34-.55l.33.44a2.38,2.38,0,0,1-1.73.67A2.15,2.15,0,0,1,34.57,8.63ZM36.7,6.91a1.44,1.44,0,0,0-1.42,1.45h2.85A1.41,1.41,0,0,0,36.7,6.91Z"/><path class="cls-2" d="M39.89,10.81V6.46h.67v.7A1.85,1.85,0,0,1,42,6.37v.69l-.27,0a1.6,1.6,0,0,0-1.18.69v3.08Z"/><path class="cls-2" d="M43,10.81V7.05h-.72V6.46H43V6.13A1.25,1.25,0,0,1,44.3,4.71a1.23,1.23,0,0,1,.92.34l-.28.44a.76.76,0,0,0-.54-.22c-.44,0-.68.31-.68.86v.33h.88v.59h-.88v3.76Z"/><path class="cls-2" d="M48.12,10.81v-.5a1.86,1.86,0,0,1-1.44.61,1.45,1.45,0,0,1-1.52-1.44A1.42,1.42,0,0,1,46.68,8a1.81,1.81,0,0,1,1.44.6V7.86c0-.59-.47-.92-1.1-.92a1.74,1.74,0,0,0-1.33.6l-.32-.47a2.31,2.31,0,0,1,1.74-.72c.92,0,1.69.42,1.69,1.47v3Zm0-.92V9.07a1.46,1.46,0,0,0-1.2-.54,1,1,0,1,0,0,1.9A1.46,1.46,0,0,0,48.12,9.89Z"/><path class="cls-2" d="M53.09,10.81V8c0-.77-.4-1-1-1a1.72,1.72,0,0,0-1.29.67v3.18h-.68v-6h.68V7.09a2.17,2.17,0,0,1,1.56-.74,1.22,1.22,0,0,1,1.38,1.39v3.07Z"/><path class="cls-2" d="M55.11,10.81V6.46h.68v.7a1.83,1.83,0,0,1,1.45-.79v.69L57,7a1.58,1.58,0,0,0-1.18.69v3.08Z"/><path class="cls-2" d="M57.83,8.63A2.18,2.18,0,0,1,60,6.35a2.11,2.11,0,0,1,2.09,2.33v.18H58.54a1.54,1.54,0,0,0,1.57,1.5,1.91,1.91,0,0,0,1.34-.55l.32.44a2.35,2.35,0,0,1-1.72.67A2.16,2.16,0,0,1,57.83,8.63ZM60,6.91a1.45,1.45,0,0,0-1.42,1.45H61.4A1.42,1.42,0,0,0,60,6.91Z"/><path class="cls-2" d="M66.08,10.81V8c0-.76-.38-1-1-1a1.66,1.66,0,0,0-1.28.67v3.18h-.68V6.46h.68v.63a2.12,2.12,0,0,1,1.54-.74,1.24,1.24,0,0,1,1.39,1.41v3.05Z"/></svg>