<?xml version="1.0" encoding="utf-8"?>
<!-- Generator: Adobe Illustrator 26.2.1, SVG Export Plug-In . SVG Version: 6.00 Build 0)  -->
<svg version="1.1" id="SVG" xmlns="http://www.w3.org/2000/svg" xmlns:xlink="http://www.w3.org/1999/xlink" x="0px" y="0px"
	 viewBox="0 0 737 456" style="enable-background:new 0 0 737 456;" xml:space="preserve">
<style type="text/css">
	.st0{fill:#FFFFFF;}
</style>
<g>
	<path class="st0" d="M1,0.4v456.5h733.8V0.4H1z M418.3,252.3c-2.1,1.7-3.6,2.2-6,2.2c-2.3,0-7.7-0.1-10.1,0.2
		c-2.3,0.3-14.2,1.7-19.7,2.8c-5.5,1.1-9.1,2.5-15.1,2.5s-9.6-1.3-15.1-2.5c-5.5-1.1-17.4-2.5-19.7-2.8c-2.3-0.3-7.7-0.2-10.1-0.2
		c-2.3,0-3.9-0.4-6-2.2c-2.1-1.7-2.6-4.4-2.4-6.5c0.3-2.8,3.1-4.8,3.7-5.5c0.7-0.7,0.9-2.6,0.9-3s0-6.1,0-10.3s0-9.8,0-10.3
		s-0.2-2.3-0.9-3c-0.6-0.7-3.4-2.7-3.7-5.5c-0.3-2.1,0.3-4.8,2.4-6.5c2.1-1.7,3.6-2.2,6-2.2c2.3,0,7.7,0.1,10.1-0.2
		c2.3-0.3,14.2-1.7,19.7-2.8s9.1-2.5,15.1-2.5s9.6,1.3,15.1,2.5s17.4,2.5,19.7,2.8c2.3,0.3,7.7,0.2,10.1,0.2c2.3,0,3.9,0.5,6,2.2
		c2.1,1.7,2.6,4.4,2.4,6.5c-0.3,2.8-3.1,4.8-3.7,5.5c-0.7,0.7-0.9,2.6-0.9,3s0,6.1,0,10.3s0,9.8,0,10.3s0.2,2.3,0.9,3
		s3.4,2.7,3.7,5.5C420.9,247.9,420.3,250.5,418.3,252.3z"/>
</g>
</svg>
