<svg xmlns="http://www.w3.org/2000/svg" viewBox="0 0 195.82 39.42"><defs><style>.cls-1{fill:#fff;}</style></defs><g id="SVG"><path class="cls-1" d="M96.16,38.39A1.21,1.21,0,0,1,95,37.61L88.87,21.69H91L96.37,36,102,21.21c.3-.8.49-1,1.38-1h1l-7,18.17Z"/><path class="cls-1" d="M106.6,22.83a1.06,1.06,0,0,1-1-1.09,1.07,1.07,0,0,1,1.09-1,1.06,1.06,0,0,1,1,1.06,1.08,1.08,0,0,1-1.08,1.06"/><path class="cls-1" d="M115.36,38.62A7.66,7.66,0,0,1,110,36.38l1.17-1.32a5.83,5.83,0,0,0,3.94,1.77h.33c1.7,0,2.8-.71,2.8-1.75,0-1.27-1.1-1.85-2.37-2.25-.42-.13-2-.56-2.23-.63-2.55-.7-3.65-1.78-3.65-3.58,0-2.26,2.45-3.45,4.87-3.45A7.07,7.07,0,0,1,119.78,27l-1.23,1.24A5.63,5.63,0,0,0,115,26.89c-1.39,0-3,.48-3,1.71,0,1,1,1.39,2,1.69.23.07,2.22.64,2.63.78,2.17.7,3.7,1.59,3.7,3.86-.08,2.72-2.62,3.68-5,3.68"/><rect class="cls-1" x="105.66" y="25.5" width="1.9" height="12.9"/><path class="cls-1" d="M132.2,32.18c-2.67,0-2.91,1.56-2.91,2.24,0,1.13.93,2.28,2.81,2.31h.05a4.29,4.29,0,0,0,4.31-4.28v-.27ZM132,38.6a4.64,4.64,0,0,1-4.75-4.2c0-2.6,1.92-4,5.47-4l3.77,0V30.2a3,3,0,0,0-.75-2.23,3.77,3.77,0,0,0-2.78-1.07h-.1a5.26,5.26,0,0,0-3.44,1.35L128.2,27A6.7,6.7,0,0,1,133,25.11a4.85,4.85,0,0,1,5.38,4.26,4.42,4.42,0,0,1,0,.89v8.13h-1.85l-.06-2.08-.44.53A5.4,5.4,0,0,1,132,38.61"/><path class="cls-1" d="M150.89,38.39V30.63A3.6,3.6,0,0,0,147.38,27h-.31a4.08,4.08,0,0,0-4.24,3.91,1.31,1.31,0,0,0,0,.28V38a.4.4,0,0,1-.4.4h-1.5V25.5h1.9V27l.44-.42a5.73,5.73,0,0,1,4-1.53,5.64,5.64,0,0,1,3.81,1.39,5.38,5.38,0,0,1,1.72,4.13v7.81Z"/><path class="cls-1" d="M123.71,22.83a1.05,1.05,0,0,1-1-1.09,1.06,1.06,0,0,1,2.12,0,1.09,1.09,0,0,1-1.09,1.06"/><rect class="cls-1" x="122.78" y="25.5" width="1.9" height="12.9"/><rect class="cls-1" x="158.59" y="21.79" width="1.69" height="16.68"/><path class="cls-1" d="M171.21,38.9a8.49,8.49,0,0,1-8.57-8.4v-.19a8.49,8.49,0,0,1,2.73-6.53,8.9,8.9,0,0,1,6-2.21,8.07,8.07,0,0,1,6.32,2.83l-1.25,1.09a7.17,7.17,0,0,0-5.19-2.3,6.86,6.86,0,0,0-6.84,6.88c0,.08,0,.15,0,.23a6.65,6.65,0,0,0,6.53,6.76h.31a7.21,7.21,0,0,0,5.3-2.34L178,35.85a8.83,8.83,0,0,1-6.7,3Z"/><path class="cls-1" d="M181.06,38.47a.8.8,0,0,1-.79-.78V21.79H182v15H191v1.71Z"/><path class="cls-1" d="M68.49,11.71A12.06,12.06,0,1,0,80.35,24v-.2a12,12,0,0,0-11.86-12m0,27.45a15.4,15.4,0,1,1,15.2-15.59,1.28,1.28,0,0,1,0,.19,15.32,15.32,0,0,1-15.21,15.4"/><path class="cls-1" d="M39.26,38.59a1.6,1.6,0,0,1-1.43-.88L27.36,15a5,5,0,0,0-4.44-2.72H4.68v9.32H23.25a.65.65,0,0,1,.65.65V25H4.68v10.2H25.19V38.5H3.35a2,2,0,0,1-2-2V21.13l0-10.36A1.87,1.87,0,0,1,3.2,8.94H22.92a8.27,8.27,0,0,1,7.4,4.55l9.9,21.37L53.74,2.34A1.68,1.68,0,0,1,55.3,1.26h2.36L42.28,38.59Z"/><path class="cls-1" d="M190.62,22.5v2.42h-.32V22.5h-.73v-.31h1.89v.31ZM194.19,25V22.72L193.24,25h-.1l-.95-2.31V25h-.31V22.2h.52l.84,2,.74-2h.52v2.73h-.31Z"/></g></svg>