<?xml version="1.0" encoding="utf-8"?>
<!-- Generator: Adobe Illustrator 25.0.1, SVG Export Plug-In . SVG Version: 6.00 Build 0)  -->
<svg version="1.1" id="SVG" xmlns="http://www.w3.org/2000/svg" xmlns:xlink="http://www.w3.org/1999/xlink" x="0px" y="0px"
	 viewBox="0 0 737 456" style="enable-background:new 0 0 737 456;" xml:space="preserve">
<style type="text/css">
	.st0{fill:#FFFFFF;}
</style>
<path class="st0" d="M710.8,319.9c-4.5-5.1-6.1-17.6-6.1-20.7s-0.3-42.4-0.3-71.2s0.3-68.2,0.3-71.2s1.5-15.6,6.1-20.7
	s23.5-18.9,25.8-38c1.8-14.7-2.3-32.9-16.5-44.9S695.1,38.3,678.9,38s-53.4,0.8-69.6-1.5S510.8,25,472.8,17.1S409.5,0,368.5,0
	s-66.3,9.2-104.3,17.1S143.9,34.2,127.7,36.5S74.3,37.8,58.1,38S31,41.1,16.8,53.1S-1.4,83.3,0.4,98c2.3,19.2,21.3,33,25.8,38.1
	s6.1,17.6,6.1,20.7s0.3,42.4,0.3,71.2s-0.3,68.2-0.3,71.2s-1.5,15.6-6.1,20.7S2.7,338.8,0.4,358c-1.8,14.7,2.3,32.9,16.5,44.9
	s25.1,14.8,41.3,15.1s53.4-0.8,69.6,1.5s98.5,11.5,136.5,19.4S327.5,456,368.5,456s66.3-9.2,104.3-17.1s120.3-17.1,136.5-19.4
	s53.4-1.3,69.6-1.5s27.1-3.1,41.3-15.1s18.2-30.2,16.5-44.9C734.3,338.8,715.3,325,710.8,319.9z M50.7,100.6
	c-6.4,0-11.6-5.2-11.6-11.6c0-6.4,5.2-11.6,11.6-11.6c6.4,0,11.6,5.2,11.6,11.6c0,0,0,0,0,0C62.3,95.4,57.1,100.6,50.7,100.6z
	 M686.5,380.3c-6.4,0-11.6-5.2-11.6-11.6s5.2-11.6,11.6-11.6c6.4,0,11.6,5.2,11.6,11.6c0,0,0,0,0,0
	C698.1,375.1,692.9,380.3,686.5,380.3L686.5,380.3z"/>
</svg>
