<svg width="346" height="56" viewBox="0 0 346 56" fill="none" xmlns="http://www.w3.org/2000/svg">
<path d="M10.0928 0H46.9072C52.4871 0 57 4.51308 57 10.0933V45.4865C57 51.0667 52.4871 55.5798 46.9072 55.5798H10.0928C4.51287 55.5798 0 51.0667 0 45.4865V10.0933C0 4.51308 4.51287 0 10.0928 0Z" fill="#00005B"/>
<path d="M23.1201 33.3479H14.3167L12.516 38.9281C12.4715 39.1504 12.2714 39.2838 12.0713 39.2616H7.53625C7.26948 39.2616 7.20278 39.1282 7.26948 38.8392L14.9391 16.9185C15.0058 16.674 15.0725 16.4961 15.1837 16.1849C15.2726 15.6957 15.3171 15.1622 15.3171 14.6508C15.2948 14.5397 15.3838 14.4063 15.5171 14.3841H15.5838H21.6973C21.8974 14.3841 21.9863 14.4508 22.0086 14.5842L30.6564 38.817C30.7231 39.0837 30.6564 39.1949 30.4118 39.1949H25.4543C25.2987 39.2171 25.1209 39.106 25.0764 38.9281L23.1201 33.2812V33.3479ZM15.695 28.6125H21.7196C21.5862 28.1234 21.3861 27.5231 21.1638 26.9006C20.9415 26.2559 20.7414 25.5667 20.5191 24.8553C20.2745 24.1217 20.0745 23.4102 19.8299 22.6766C19.5854 21.9429 19.3853 21.2537 19.1852 20.5645C18.9852 19.8976 18.8295 19.2751 18.6517 18.7193H18.6072C18.3849 19.742 18.1404 20.7646 17.8069 21.7873C17.4512 22.9211 17.0955 24.1217 16.7176 25.2999C16.4064 26.5005 16.0507 27.6121 15.695 28.6125Z" fill="#9999FF"/>
<path d="M33.3463 38.9059V24.7886C33.3463 24.3662 33.3463 23.8549 33.3241 23.3435C33.3018 22.7877 33.3018 22.2986 33.2796 21.8318C33.2574 21.3649 33.2351 20.898 33.2129 20.6312C33.1907 20.5646 33.1907 20.4756 33.2574 20.3867C33.3241 20.3422 33.3908 20.32 33.5019 20.32H37.3256C37.459 20.32 37.5924 20.3422 37.7036 20.3867C37.7925 20.4312 37.8592 20.5201 37.9036 20.6535C37.9481 20.7869 38.0148 20.987 38.0592 21.187C38.1259 21.4538 38.1704 21.7206 38.1926 21.9652C38.9263 21.3204 39.7933 20.8313 40.7047 20.4979C41.6384 20.1866 42.5943 20.031 43.5725 20.031C44.3284 20.031 45.0842 20.1421 45.7956 20.3867C47.4851 20.9425 48.819 22.2319 49.397 23.8993C49.7749 24.8775 49.9305 26.1448 49.9305 27.701V38.9281C49.9305 39.1727 49.8416 39.2616 49.6193 39.2616L45.1509 39.3061C44.9508 39.3283 44.7952 39.2171 44.773 39.0171V38.9281V28.279C44.7507 27.5676 44.6174 26.8562 44.3284 26.2115C44.106 25.7446 43.7726 25.3 43.3502 25.0332C42.8611 24.7219 42.3053 24.5885 41.7273 24.6108C41.1049 24.6108 40.4824 24.6997 39.9266 24.9442C39.3931 25.1666 38.9262 25.4778 38.5039 25.8557V38.9726C38.5039 39.2171 38.4149 39.3061 38.1926 39.3061H33.6798C33.5241 39.3283 33.3685 39.2171 33.3463 39.0393C33.3241 38.9504 33.3241 38.9281 33.3463 38.9059Z" fill="#9999FF"/>
<text fill="black" xml:space="preserve" style="white-space: pre" font-family="Inter" font-size="21" letter-spacing="0em"><tspan x="73" y="21.1364">Interactive HTML5 web ads </tspan><tspan x="73" y="46.1364">made with Adobe Animate</tspan></text>
</svg>
