<svg xmlns="http://www.w3.org/2000/svg" viewBox="0 0 463 103"><defs><style>.cls-1{fill:#fff;opacity:0.77;}</style></defs><g id="SVG"><rect class="cls-1" width="463" height="103"/><path d="M123.71,29.48l2.39-.33c.05,1.57,1,2.35,2.71,2.35a2.82,2.82,0,0,0,1.67-.42,1.28,1.28,0,0,0,.58-1.09,1.12,1.12,0,0,0-.36-.87,2.6,2.6,0,0,0-.91-.53c-.36-.13-.87-.28-1.51-.44a17.68,17.68,0,0,1-2.22-.69,3.68,3.68,0,0,1-1.47-1.11,3.12,3.12,0,0,1-.62-2,3.51,3.51,0,0,1,.61-2,4.12,4.12,0,0,1,1.72-1.41,6.1,6.1,0,0,1,2.6-.52,5,5,0,0,1,3.34,1.07,4,4,0,0,1,1.37,3l-2.39.33a2.26,2.26,0,0,0-.71-1.63,2.38,2.38,0,0,0-1.63-.55,2.42,2.42,0,0,0-1.55.44,1.38,1.38,0,0,0-.56,1.13,1.18,1.18,0,0,0,.68,1.11,8.5,8.5,0,0,0,2.08.68,19.28,19.28,0,0,1,2.22.7,3.51,3.51,0,0,1,1.47,1.09,3.1,3.1,0,0,1,.62,2,3.48,3.48,0,0,1-.64,2.07,4,4,0,0,1-1.77,1.38,6.71,6.71,0,0,1-2.68.49,5.49,5.49,0,0,1-3.67-1.09A4.08,4.08,0,0,1,123.71,29.48Z"/><path d="M135.33,28.8v-.71a5.56,5.56,0,0,1,.56-2.59,4,4,0,0,1,1.59-1.71,4.7,4.7,0,0,1,2.4-.6,4.22,4.22,0,0,1,2.9,1A3.88,3.88,0,0,1,144,26.82l-2.2.35a2.12,2.12,0,0,0-.54-1.38,1.92,1.92,0,0,0-2.79.22,3.44,3.44,0,0,0-.55,2.14v.59a3.42,3.42,0,0,0,.56,2.14,1.81,1.81,0,0,0,1.48.7c1.16,0,1.78-.71,1.86-2.12l2.25.34a4.22,4.22,0,0,1-1.3,2.85,5,5,0,0,1-6.31-.21A5.12,5.12,0,0,1,135.33,28.8Z"/><path d="M154.84,27v6.45h-2.59v-6a2.31,2.31,0,0,0-.48-1.56,1.72,1.72,0,0,0-1.35-.55,1.75,1.75,0,0,0-1.36.55,2.18,2.18,0,0,0-.5,1.54v6H146V19.6h2.6v3.22c0,.45,0,1.12,0,2a3.16,3.16,0,0,1,1.24-1.22,3.58,3.58,0,0,1,1.78-.43,3.07,3.07,0,0,1,2.43,1A4.16,4.16,0,0,1,154.84,27Z"/><path d="M169.87,27.28c-.35,1.37-1,3.43-1.9,6.18h-3l-1.43-7.39-1.65,7.39H159c-.86-2.71-1.45-4.75-1.79-6.13a37.11,37.11,0,0,1-.74-3.92H159A70.48,70.48,0,0,0,160.52,31l1.72-7.54h2.81l1.55,7.46a73.05,73.05,0,0,0,1.56-7.46h2.47A29.58,29.58,0,0,1,169.87,27.28Z"/><path d="M181.31,31.31v2.15h-3.25V31.19A3.1,3.1,0,0,1,176.94,33a3.48,3.48,0,0,1-2.15.65,3.25,3.25,0,0,1-2.29-.79,2.8,2.8,0,0,1-.87-2.17,2.67,2.67,0,0,1,1.12-2.29,5.77,5.77,0,0,1,3.41-.83h1.51v-.25a2.34,2.34,0,0,0-.43-1.57,1.65,1.65,0,0,0-1.3-.49,1.88,1.88,0,0,0-1.33.43,1.82,1.82,0,0,0-.49,1.27l-2.37-.35A3.21,3.21,0,0,1,173,24.13a4.68,4.68,0,0,1,3.06-.94,4.34,4.34,0,0,1,3.16,1,4.27,4.27,0,0,1,1.06,3.2v3.89Zm-8.62-10.77a1.22,1.22,0,0,1,.41-1,1.51,1.51,0,0,1,1-.36,1.45,1.45,0,0,1,1,.36,1.21,1.21,0,0,1,.4,1,1.23,1.23,0,0,1-.4,1,1.49,1.49,0,0,1-1,.34,1.53,1.53,0,0,1-1-.34A1.23,1.23,0,0,1,172.69,20.54Zm5,8.84v-.07h-1.53c-1.24,0-1.86.4-1.86,1.19a1,1,0,0,0,.4.83,1.66,1.66,0,0,0,1,.31,1.8,1.8,0,0,0,1.38-.6A2.36,2.36,0,0,0,177.67,29.38Zm-.75-8.84a1.19,1.19,0,0,1,.41-1,1.48,1.48,0,0,1,1-.36,1.53,1.53,0,0,1,1,.36,1.21,1.21,0,0,1,.4,1,1.23,1.23,0,0,1-.4,1,1.57,1.57,0,0,1-1,.34,1.48,1.48,0,0,1-1-.36A1.18,1.18,0,0,1,176.92,20.54Z"/><path d="M191.71,25.45a6.39,6.39,0,0,1,.48,2.6v.73a5.51,5.51,0,0,1-1.08,3.59,3.59,3.59,0,0,1-2.9,1.31,2.9,2.9,0,0,1-2.7-1.43v1.21H183V19.6h2.59v5a3.07,3.07,0,0,1,2.82-1.45,3.42,3.42,0,0,1,2,.58A3.85,3.85,0,0,1,191.71,25.45ZM189,26a1.81,1.81,0,0,0-1.52-.71A1.79,1.79,0,0,0,186,26a3.48,3.48,0,0,0-.54,2.13v.61a3.49,3.49,0,0,0,.54,2.14,1.8,1.8,0,0,0,1.52.7,1.78,1.78,0,0,0,1.5-.7,3.49,3.49,0,0,0,.54-2.14v-.61A3.48,3.48,0,0,0,189,26Z"/><path d="M194,20.54a1.37,1.37,0,0,1,.43-1.05,1.66,1.66,0,0,1,1.13-.38,1.62,1.62,0,0,1,1.1.38,1.5,1.5,0,0,1,0,2.1,1.61,1.61,0,0,1-1.1.37,1.65,1.65,0,0,1-1.13-.37A1.37,1.37,0,0,1,194,20.54Zm.25,12.92v-10h2.59V33.46Z"/><path d="M198.72,30.44l2.23-.31a1.63,1.63,0,0,0,.51,1.22,2.25,2.25,0,0,0,1.49.41,2.47,2.47,0,0,0,1.3-.27.89.89,0,0,0,.43-.79.77.77,0,0,0-.49-.77,8.19,8.19,0,0,0-1.61-.47,14.1,14.1,0,0,1-1.85-.49,3,3,0,0,1-1.25-.9,2.62,2.62,0,0,1-.53-1.76A2.73,2.73,0,0,1,200,24a4.65,4.65,0,0,1,3-.85,4.39,4.39,0,0,1,2.82.84,3,3,0,0,1,1.1,2.32l-2.21.33a1.54,1.54,0,0,0-1.77-1.57,2,2,0,0,0-1.17.29.92.92,0,0,0-.4.77.81.81,0,0,0,.51.79,9.61,9.61,0,0,0,1.61.48,13.16,13.16,0,0,1,1.86.51,2.93,2.93,0,0,1,1.23.88,2.61,2.61,0,0,1,.52,1.73,2.75,2.75,0,0,1-1.1,2.28,5,5,0,0,1-3.06.84,4.87,4.87,0,0,1-3.06-.83A3.14,3.14,0,0,1,198.72,30.44Z"/><path d="M208.48,28.8v-.71A5.68,5.68,0,0,1,209,25.5a4.11,4.11,0,0,1,1.59-1.71,4.7,4.7,0,0,1,2.4-.6,4.21,4.21,0,0,1,2.9,1,3.89,3.89,0,0,1,1.27,2.65l-2.21.35a2.12,2.12,0,0,0-.54-1.38,1.91,1.91,0,0,0-2.78.22,3.44,3.44,0,0,0-.55,2.14v.59a3.36,3.36,0,0,0,.56,2.14,1.78,1.78,0,0,0,1.48.7c1.15,0,1.77-.71,1.85-2.12l2.25.34a4.17,4.17,0,0,1-1.3,2.85,5,5,0,0,1-6.3-.21A5.08,5.08,0,0,1,208.48,28.8Z"/><path d="M228,27v6.45h-2.59v-6a2.31,2.31,0,0,0-.48-1.56,1.74,1.74,0,0,0-1.36-.55,1.77,1.77,0,0,0-1.36.55,2.23,2.23,0,0,0-.5,1.54v6h-2.59V19.6h2.59v3.22c0,.45,0,1.12,0,2a3.18,3.18,0,0,1,1.25-1.22,3.52,3.52,0,0,1,1.77-.43,3,3,0,0,1,2.43,1A4.11,4.11,0,0,1,228,27Z"/><path d="M243.41,33.46V28.07h-5.75v5.39H234.9V20.6h2.76v5.22h5.75V20.6h2.76V33.46Z"/><path d="M257.93,31.31v2.15h-3.25V31.19A3,3,0,0,1,253.56,33a3.47,3.47,0,0,1-2.14.65,3.26,3.26,0,0,1-2.3-.79,2.8,2.8,0,0,1-.87-2.17,2.68,2.68,0,0,1,1.13-2.29,5.73,5.73,0,0,1,3.41-.83h1.51v-.25a2.39,2.39,0,0,0-.43-1.57,1.67,1.67,0,0,0-1.31-.49,1.9,1.9,0,0,0-1.33.43,1.82,1.82,0,0,0-.49,1.27l-2.36-.35a3.2,3.2,0,0,1,1.22-2.51,4.72,4.72,0,0,1,3.06-.94,4.38,4.38,0,0,1,3.17,1,4.27,4.27,0,0,1,1.06,3.2v3.89Zm-3.63-1.93v-.07h-1.54c-1.23,0-1.85.4-1.85,1.19a1,1,0,0,0,.39.83,1.67,1.67,0,0,0,1.06.31,1.8,1.8,0,0,0,1.37-.6A2.32,2.32,0,0,0,254.3,29.38Z"/><path d="M259.6,33.46V19.6h2.6V33.46Z"/><path d="M264.81,33.46V19.6h2.59V33.46Z"/><path d="M282.92,23.41V33.46h-2.53V32a3.06,3.06,0,0,1-1.23,1.24,3.54,3.54,0,0,1-1.77.43,3.1,3.1,0,0,1-2.44-1,4.09,4.09,0,0,1-.89-2.82V23.41h2.61v6a2.33,2.33,0,0,0,.47,1.56,1.68,1.68,0,0,0,1.33.54,1.78,1.78,0,0,0,1.36-.54,2.17,2.17,0,0,0,.5-1.52V23.41Z"/><path d="M294.41,27v6.45h-2.59v-6a2.31,2.31,0,0,0-.48-1.56,1.73,1.73,0,0,0-1.36-.55,1.75,1.75,0,0,0-1.35.55,2.18,2.18,0,0,0-.5,1.54v6h-2.6v-10h2.53v1.45a3.08,3.08,0,0,1,1.24-1.24,3.67,3.67,0,0,1,1.81-.43,3.07,3.07,0,0,1,2.43,1A4.16,4.16,0,0,1,294.41,27Z"/><path d="M305.54,19.6V33.46H303V32.23a3.07,3.07,0,0,1-2.82,1.45,3.37,3.37,0,0,1-2.75-1.28,5.47,5.47,0,0,1-1.05-3.56v-.75a6.43,6.43,0,0,1,.49-2.59,3.89,3.89,0,0,1,1.39-1.71,3.65,3.65,0,0,1,2.08-.6A2.93,2.93,0,0,1,303,24.54V19.6Zm-2.47,9.14v-.61a3.48,3.48,0,0,0-.54-2.13,1.81,1.81,0,0,0-1.52-.71,1.79,1.79,0,0,0-1.5.71,3.48,3.48,0,0,0-.54,2.13v.61a3.51,3.51,0,0,0,.54,2.15,1.82,1.82,0,0,0,1.52.69,1.78,1.78,0,0,0,1.5-.7A3.49,3.49,0,0,0,303.07,28.74Z"/><path d="M321,19.6V33.46h-2.6V32.23a3.06,3.06,0,0,1-2.81,1.45,3.38,3.38,0,0,1-2.76-1.28,5.53,5.53,0,0,1-1-3.56v-.75a6.27,6.27,0,0,1,.49-2.59,3.89,3.89,0,0,1,1.39-1.71,3.65,3.65,0,0,1,2.08-.6,2.91,2.91,0,0,1,2.65,1.35V19.6Zm-2.47,9.14v-.61A3.48,3.48,0,0,0,318,26a1.83,1.83,0,0,0-1.53-.71,1.79,1.79,0,0,0-1.5.71,3.48,3.48,0,0,0-.54,2.13v.61a3.51,3.51,0,0,0,.54,2.15,2,2,0,0,0,3,0A3.49,3.49,0,0,0,318.49,28.74Z"/><path d="M325.61,29.15a2.77,2.77,0,0,0,.61,1.81,2.12,2.12,0,0,0,1.62.62,1.83,1.83,0,0,0,2-1.53l2.37.49a3.93,3.93,0,0,1-1.46,2.29,5.58,5.58,0,0,1-6.47-.39A4.83,4.83,0,0,1,323,28.87v-.74a5.51,5.51,0,0,1,.58-2.6,4.25,4.25,0,0,1,1.63-1.73,4.73,4.73,0,0,1,2.42-.61A4.33,4.33,0,0,1,331,24.48a5.09,5.09,0,0,1,1.22,3.65v1Zm0-1.71h4a2.5,2.5,0,0,0-.61-1.59,2,2,0,0,0-2.77,0A2.56,2.56,0,0,0,325.63,27.44Z"/><path d="M340.11,25.86h-.76a2.73,2.73,0,0,0-2,.63,2.64,2.64,0,0,0-.65,2v5h-2.59v-10h2.53v2.13A3.22,3.22,0,0,1,337.73,24a2.63,2.63,0,0,1,1.64-.56h.74Z"/><path d="M133.93,54.14v.14A3.26,3.26,0,0,1,132.68,57a5.2,5.2,0,0,1-3.33,1H124V45.1h5.3a5.06,5.06,0,0,1,3.22.91,2.94,2.94,0,0,1,1.15,2.45v.13a2.65,2.65,0,0,1-.51,1.6,3.24,3.24,0,0,1-1.51,1.09,3.25,3.25,0,0,1,1.68,1A2.86,2.86,0,0,1,133.93,54.14Zm-7.23-3.65H129a2.43,2.43,0,0,0,1.52-.43,1.49,1.49,0,0,0,.54-1.23v-.06a1.48,1.48,0,0,0-.53-1.22,2.38,2.38,0,0,0-1.53-.43H126.7Zm4,2.31a2.5,2.5,0,0,0-1.6-.46H126.7v3.6h2.37a2.45,2.45,0,0,0,1.59-.46,1.58,1.58,0,0,0,.57-1.3V54.1A1.57,1.57,0,0,0,130.67,52.8Z"/><path d="M145.14,55.82V58h-3.25V55.69a3.1,3.1,0,0,1-1.12,1.84,3.42,3.42,0,0,1-2.15.65,3.25,3.25,0,0,1-2.29-.79,2.8,2.8,0,0,1-.87-2.17,2.67,2.67,0,0,1,1.12-2.29A5.77,5.77,0,0,1,140,52.1h1.51v-.25a2.34,2.34,0,0,0-.43-1.57,1.65,1.65,0,0,0-1.3-.49,1.88,1.88,0,0,0-1.33.43,1.82,1.82,0,0,0-.49,1.27l-2.37-.35a3.21,3.21,0,0,1,1.23-2.51,4.68,4.68,0,0,1,3.06-.94,4.34,4.34,0,0,1,3.16,1,4.28,4.28,0,0,1,1.07,3.2v3.9Zm-3.64-1.94v-.07H140c-1.24,0-1.86.4-1.86,1.19a1,1,0,0,0,.4.84,1.72,1.72,0,0,0,1.05.3,1.8,1.8,0,0,0,1.38-.6A2.32,2.32,0,0,0,141.5,53.88Z"/><path d="M155.55,47.91V58H153V56.51a3.06,3.06,0,0,1-1.23,1.24,3.54,3.54,0,0,1-1.77.43,3.1,3.1,0,0,1-2.44-1,4.09,4.09,0,0,1-.89-2.82V47.91h2.61v6a2.33,2.33,0,0,0,.47,1.56,1.67,1.67,0,0,0,1.33.54,1.78,1.78,0,0,0,1.36-.54A2.17,2.17,0,0,0,153,54V47.91Z"/><path d="M157.47,54.94l2.22-.31a1.67,1.67,0,0,0,.52,1.22,2.23,2.23,0,0,0,1.49.41A2.47,2.47,0,0,0,163,56a.89.89,0,0,0,.43-.79.78.78,0,0,0-.49-.77,8.41,8.41,0,0,0-1.61-.47,13.68,13.68,0,0,1-1.85-.49,3.06,3.06,0,0,1-1.26-.9,2.68,2.68,0,0,1-.53-1.76,2.71,2.71,0,0,1,1.09-2.27,4.63,4.63,0,0,1,3-.85,4.34,4.34,0,0,1,2.81.84,3,3,0,0,1,1.11,2.32l-2.21.33a1.54,1.54,0,0,0-1.78-1.57,2,2,0,0,0-1.16.29.93.93,0,0,0-.41.77.81.81,0,0,0,.51.79,9.79,9.79,0,0,0,1.62.48,12.61,12.61,0,0,1,1.85.51,2.89,2.89,0,0,1,1.24.88,2.61,2.61,0,0,1,.52,1.73,2.75,2.75,0,0,1-1.1,2.28,5,5,0,0,1-3.07.84,4.91,4.91,0,0,1-3.06-.83A3.08,3.08,0,0,1,157.47,54.94Z"/><path d="M176.53,50a6.39,6.39,0,0,1,.48,2.6v.73a6.57,6.57,0,0,1-.49,2.61,3.81,3.81,0,0,1-1.39,1.7,3.65,3.65,0,0,1-2.08.59,2.94,2.94,0,0,1-2.66-1.34V62H167.8V47.91h2.59v1.25a3.09,3.09,0,0,1,2.82-1.47,3.42,3.42,0,0,1,2,.58A3.85,3.85,0,0,1,176.53,50Zm-2.7.55a1.81,1.81,0,0,0-1.52-.71,1.79,1.79,0,0,0-1.5.71,3.48,3.48,0,0,0-.54,2.13v.61a3.51,3.51,0,0,0,.54,2.15,1.82,1.82,0,0,0,1.52.69,1.78,1.78,0,0,0,1.5-.7,3.49,3.49,0,0,0,.54-2.14v-.61A3.48,3.48,0,0,0,173.83,50.5Z"/><path d="M188.13,55.82V58h-3.24V55.69a3.1,3.1,0,0,1-1.12,1.84,3.44,3.44,0,0,1-2.15.65,3.24,3.24,0,0,1-2.29-.79,2.8,2.8,0,0,1-.87-2.17,2.67,2.67,0,0,1,1.12-2.29A5.77,5.77,0,0,1,183,52.1h1.51v-.25a2.34,2.34,0,0,0-.43-1.57,1.65,1.65,0,0,0-1.3-.49,1.88,1.88,0,0,0-1.33.43,1.82,1.82,0,0,0-.49,1.27l-2.37-.35a3.21,3.21,0,0,1,1.23-2.51,4.68,4.68,0,0,1,3.06-.94,4.36,4.36,0,0,1,3.16,1,4.27,4.27,0,0,1,1.06,3.2v3.9Zm-3.63-1.94v-.07H183c-1.24,0-1.86.4-1.86,1.19a1,1,0,0,0,.4.84,1.72,1.72,0,0,0,1.05.3,1.8,1.8,0,0,0,1.38-.6A2.36,2.36,0,0,0,184.5,53.88Z"/><path d="M195.77,50.36H195a2.7,2.7,0,0,0-2,.63,2.62,2.62,0,0,0-.66,2v5h-2.59V47.91h2.53V50a3.14,3.14,0,0,1,1-1.56,2.6,2.6,0,0,1,1.65-.57h.73Z"/><path d="M198,50.12h-1.41v-2H198v-.65c0-2.24,1.17-3.35,3.51-3.35h.94l.34,2.18h-1a1.18,1.18,0,0,0-.92.31,1.32,1.32,0,0,0-.29.94v.57h2.27v2h-2.27V58H198Z"/><path d="M213.25,47.91V58h-2.54V56.51a3,3,0,0,1-1.22,1.24,3.58,3.58,0,0,1-1.78.43,3.13,3.13,0,0,1-2.44-1,4.09,4.09,0,0,1-.88-2.82V47.91H207v6a2.33,2.33,0,0,0,.47,1.56,1.65,1.65,0,0,0,1.33.54,1.74,1.74,0,0,0,1.35-.54,2.13,2.13,0,0,0,.5-1.52V47.91Z"/><path d="M215.29,53.3v-.71a5.68,5.68,0,0,1,.56-2.59,4,4,0,0,1,1.59-1.71,4.7,4.7,0,0,1,2.4-.6,4.21,4.21,0,0,1,2.9,1A3.89,3.89,0,0,1,224,51.32l-2.21.35a2.16,2.16,0,0,0-.54-1.38,1.92,1.92,0,0,0-2.79.22,3.51,3.51,0,0,0-.55,2.14v.59a3.42,3.42,0,0,0,.56,2.14,1.81,1.81,0,0,0,1.48.7c1.16,0,1.78-.71,1.86-2.12l2.25.34a4.17,4.17,0,0,1-1.3,2.85,5,5,0,0,1-6.31-.21A5.12,5.12,0,0,1,215.29,53.3Z"/><path d="M234.81,51.51V58h-2.6v-6a2.31,2.31,0,0,0-.48-1.56,1.72,1.72,0,0,0-1.35-.55,1.75,1.75,0,0,0-1.36.55,2.23,2.23,0,0,0-.5,1.54v6h-2.59V44.1h2.59v3.22c0,.45,0,1.13,0,2a3.23,3.23,0,0,1,1.24-1.22,3.58,3.58,0,0,1,1.78-.43,3.07,3.07,0,0,1,2.43,1A4.18,4.18,0,0,1,234.81,51.51Z"/><path d="M236.6,54.94l2.23-.31a1.7,1.7,0,0,0,.51,1.22,2.25,2.25,0,0,0,1.49.41,2.51,2.51,0,0,0,1.31-.27.91.91,0,0,0,.43-.79.8.8,0,0,0-.49-.77,8.56,8.56,0,0,0-1.62-.47,14.1,14.1,0,0,1-1.85-.49,3,3,0,0,1-1.25-.9,2.62,2.62,0,0,1-.53-1.76,2.73,2.73,0,0,1,1.08-2.27,4.65,4.65,0,0,1,3-.85,4.39,4.39,0,0,1,2.82.84,3,3,0,0,1,1.1,2.32l-2.2.33a1.54,1.54,0,0,0-1.78-1.57,2,2,0,0,0-1.16.29.9.9,0,0,0-.41.77.81.81,0,0,0,.51.79,9.92,9.92,0,0,0,1.61.48,13.16,13.16,0,0,1,1.86.51,2.81,2.81,0,0,1,1.23.88,2.61,2.61,0,0,1,.52,1.73,2.72,2.72,0,0,1-1.1,2.28,6,6,0,0,1-6.12,0A3.12,3.12,0,0,1,236.6,54.94Z"/><path d="M263.63,51.78q-.53,2.05-1.89,6.18h-3l-1.43-7.39L255.69,58h-2.94c-.85-2.71-1.45-4.75-1.78-6.13a34.84,34.84,0,0,1-.75-3.92h2.57a70.48,70.48,0,0,0,1.49,7.54L256,47.91h2.82l1.55,7.46a72.46,72.46,0,0,0,1.55-7.46h2.47A29.26,29.26,0,0,1,263.63,51.78Z"/><path d="M274.82,47.91V58h-2.53V56.51a3.1,3.1,0,0,1-1.22,1.24,3.58,3.58,0,0,1-1.78.43,3.11,3.11,0,0,1-2.44-1,4.09,4.09,0,0,1-.89-2.82V47.91h2.62v6a2.27,2.27,0,0,0,.47,1.56,1.65,1.65,0,0,0,1.32.54,1.75,1.75,0,0,0,1.36-.54,2.17,2.17,0,0,0,.5-1.52V47.91ZM266.88,45a1.22,1.22,0,0,1,.41-1,1.51,1.51,0,0,1,1-.36,1.44,1.44,0,0,1,1,.36,1.21,1.21,0,0,1,.4,1,1.23,1.23,0,0,1-.4,1,1.47,1.47,0,0,1-1,.34,1.56,1.56,0,0,1-1.05-.34A1.23,1.23,0,0,1,266.88,45Zm4.23,0a1.19,1.19,0,0,1,.41-1,1.48,1.48,0,0,1,1-.36,1.51,1.51,0,0,1,1,.36,1.22,1.22,0,0,1,.41,1,1.24,1.24,0,0,1-.41,1,1.55,1.55,0,0,1-1,.34,1.52,1.52,0,0,1-1-.35A1.21,1.21,0,0,1,271.11,45Z"/><path d="M286.32,51.51V58h-2.59v-6a2.31,2.31,0,0,0-.48-1.56,1.74,1.74,0,0,0-1.36-.55,1.77,1.77,0,0,0-1.36.55,2.23,2.23,0,0,0-.5,1.54v6h-2.59V47.91H280v1.45a3.06,3.06,0,0,1,1.23-1.24,3.7,3.7,0,0,1,1.81-.43,3,3,0,0,1,2.43,1A4.13,4.13,0,0,1,286.32,51.51Z"/><path d="M288.12,54.94l2.22-.31a1.7,1.7,0,0,0,.51,1.22,2.25,2.25,0,0,0,1.49.41,2.51,2.51,0,0,0,1.31-.27.91.91,0,0,0,.43-.79.8.8,0,0,0-.49-.77A8.56,8.56,0,0,0,292,54a13.9,13.9,0,0,1-1.84-.49,2.94,2.94,0,0,1-1.26-.9,2.68,2.68,0,0,1-.53-1.76,2.73,2.73,0,0,1,1.08-2.27,4.65,4.65,0,0,1,3-.85,4.35,4.35,0,0,1,2.82.84,3,3,0,0,1,1.1,2.32l-2.2.33a1.54,1.54,0,0,0-1.78-1.57,2,2,0,0,0-1.16.29.9.9,0,0,0-.41.77.81.81,0,0,0,.51.79,9.92,9.92,0,0,0,1.61.48,13.16,13.16,0,0,1,1.86.51,2.89,2.89,0,0,1,1.24.88,2.66,2.66,0,0,1,.52,1.73,2.73,2.73,0,0,1-1.11,2.28,6,6,0,0,1-6.12,0A3.08,3.08,0,0,1,288.12,54.94Z"/><path d="M297.88,53.3v-.71a5.56,5.56,0,0,1,.56-2.59A4,4,0,0,1,300,48.29a4.7,4.7,0,0,1,2.4-.6,4.24,4.24,0,0,1,2.9,1,3.93,3.93,0,0,1,1.26,2.65l-2.2.35a2.16,2.16,0,0,0-.54-1.38,1.92,1.92,0,0,0-2.79.22,3.44,3.44,0,0,0-.55,2.14v.59a3.42,3.42,0,0,0,.56,2.14,1.79,1.79,0,0,0,1.48.7c1.16,0,1.78-.71,1.86-2.12l2.24.34a4.21,4.21,0,0,1-1.29,2.85,4.33,4.33,0,0,1-3,1,4.27,4.27,0,0,1-3.28-1.24A5.12,5.12,0,0,1,297.88,53.3Z"/><path d="M317.39,51.51V58H314.8v-6a2.31,2.31,0,0,0-.48-1.56,1.73,1.73,0,0,0-1.36-.55,1.78,1.78,0,0,0-1.36.55,2.23,2.23,0,0,0-.5,1.54v6h-2.59V44.1h2.59v3.22c0,.45,0,1.13,0,2a3.25,3.25,0,0,1,1.25-1.22,3.57,3.57,0,0,1,1.77-.43,3,3,0,0,1,2.43,1A4.13,4.13,0,0,1,317.39,51.51Z"/><path d="M321.93,53.65a2.71,2.71,0,0,0,.61,1.81,2.09,2.09,0,0,0,1.61.62,1.82,1.82,0,0,0,2-1.53l2.37.49A3.93,3.93,0,0,1,327,57.33a5.57,5.57,0,0,1-6.46-.39,4.83,4.83,0,0,1-1.25-3.57v-.74a5.63,5.63,0,0,1,.58-2.6,4.28,4.28,0,0,1,1.64-1.73,4.7,4.7,0,0,1,2.42-.61A4.32,4.32,0,0,1,327.26,49a5.09,5.09,0,0,1,1.22,3.65v1Zm0-1.71h4a2.56,2.56,0,0,0-.62-1.59,1.82,1.82,0,0,0-1.38-.56,1.84,1.84,0,0,0-1.39.56A2.5,2.5,0,0,0,322,51.94Z"/><path d="M339.34,51.51V58h-2.59v-6a2.31,2.31,0,0,0-.48-1.56,1.73,1.73,0,0,0-1.36-.55,1.78,1.78,0,0,0-1.36.55,2.23,2.23,0,0,0-.5,1.54v6h-2.59V47.91H333v1.45a3,3,0,0,1,1.24-1.24,3.63,3.63,0,0,1,1.8-.43,3,3,0,0,1,2.43,1A4.13,4.13,0,0,1,339.34,51.51Z"/><path d="M148.27,82.46V69.6H151V82.46Z"/><path d="M162.6,76v6.45H160v-6a2.31,2.31,0,0,0-.48-1.56,1.73,1.73,0,0,0-1.36-.55,1.75,1.75,0,0,0-1.35.55,2.18,2.18,0,0,0-.5,1.54v6h-2.6V68.6h2.6v3.22c0,.45,0,1.13,0,2a3.25,3.25,0,0,1,1.25-1.22,3.58,3.58,0,0,1,1.78-.43,3.07,3.07,0,0,1,2.43,1A4.17,4.17,0,0,1,162.6,76Z"/><path d="M174,76v6.45h-2.6v-6a2.31,2.31,0,0,0-.48-1.56,1.72,1.72,0,0,0-1.35-.55,1.75,1.75,0,0,0-1.36.55,2.18,2.18,0,0,0-.5,1.54v6h-2.6v-10h2.54v1.45a3.06,3.06,0,0,1,1.23-1.24,3.7,3.7,0,0,1,1.81-.43,3.07,3.07,0,0,1,2.43,1A4.18,4.18,0,0,1,174,76Z"/><path d="M178.51,78.15a2.77,2.77,0,0,0,.61,1.81,2.09,2.09,0,0,0,1.61.62,1.81,1.81,0,0,0,2-1.53l2.37.49a3.88,3.88,0,0,1-1.46,2.29,5.57,5.57,0,0,1-6.46-.39,4.83,4.83,0,0,1-1.24-3.57v-.74a5.51,5.51,0,0,1,.58-2.6,4.25,4.25,0,0,1,1.63-1.73,4.7,4.7,0,0,1,2.42-.61,4.35,4.35,0,0,1,3.32,1.29,5.09,5.09,0,0,1,1.21,3.65v1Zm0-1.71h4a2.55,2.55,0,0,0-.61-1.59,2,2,0,0,0-2.78,0A2.55,2.55,0,0,0,178.53,76.44Z"/><path d="M195.92,76v6.45h-2.59v-6a2.31,2.31,0,0,0-.48-1.56,1.73,1.73,0,0,0-1.36-.55,1.75,1.75,0,0,0-1.35.55,2.18,2.18,0,0,0-.5,1.54v6H187v-10h2.53v1.45a3.08,3.08,0,0,1,1.24-1.24,3.67,3.67,0,0,1,1.81-.43,3.07,3.07,0,0,1,2.43,1A4.17,4.17,0,0,1,195.92,76Z"/><path d="M202.83,82.46V69.6h8.22v2.16h-5.47v3.47h5.17v2.15h-5.17v5.08Z"/><path d="M218.75,74.87H218a2.7,2.7,0,0,0-2,.62,2.62,2.62,0,0,0-.66,2v5h-2.59v-10h2.53v2.13A3.14,3.14,0,0,1,216.37,73a2.6,2.6,0,0,1,1.65-.57h.73Z"/><path d="M219.59,77.85v-.76a5.28,5.28,0,0,1,.6-2.57,4.28,4.28,0,0,1,1.68-1.72,4.94,4.94,0,0,1,2.47-.61,4.54,4.54,0,0,1,3.4,1.27A4.86,4.86,0,0,1,229,77.05v.73a5.46,5.46,0,0,1-.59,2.58,4.25,4.25,0,0,1-1.68,1.71,4.94,4.94,0,0,1-2.49.61,4.61,4.61,0,0,1-3.39-1.26A4.86,4.86,0,0,1,219.59,77.85Zm6.76-.11v-.59a3.45,3.45,0,0,0-.56-2.15,2,2,0,0,0-3,0,3.52,3.52,0,0,0-.55,2.15v.59a3.5,3.5,0,0,0,.55,2.15,1.83,1.83,0,0,0,1.51.69,1.8,1.8,0,0,0,1.51-.7A3.42,3.42,0,0,0,226.35,77.74Z"/><path d="M239.9,76v6.45h-2.59v-6a2.31,2.31,0,0,0-.48-1.56,1.73,1.73,0,0,0-1.36-.55,1.78,1.78,0,0,0-1.36.55,2.23,2.23,0,0,0-.5,1.54v6H231V68.6h2.59v3.22c0,.45,0,1.13,0,2a3.25,3.25,0,0,1,1.25-1.22,3.54,3.54,0,0,1,1.77-.43,3,3,0,0,1,2.43,1A4.13,4.13,0,0,1,239.9,76Z"/><path d="M244.43,78.15a2.77,2.77,0,0,0,.62,1.81,2.09,2.09,0,0,0,1.61.62,1.82,1.82,0,0,0,2-1.53l2.37.49a3.93,3.93,0,0,1-1.46,2.29,5.57,5.57,0,0,1-6.46-.39,4.83,4.83,0,0,1-1.25-3.57v-.74a5.51,5.51,0,0,1,.58-2.6A4.21,4.21,0,0,1,244,72.8a4.68,4.68,0,0,1,2.42-.61,4.32,4.32,0,0,1,3.31,1.29A5.09,5.09,0,0,1,251,77.13v1Zm0-1.71h4a2.56,2.56,0,0,0-.62-1.59,2,2,0,0,0-2.77,0A2.5,2.5,0,0,0,244.46,76.44Z"/><path d="M257.47,79.8a7,7,0,0,1-.76-3.38v-.74a6.89,6.89,0,0,1,.78-3.36,5.43,5.43,0,0,1,2.2-2.18,6.66,6.66,0,0,1,3.24-.77,6.85,6.85,0,0,1,3.24.74,5.15,5.15,0,0,1,2.16,2.15,7.08,7.08,0,0,1,.77,3.4v.72a6.83,6.83,0,0,1-.78,3.35,5.35,5.35,0,0,1-2.18,2.19,6.75,6.75,0,0,1-3.27.76,6.91,6.91,0,0,1-3.24-.73A5.15,5.15,0,0,1,257.47,79.8Zm8.79-3.44v-.68a4.54,4.54,0,0,0-.93-3,3.23,3.23,0,0,0-4.85,0,4.57,4.57,0,0,0-.94,3v.68a4.54,4.54,0,0,0,.94,3,3.09,3.09,0,0,0,2.43,1.09,3,3,0,0,0,2.42-1.1A4.58,4.58,0,0,0,266.26,76.36Z"/><path d="M270.53,79.44l2.22-.31a1.7,1.7,0,0,0,.51,1.22,2.26,2.26,0,0,0,1.49.42,2.5,2.5,0,0,0,1.31-.28.9.9,0,0,0,.43-.79.78.78,0,0,0-.49-.77,8.56,8.56,0,0,0-1.62-.47,13.9,13.9,0,0,1-1.84-.49,3,3,0,0,1-1.26-.9,2.68,2.68,0,0,1-.53-1.76A2.73,2.73,0,0,1,271.83,73a4.65,4.65,0,0,1,3-.85,4.35,4.35,0,0,1,2.82.84,3,3,0,0,1,1.1,2.32l-2.2.33a1.54,1.54,0,0,0-1.78-1.57,1.93,1.93,0,0,0-1.16.3.9.9,0,0,0-.41.76.81.81,0,0,0,.51.79,9.92,9.92,0,0,0,1.61.48,12.44,12.44,0,0,1,1.86.51,2.89,2.89,0,0,1,1.24.88,2.68,2.68,0,0,1,.52,1.73,2.73,2.73,0,0,1-1.11,2.28,4.93,4.93,0,0,1-3.06.84,4.85,4.85,0,0,1-3.06-.83A3.08,3.08,0,0,1,270.53,79.44Z"/><path d="M282.1,81.83a3,3,0,0,1-.77-2.27V74.62h-1.55v-2h1.57V70.21h2.59V72.6h2.39v2h-2.39v4.53a1.22,1.22,0,0,0,.34,1,1.53,1.53,0,0,0,1.05.3h1l-.35,2.08h-1.39A3.64,3.64,0,0,1,282.1,81.83Z"/><path d="M290.07,78.15a2.71,2.71,0,0,0,.61,1.81,2.09,2.09,0,0,0,1.61.62,1.82,1.82,0,0,0,2-1.53l2.37.49a3.88,3.88,0,0,1-1.46,2.29,5.57,5.57,0,0,1-6.46-.39,4.83,4.83,0,0,1-1.25-3.57v-.74a5.63,5.63,0,0,1,.58-2.6,4.28,4.28,0,0,1,1.64-1.73,4.7,4.7,0,0,1,2.42-.61,4.36,4.36,0,0,1,3.32,1.29,5.13,5.13,0,0,1,1.21,3.65v1Zm0-1.71h4a2.61,2.61,0,0,0-.61-1.59,2,2,0,0,0-2.78,0A2.5,2.5,0,0,0,290.09,76.44Z"/><path d="M304.56,74.87h-.75a2.71,2.71,0,0,0-2,.62,2.62,2.62,0,0,0-.66,2v5H298.6v-10h2.53v2.13A3.14,3.14,0,0,1,302.18,73a2.6,2.6,0,0,1,1.65-.57h.73Z"/><path d="M315.1,76v6.45h-2.6v-6a2.31,2.31,0,0,0-.48-1.56,1.72,1.72,0,0,0-1.35-.55,1.75,1.75,0,0,0-1.36.55,2.23,2.23,0,0,0-.5,1.54v6h-2.59v-10h2.53v1.45A3.06,3.06,0,0,1,310,72.62a3.7,3.7,0,0,1,1.81-.43,3.07,3.07,0,0,1,2.43,1A4.18,4.18,0,0,1,315.1,76Z"/></g></svg>