<svg xmlns="http://www.w3.org/2000/svg" viewBox="0 0 338 41"><g id="SVG"><path d="M2.81,13.27l1.6-.22c0,1.6,1,2.39,2.7,2.39A2.73,2.73,0,0,0,8.83,15a1.5,1.5,0,0,0,.62-1.24,1.33,1.33,0,0,0-.34-1,2.24,2.24,0,0,0-.86-.55,14.56,14.56,0,0,0-1.44-.4,15.1,15.1,0,0,1-1.92-.59,3.09,3.09,0,0,1-1.25-.94,2.78,2.78,0,0,1-.52-1.79A2.94,2.94,0,0,1,3.6,6.85,3.36,3.36,0,0,1,5,5.66a4.77,4.77,0,0,1,2.15-.44,4.12,4.12,0,0,1,2.78.91A3.29,3.29,0,0,1,11,8.67l-1.6.24a2.22,2.22,0,0,0-.68-1.69A2.49,2.49,0,0,0,7.1,6.68a2.44,2.44,0,0,0-1.61.49A1.55,1.55,0,0,0,4.9,8.4a1.33,1.33,0,0,0,.35,1,2.28,2.28,0,0,0,.87.55c.35.12.84.26,1.46.42a11.66,11.66,0,0,1,1.89.58,3.05,3.05,0,0,1,1.25.95,2.7,2.7,0,0,1,.52,1.75,3,3,0,0,1-.5,1.66,3.33,3.33,0,0,1-1.45,1.19,5.16,5.16,0,0,1-2.23.44A4.71,4.71,0,0,1,3.94,16,3.39,3.39,0,0,1,2.81,13.27Z"/><path d="M12.89,12.67V12a4.83,4.83,0,0,1,.48-2.21,3.52,3.52,0,0,1,1.35-1.48,3.87,3.87,0,0,1,2-.52,3.56,3.56,0,0,1,2.45.82,3.27,3.27,0,0,1,1.08,2.2l-1.51.24a2.15,2.15,0,0,0-.57-1.36,1.84,1.84,0,0,0-1.41-.52,2,2,0,0,0-1.6.74,3.35,3.35,0,0,0-.6,2.16v.49a3.36,3.36,0,0,0,.6,2.17,2,2,0,0,0,1.6.73c1.26,0,1.94-.73,2.05-2.18l1.53.25A3.61,3.61,0,0,1,19.27,16a3.65,3.65,0,0,1-2.58.88,3.57,3.57,0,0,1-2.79-1.1A4.46,4.46,0,0,1,12.89,12.67Z"/><path d="M29.69,11.25v5.47H28V11.55a2.63,2.63,0,0,0-.5-1.72,1.81,1.81,0,0,0-1.44-.58,1.94,1.94,0,0,0-1.5.58A2.4,2.4,0,0,0,24,11.5v5.22H22.36V4.62H24V7.74c0,.71,0,1.23,0,1.58a2.79,2.79,0,0,1,1.08-1.1,3.18,3.18,0,0,1,1.59-.39,2.78,2.78,0,0,1,2.22.9A3.73,3.73,0,0,1,29.69,11.25Z"/><path d="M42.65,11.4c-.32,1.21-.85,3-1.61,5.32H39.1L37.44,9.88l-1.78,6.84H33.72c-.76-2.42-1.29-4.24-1.6-5.44S31.59,9,31.45,8h1.62q.2,1.37.57,3c.24,1.08.61,2.52,1.1,4.29L36.63,8h1.73l1.78,7.27q.75-2.62,1.11-4.23c.25-1.07.44-2.08.59-3h1.54C43.21,9.06,43,10.2,42.65,11.4Z"/><path d="M52.8,15.32v1.4H50.31V14.6a2.83,2.83,0,0,1-1,1.71,3.09,3.09,0,0,1-1.9.59,3,3,0,0,1-2-.68,2.35,2.35,0,0,1-.76-1.84,2.45,2.45,0,0,1,.93-2,4.32,4.32,0,0,1,2.81-.78h1.75v-.21a2.44,2.44,0,0,0-.48-1.68,1.76,1.76,0,0,0-1.39-.54,2,2,0,0,0-1.42.46A1.91,1.91,0,0,0,46.26,11l-1.55-.23a2.8,2.8,0,0,1,1-2.16,3.92,3.92,0,0,1,2.57-.81,3.47,3.47,0,0,1,2.57.88,3.62,3.62,0,0,1,.88,2.66v4ZM45.7,5.56A.88.88,0,0,1,46,4.87a1,1,0,0,1,.72-.27.94.94,0,0,1,.7.27.9.9,0,0,1,.27.69.9.9,0,0,1-.27.69.94.94,0,0,1-.7.26A1,1,0,0,1,46,6.25.88.88,0,0,1,45.7,5.56Zm4.38,7.35v0H48.31a2.62,2.62,0,0,0-1.53.36,1.17,1.17,0,0,0-.48,1,1.21,1.21,0,0,0,.42,1,1.73,1.73,0,0,0,1.13.34,2.11,2.11,0,0,0,1.58-.68A2.79,2.79,0,0,0,50.08,12.91Zm-.9-7.35a.88.88,0,0,1,.28-.69,1,1,0,0,1,.71-.27,1,1,0,0,1,.71.27.88.88,0,0,1,.28.69.88.88,0,0,1-.28.69,1,1,0,0,1-.71.26,1,1,0,0,1-.71-.26A.88.88,0,0,1,49.18,5.56Z"/><path d="M62.18,12v.65a5.18,5.18,0,0,1-.45,2.22,3.25,3.25,0,0,1-3.12,2,2.62,2.62,0,0,1-2.48-1.38v1.2H54.47V4.62h1.67V9.23a2.91,2.91,0,0,1,1.08-1,3.39,3.39,0,0,1,4,.75A4.68,4.68,0,0,1,62.18,12Zm-2.3-2.08a2.15,2.15,0,0,0-3.23,0,3.34,3.34,0,0,0-.6,2.15v.54a3.3,3.3,0,0,0,.6,2.15,2,2,0,0,0,1.64.72,1.94,1.94,0,0,0,1.58-.73,3.31,3.31,0,0,0,.6-2.14v-.54A3.4,3.4,0,0,0,59.88,9.94Z"/><path d="M64.06,5.54a1,1,0,0,1,.31-.76,1.24,1.24,0,0,1,1.57,0,1,1,0,0,1,.3.76,1,1,0,0,1-.3.76,1.24,1.24,0,0,1-1.57,0A1,1,0,0,1,64.06,5.54Zm.26,11.18V8H66v8.73Z"/><path d="M68,14.13l1.5-.23a1.63,1.63,0,0,0,.54,1.25,2.43,2.43,0,0,0,1.58.42A2.52,2.52,0,0,0,73,15.26a1,1,0,0,0,.48-.86.9.9,0,0,0-.52-.87,7.1,7.1,0,0,0-1.63-.5,12.61,12.61,0,0,1-1.61-.44,2.52,2.52,0,0,1-1.06-.74,2.14,2.14,0,0,1-.44-1.43,2.26,2.26,0,0,1,.92-1.88,3.87,3.87,0,0,1,2.46-.71A3.59,3.59,0,0,1,74,8.54a2.57,2.57,0,0,1,.94,2l-1.49.23c-.06-1.08-.7-1.62-1.9-1.62a2.13,2.13,0,0,0-1.26.32,1,1,0,0,0-.45.87.87.87,0,0,0,.28.68,1.75,1.75,0,0,0,.7.38c.27.09.66.18,1.15.29a12.57,12.57,0,0,1,1.63.44,2.52,2.52,0,0,1,1.06.74,2.14,2.14,0,0,1,.44,1.43,2.25,2.25,0,0,1-.93,1.89,4.08,4.08,0,0,1-2.54.7A4.14,4.14,0,0,1,69,16.17,2.55,2.55,0,0,1,68,14.13Z"/><path d="M76.65,12.67V12a4.83,4.83,0,0,1,.47-2.21,3.52,3.52,0,0,1,1.35-1.48,3.91,3.91,0,0,1,2-.52A3.55,3.55,0,0,1,83,8.65a3.24,3.24,0,0,1,1.09,2.2l-1.52.24A2.14,2.14,0,0,0,82,9.73a1.87,1.87,0,0,0-1.42-.52A2,2,0,0,0,79,10a3.35,3.35,0,0,0-.6,2.16v.49a3.36,3.36,0,0,0,.6,2.17,2,2,0,0,0,1.59.73c1.26,0,2-.73,2-2.18l1.54.25A3.66,3.66,0,0,1,83,16a3.68,3.68,0,0,1-2.59.88,3.59,3.59,0,0,1-2.79-1.1A4.46,4.46,0,0,1,76.65,12.67Z"/><path d="M93.44,11.25v5.47H91.77V11.55a2.58,2.58,0,0,0-.51-1.72,1.78,1.78,0,0,0-1.44-.58,1.93,1.93,0,0,0-1.49.58,2.4,2.4,0,0,0-.54,1.67v5.22H86.11V4.62h1.68V7.74c0,.71,0,1.23,0,1.58a2.76,2.76,0,0,1,1.07-1.1,3.18,3.18,0,0,1,1.59-.39,2.8,2.8,0,0,1,2.23.9A3.73,3.73,0,0,1,93.44,11.25Z"/><path d="M108,16.72v-5h-6v5h-1.76V5.38H102v4.86h6V5.38h1.77V16.72Z"/><path d="M120.19,15.32v1.4H117.7V14.6a2.83,2.83,0,0,1-1,1.71,3.09,3.09,0,0,1-1.9.59,3,3,0,0,1-2-.68,2.35,2.35,0,0,1-.76-1.84,2.43,2.43,0,0,1,.94-2,4.29,4.29,0,0,1,2.8-.78h1.75v-.21A2.44,2.44,0,0,0,117,9.75a1.74,1.74,0,0,0-1.39-.54,2.05,2.05,0,0,0-1.42.46,1.91,1.91,0,0,0-.53,1.36l-1.55-.23a2.8,2.8,0,0,1,1-2.16,3.92,3.92,0,0,1,2.57-.81,3.47,3.47,0,0,1,2.57.88,3.62,3.62,0,0,1,.89,2.66v4Zm-2.72-2.41v0h-1.76a2.57,2.57,0,0,0-1.53.36,1.15,1.15,0,0,0-.49,1,1.21,1.21,0,0,0,.42,1,1.73,1.73,0,0,0,1.13.34,2.11,2.11,0,0,0,1.58-.68A2.79,2.79,0,0,0,117.47,12.91Z"/><path d="M121.86,16.72V4.62h1.68v12.1Z"/><path d="M126.2,16.72V4.62h1.67v12.1Z"/><path d="M141.75,8v8.73h-1.64V15.39A2.88,2.88,0,0,1,139,16.51a3,3,0,0,1-1.54.39,2.81,2.81,0,0,1-2.23-.9,3.68,3.68,0,0,1-.79-2.52V8h1.67v5.19a2.57,2.57,0,0,0,.5,1.7,1.77,1.77,0,0,0,1.43.58,1.93,1.93,0,0,0,1.47-.57,2.43,2.43,0,0,0,.53-1.68V8Z"/><path d="M151.74,11.25v5.47h-1.67V11.55a2.58,2.58,0,0,0-.51-1.72,1.78,1.78,0,0,0-1.44-.58,1.93,1.93,0,0,0-1.49.58,2.4,2.4,0,0,0-.54,1.67v5.22h-1.68V8h1.66V9.3a2.83,2.83,0,0,1,1.08-1.09,3.28,3.28,0,0,1,1.59-.38,2.78,2.78,0,0,1,2.22.9A3.73,3.73,0,0,1,151.74,11.25Z"/><path d="M161.48,4.62v12.1h-1.67V15.46a2.78,2.78,0,0,1-2.62,1.44,3.06,3.06,0,0,1-2.48-1.12,4.71,4.71,0,0,1-.94-3.09v-.63a4.6,4.6,0,0,1,1-3.08,3.18,3.18,0,0,1,2.58-1.15,2.64,2.64,0,0,1,2.49,1.37V4.62Zm-1.6,8v-.54a3.4,3.4,0,0,0-.59-2.15,2,2,0,0,0-1.63-.73,2,2,0,0,0-1.59.73,3.4,3.4,0,0,0-.59,2.15v.54a3.36,3.36,0,0,0,.59,2.15,2,2,0,0,0,1.63.72,2,2,0,0,0,1.59-.73A3.37,3.37,0,0,0,159.88,12.63Z"/><path d="M175.38,4.62v12.1H173.7V15.46a2.77,2.77,0,0,1-2.61,1.44,3.06,3.06,0,0,1-2.48-1.12,4.66,4.66,0,0,1-.94-3.09v-.63a4.65,4.65,0,0,1,1-3.08,3.2,3.2,0,0,1,2.59-1.15A2.62,2.62,0,0,1,173.7,9.2V4.62Zm-1.61,8v-.54a3.4,3.4,0,0,0-.58-2.15,2,2,0,0,0-1.63-.73,2,2,0,0,0-1.59.73,3.4,3.4,0,0,0-.59,2.15v.54a3.36,3.36,0,0,0,.59,2.15,2.15,2.15,0,0,0,3.22,0A3.37,3.37,0,0,0,173.77,12.63Z"/><path d="M179.21,12.73a3.06,3.06,0,0,0,.62,2.07,2.28,2.28,0,0,0,1.79.7,2.11,2.11,0,0,0,1.39-.45,1.92,1.92,0,0,0,.66-1.23l1.55.29a3.07,3.07,0,0,1-1.15,2,3.86,3.86,0,0,1-2.52.79,3.9,3.9,0,0,1-3-1.1,4.28,4.28,0,0,1-1-3.09v-.65A5,5,0,0,1,178,9.83a3.57,3.57,0,0,1,1.37-1.48,3.93,3.93,0,0,1,2-.52,3.63,3.63,0,0,1,2.81,1.11,4.37,4.37,0,0,1,1,3.12v.67Zm0-1.23h4.35a2.74,2.74,0,0,0-.69-1.71,2,2,0,0,0-1.49-.59,2,2,0,0,0-1.49.59A2.79,2.79,0,0,0,179.23,11.5Z"/><path d="M192.13,9.57h-.65c-1.62,0-2.43.85-2.43,2.54v4.61h-1.67V8H189V9.75a2.68,2.68,0,0,1,1-1.31A2.55,2.55,0,0,1,191.5,8h.63Z"/><path d="M205.9,13.45v.1a2.81,2.81,0,0,1-1.06,2.32,4.41,4.41,0,0,1-2.84.85h-4.25V5.38H202a4.25,4.25,0,0,1,2.73.79,2.64,2.64,0,0,1,1,2.16v.13a2.31,2.31,0,0,1-.48,1.44,2.87,2.87,0,0,1-1.41.95,2.82,2.82,0,0,1,1.57,1A2.55,2.55,0,0,1,205.9,13.45Zm-6.42-3.14h2.32a2.4,2.4,0,0,0,1.56-.46,1.55,1.55,0,0,0,.58-1.3V8.49a1.55,1.55,0,0,0-.58-1.3,2.4,2.4,0,0,0-1.56-.46h-2.32Zm4.07,1.78a2.61,2.61,0,0,0-1.68-.5h-2.39v3.78h2.39a2.61,2.61,0,0,0,1.67-.49,1.64,1.64,0,0,0,.63-1.36v-.07A1.62,1.62,0,0,0,203.55,12.09Z"/><path d="M215.84,15.32v1.4h-2.49V14.6a2.83,2.83,0,0,1-1,1.71,3.09,3.09,0,0,1-1.9.59,3,3,0,0,1-2-.68,2.35,2.35,0,0,1-.76-1.84,2.45,2.45,0,0,1,.93-2,4.34,4.34,0,0,1,2.81-.78h1.75v-.21a2.44,2.44,0,0,0-.48-1.68,1.74,1.74,0,0,0-1.39-.54,2.05,2.05,0,0,0-1.42.46A1.91,1.91,0,0,0,209.3,11l-1.55-.23a2.8,2.8,0,0,1,1-2.16,3.92,3.92,0,0,1,2.57-.81,3.47,3.47,0,0,1,2.57.88,3.62,3.62,0,0,1,.88,2.66v4Zm-2.72-2.41v0h-1.76a2.57,2.57,0,0,0-1.53.36,1.15,1.15,0,0,0-.49,1,1.21,1.21,0,0,0,.42,1,1.73,1.73,0,0,0,1.13.34,2.11,2.11,0,0,0,1.58-.68A2.79,2.79,0,0,0,213.12,12.91Z"/><path d="M224.68,8v8.73H223V15.39A3,3,0,0,1,222,16.51a3,3,0,0,1-1.54.39,2.84,2.84,0,0,1-2.24-.9,3.73,3.73,0,0,1-.79-2.52V8h1.68v5.19a2.57,2.57,0,0,0,.49,1.7,1.77,1.77,0,0,0,1.43.58,1.9,1.9,0,0,0,1.47-.57,2.39,2.39,0,0,0,.53-1.68V8Z"/><path d="M226.71,14.13l1.49-.23a1.7,1.7,0,0,0,.54,1.25,3.2,3.2,0,0,0,3,.11,1,1,0,0,0,.48-.86.89.89,0,0,0-.52-.87A7.15,7.15,0,0,0,230,13a12.16,12.16,0,0,1-1.61-.44,2.46,2.46,0,0,1-1.06-.74,2.1,2.1,0,0,1-.45-1.43,2.26,2.26,0,0,1,.92-1.88,3.9,3.9,0,0,1,2.47-.71,3.63,3.63,0,0,1,2.36.71,2.53,2.53,0,0,1,.93,2l-1.49.23q-.09-1.62-1.89-1.62a2.16,2.16,0,0,0-1.27.32,1,1,0,0,0-.44.87.84.84,0,0,0,.28.68,1.65,1.65,0,0,0,.69.38c.28.09.66.18,1.15.29a11.73,11.73,0,0,1,1.63.44,2.55,2.55,0,0,1,1.07.74,2.14,2.14,0,0,1,.44,1.43,2.25,2.25,0,0,1-.93,1.89,5.07,5.07,0,0,1-5.16,0A2.54,2.54,0,0,1,226.71,14.13Z"/><path d="M243.56,12v.65a5.49,5.49,0,0,1-.43,2.22,3.28,3.28,0,0,1-3.12,2,2.62,2.62,0,0,1-2.48-1.37v4.72h-1.68V8h1.68V9.25a2.79,2.79,0,0,1,2.61-1.42,3.08,3.08,0,0,1,2.49,1.11A4.68,4.68,0,0,1,243.56,12Zm-2.3-2.08a2,2,0,0,0-1.63-.73,2,2,0,0,0-1.59.73,3.4,3.4,0,0,0-.59,2.15v.54a3.36,3.36,0,0,0,.59,2.15,2,2,0,0,0,1.63.72,2,2,0,0,0,1.59-.73,3.37,3.37,0,0,0,.59-2.14v-.54A3.4,3.4,0,0,0,241.26,9.94Z"/><path d="M253.37,15.32v1.4h-2.49V14.6a2.83,2.83,0,0,1-1,1.71,3.09,3.09,0,0,1-1.9.59,3,3,0,0,1-2-.68,2.35,2.35,0,0,1-.76-1.84,2.45,2.45,0,0,1,.93-2,4.32,4.32,0,0,1,2.81-.78h1.75v-.21a2.44,2.44,0,0,0-.48-1.68,1.76,1.76,0,0,0-1.39-.54,2,2,0,0,0-1.42.46,1.91,1.91,0,0,0-.53,1.36l-1.55-.23a2.8,2.8,0,0,1,1-2.16,3.92,3.92,0,0,1,2.57-.81,3.47,3.47,0,0,1,2.57.88,3.62,3.62,0,0,1,.88,2.66v4Zm-2.72-2.41v0h-1.77a2.62,2.62,0,0,0-1.53.36,1.17,1.17,0,0,0-.48,1,1.21,1.21,0,0,0,.42,1,1.73,1.73,0,0,0,1.13.34,2.11,2.11,0,0,0,1.58-.68A2.79,2.79,0,0,0,250.65,12.91Z"/><path d="M259.79,9.57h-.65c-1.62,0-2.43.85-2.43,2.54v4.61H255V8h1.66V9.75a2.68,2.68,0,0,1,1-1.31A2.55,2.55,0,0,1,259.16,8h.63Z"/><path d="M262.08,9.47h-1.44V8.12h1.44V7.43a2.5,2.5,0,0,1,2.84-2.81h.81L266,6h-.9a1.3,1.3,0,0,0-1,.34,1.57,1.57,0,0,0-.3,1.07v.67h2.34V9.47h-2.34v7.25h-1.69Z"/><path d="M274.91,8v8.73h-1.64V15.39a2.88,2.88,0,0,1-1.07,1.12,3,3,0,0,1-1.54.39,2.81,2.81,0,0,1-2.23-.9,3.68,3.68,0,0,1-.79-2.52V8h1.67v5.19a2.57,2.57,0,0,0,.5,1.7,1.77,1.77,0,0,0,1.43.58,1.93,1.93,0,0,0,1.47-.57,2.43,2.43,0,0,0,.53-1.68V8Z"/><path d="M277.05,12.67V12a4.83,4.83,0,0,1,.48-2.21,3.52,3.52,0,0,1,1.35-1.48,3.87,3.87,0,0,1,2-.52,3.56,3.56,0,0,1,2.45.82,3.19,3.19,0,0,1,1.08,2.2l-1.51.24a2.15,2.15,0,0,0-.57-1.36A1.84,1.84,0,0,0,281,9.21a2,2,0,0,0-1.59.74,3.29,3.29,0,0,0-.61,2.16v.49a3.3,3.3,0,0,0,.61,2.17,2,2,0,0,0,1.59.73c1.26,0,1.94-.73,2.05-2.18l1.53.25a3.6,3.6,0,0,1-1.1,2.45,3.7,3.7,0,0,1-2.59.88,3.57,3.57,0,0,1-2.79-1.1A4.46,4.46,0,0,1,277.05,12.67Z"/><path d="M293.85,11.25v5.47h-1.68V11.55a2.58,2.58,0,0,0-.5-1.72,1.81,1.81,0,0,0-1.44-.58,2,2,0,0,0-1.5.58,2.44,2.44,0,0,0-.54,1.67v5.22h-1.67V4.62h1.67V7.74c0,.71,0,1.23,0,1.58a2.76,2.76,0,0,1,1.07-1.1,3.18,3.18,0,0,1,1.59-.39,2.81,2.81,0,0,1,2.23.9A3.73,3.73,0,0,1,293.85,11.25Z"/><path d="M295.77,14.13l1.5-.23a1.63,1.63,0,0,0,.54,1.25,2.43,2.43,0,0,0,1.58.42,2.52,2.52,0,0,0,1.38-.31,1,1,0,0,0,.48-.86.9.9,0,0,0-.53-.87,6.82,6.82,0,0,0-1.62-.5,12.61,12.61,0,0,1-1.61-.44,2.52,2.52,0,0,1-1.06-.74,2.14,2.14,0,0,1-.44-1.43,2.24,2.24,0,0,1,.92-1.88,3.87,3.87,0,0,1,2.46-.71,3.61,3.61,0,0,1,2.36.71,2.57,2.57,0,0,1,.94,2l-1.5.23q-.09-1.62-1.89-1.62a2.18,2.18,0,0,0-1.27.32,1,1,0,0,0-.44.87.87.87,0,0,0,.28.68,1.78,1.78,0,0,0,.69.38c.28.09.67.18,1.16.29a12.57,12.57,0,0,1,1.63.44,2.59,2.59,0,0,1,1.06.74,2.14,2.14,0,0,1,.44,1.43,2.25,2.25,0,0,1-.93,1.89,4.11,4.11,0,0,1-2.55.7,4.18,4.18,0,0,1-2.61-.71A2.57,2.57,0,0,1,295.77,14.13Z"/><path d="M13.74,31.05c-.31,1.21-.85,3-1.6,5.32h-2L8.54,29.53,6.75,36.37H4.81C4.05,34,3.52,32.13,3.22,30.93a30.78,30.78,0,0,1-.68-3.29H4.16q.2,1.37.57,3c.24,1.09.61,2.52,1.1,4.29l1.9-7.29H9.45l1.79,7.28c.49-1.76.86-3.17,1.1-4.24s.45-2.08.59-3h1.55C14.3,28.71,14.05,29.85,13.74,31.05Z"/><path d="M23.48,27.64v8.73H21.84V35a3,3,0,0,1-1.07,1.12,3,3,0,0,1-1.54.39,2.84,2.84,0,0,1-2.24-.9,3.73,3.73,0,0,1-.79-2.52V27.64h1.68v5.19a2.57,2.57,0,0,0,.49,1.7,1.77,1.77,0,0,0,1.43.58,1.9,1.9,0,0,0,1.47-.57,2.42,2.42,0,0,0,.53-1.68V27.64Zm-6.32-2.43a.88.88,0,0,1,.28-.69,1,1,0,0,1,.73-.26,1,1,0,0,1,.7.26,1,1,0,0,1,0,1.38,1,1,0,0,1-.7.27,1,1,0,0,1-.73-.27A.88.88,0,0,1,17.16,25.21Zm3.47,0a.88.88,0,0,1,.28-.69,1,1,0,0,1,.71-.26,1,1,0,0,1,.71.26,1,1,0,0,1,0,1.38,1,1,0,0,1-.71.27,1,1,0,0,1-.71-.27A.88.88,0,0,1,20.63,25.21Z"/><path d="M33.47,30.9v5.47H31.79V31.21a2.6,2.6,0,0,0-.5-1.72,1.81,1.81,0,0,0-1.44-.59,1.94,1.94,0,0,0-1.5.59,2.35,2.35,0,0,0-.54,1.66v5.22H26.14V27.64h1.65V29a2.79,2.79,0,0,1,1.09-1.09,3.11,3.11,0,0,1,1.58-.39,2.78,2.78,0,0,1,2.22.9A3.68,3.68,0,0,1,33.47,30.9Z"/><path d="M35.39,33.78l1.49-.23a1.68,1.68,0,0,0,.54,1.25,2.48,2.48,0,0,0,1.59.42,2.62,2.62,0,0,0,1.38-.3,1,1,0,0,0,.47-.87.89.89,0,0,0-.52-.87,7.15,7.15,0,0,0-1.62-.5,12.16,12.16,0,0,1-1.61-.44,2.44,2.44,0,0,1-1.06-.74,2.09,2.09,0,0,1-.44-1.43,2.25,2.25,0,0,1,.91-1.88A4,4,0,0,1,39,27.48a3.67,3.67,0,0,1,2.36.71,2.57,2.57,0,0,1,.94,2l-1.5.23q-.09-1.62-1.89-1.62a2.18,2.18,0,0,0-1.27.32,1,1,0,0,0-.44.87.88.88,0,0,0,.28.69,1.91,1.91,0,0,0,.69.37c.28.09.66.18,1.15.29a13.34,13.34,0,0,1,1.63.44,2.55,2.55,0,0,1,1.07.74,2.14,2.14,0,0,1,.44,1.43,2.23,2.23,0,0,1-.93,1.89,4.13,4.13,0,0,1-2.55.71,4.14,4.14,0,0,1-2.61-.72A2.57,2.57,0,0,1,35.39,33.78Z"/><path d="M44,32.32v-.63a4.83,4.83,0,0,1,.48-2.21A3.52,3.52,0,0,1,45.84,28a3.87,3.87,0,0,1,2-.52,3.56,3.56,0,0,1,2.45.82,3.19,3.19,0,0,1,1.08,2.2l-1.51.24a2.15,2.15,0,0,0-.57-1.36,1.87,1.87,0,0,0-1.41-.51,2,2,0,0,0-1.59.73,3.33,3.33,0,0,0-.61,2.16v.49a3.3,3.3,0,0,0,.61,2.17,2,2,0,0,0,1.59.73c1.26,0,1.94-.73,2-2.18l1.53.25a3.57,3.57,0,0,1-1.11,2.45,3.65,3.65,0,0,1-2.58.88A3.59,3.59,0,0,1,45,35.46,4.51,4.51,0,0,1,44,32.32Z"/><path d="M60.81,30.9v5.47H59.13V31.21a2.6,2.6,0,0,0-.5-1.72,1.81,1.81,0,0,0-1.44-.59,1.94,1.94,0,0,0-1.5.59,2.35,2.35,0,0,0-.54,1.66v5.22H53.48V24.27h1.67v3.12c0,.71,0,1.24,0,1.58a2.74,2.74,0,0,1,1.07-1.09,3.08,3.08,0,0,1,1.59-.4,2.78,2.78,0,0,1,2.22.9A3.68,3.68,0,0,1,60.81,30.9Z"/><path d="M64.53,32.38a3.06,3.06,0,0,0,.62,2.07,2.26,2.26,0,0,0,1.79.7,2.09,2.09,0,0,0,1.39-.45A2,2,0,0,0,69,33.48l1.55.28a3.09,3.09,0,0,1-1.16,2,3.86,3.86,0,0,1-2.52.79,4,4,0,0,1-3-1.09,4.37,4.37,0,0,1-1-3.1v-.65a4.78,4.78,0,0,1,.49-2.22A3.51,3.51,0,0,1,64.69,28a4,4,0,0,1,2.06-.52,3.66,3.66,0,0,1,2.81,1.11,4.43,4.43,0,0,1,1,3.12v.67Zm0-1.23h4.36a2.8,2.8,0,0,0-.7-1.71,2,2,0,0,0-1.48-.59,2,2,0,0,0-1.5.59A2.79,2.79,0,0,0,64.55,31.15Z"/><path d="M80,30.9v5.47H78.36V31.21a2.54,2.54,0,0,0-.51-1.72,1.78,1.78,0,0,0-1.44-.59,1.94,1.94,0,0,0-1.49.59,2.35,2.35,0,0,0-.54,1.66v5.22H72.7V27.64h1.66V29a2.7,2.7,0,0,1,1.08-1.09A3.14,3.14,0,0,1,77,27.48a2.8,2.8,0,0,1,2.23.9A3.73,3.73,0,0,1,80,30.9Z"/><path d="M86.87,36.37V25h1.76V36.37Z"/><path d="M98.73,30.9v5.47H97.06V31.21a2.54,2.54,0,0,0-.51-1.72,1.78,1.78,0,0,0-1.44-.59,1.94,1.94,0,0,0-1.49.59,2.35,2.35,0,0,0-.54,1.66v5.22H91.4V24.27h1.68v3.12c0,.71,0,1.24,0,1.58a2.74,2.74,0,0,1,1.07-1.09,3.12,3.12,0,0,1,1.6-.4,2.78,2.78,0,0,1,2.22.9A3.73,3.73,0,0,1,98.73,30.9Z"/><path d="M108.61,30.9v5.47h-1.67V31.21a2.6,2.6,0,0,0-.5-1.72A1.81,1.81,0,0,0,105,28.9a1.94,1.94,0,0,0-1.5.59,2.35,2.35,0,0,0-.54,1.66v5.22h-1.67V27.64h1.65V29A2.83,2.83,0,0,1,104,27.87a3.18,3.18,0,0,1,1.59-.39,2.78,2.78,0,0,1,2.22.9A3.73,3.73,0,0,1,108.61,30.9Z"/><path d="M112.34,32.38a3.06,3.06,0,0,0,.62,2.07,2.25,2.25,0,0,0,1.79.7,2.09,2.09,0,0,0,1.39-.45,1.92,1.92,0,0,0,.66-1.22l1.55.28a3.07,3.07,0,0,1-1.15,2,3.86,3.86,0,0,1-2.52.79,3.94,3.94,0,0,1-3-1.09,4.32,4.32,0,0,1-1-3.1v-.65a4.9,4.9,0,0,1,.48-2.22A3.54,3.54,0,0,1,112.5,28a3.93,3.93,0,0,1,2-.52,3.63,3.63,0,0,1,2.81,1.11,4.38,4.38,0,0,1,1,3.12v.67Zm0-1.23h4.35a2.74,2.74,0,0,0-.69-1.71,2.18,2.18,0,0,0-3,0A2.79,2.79,0,0,0,112.36,31.15Z"/><path d="M127.84,30.9v5.47h-1.68V31.21a2.54,2.54,0,0,0-.5-1.72,1.81,1.81,0,0,0-1.44-.59,1.94,1.94,0,0,0-1.5.59,2.35,2.35,0,0,0-.54,1.66v5.22h-1.67V27.64h1.66V29a2.7,2.7,0,0,1,1.08-1.09,3.11,3.11,0,0,1,1.58-.39,2.81,2.81,0,0,1,2.23.9A3.73,3.73,0,0,1,127.84,30.9Z"/><path d="M134.68,36.37V25h6.89v1.44h-5.13v3.66h4.88v1.44h-4.88v4.8Z"/><path d="M148.14,29.23h-.65c-1.62,0-2.43.84-2.43,2.53v4.61h-1.67V27.64H145v1.77a2.68,2.68,0,0,1,1-1.32,2.55,2.55,0,0,1,1.49-.45h.63Z"/><path d="M149.11,32.34v-.63a4.78,4.78,0,0,1,.49-2.22A3.44,3.44,0,0,1,151,28a4.08,4.08,0,0,1,2.09-.52,3.74,3.74,0,0,1,2.85,1.11,4.32,4.32,0,0,1,1,3.08v.65a4.78,4.78,0,0,1-.49,2.22,3.63,3.63,0,0,1-1.4,1.48,4,4,0,0,1-2.09.53,3.66,3.66,0,0,1-2.82-1.1A4.35,4.35,0,0,1,149.11,32.34Zm6.14-.09v-.49a3.31,3.31,0,0,0-.6-2.16,2.15,2.15,0,0,0-3.23,0,3.26,3.26,0,0,0-.62,2.16v.49a3.3,3.3,0,0,0,.62,2.17,2.15,2.15,0,0,0,3.23,0A3.36,3.36,0,0,0,155.25,32.25Z"/><path d="M166.41,30.9v5.47h-1.67V31.21a2.54,2.54,0,0,0-.51-1.72,1.78,1.78,0,0,0-1.44-.59,1.94,1.94,0,0,0-1.49.59,2.35,2.35,0,0,0-.54,1.66v5.22h-1.68V24.27h1.68v3.12c0,.71,0,1.24,0,1.58a2.74,2.74,0,0,1,1.07-1.09,3.12,3.12,0,0,1,1.6-.4,2.78,2.78,0,0,1,2.22.9A3.73,3.73,0,0,1,166.41,30.9Z"/><path d="M170.14,32.38a3,3,0,0,0,.62,2.07,2.25,2.25,0,0,0,1.79.7,2.11,2.11,0,0,0,1.39-.45,1.92,1.92,0,0,0,.66-1.22l1.55.28a3.07,3.07,0,0,1-1.15,2,3.86,3.86,0,0,1-2.52.79,3.92,3.92,0,0,1-3-1.09,4.33,4.33,0,0,1-1.05-3.1v-.65a4.9,4.9,0,0,1,.49-2.22A3.47,3.47,0,0,1,170.3,28a3.93,3.93,0,0,1,2-.52,3.63,3.63,0,0,1,2.81,1.11,4.43,4.43,0,0,1,1,3.12v.67Zm0-1.23h4.36a2.74,2.74,0,0,0-.69-1.71,2,2,0,0,0-1.49-.59,2,2,0,0,0-1.49.59A2.79,2.79,0,0,0,170.15,31.15Z"/><path d="M182.62,34a6.37,6.37,0,0,1-.64-3v-.6a6.24,6.24,0,0,1,.66-2.93,4.56,4.56,0,0,1,1.85-1.94,6.12,6.12,0,0,1,5.55,0,4.54,4.54,0,0,1,1.81,1.92,6.38,6.38,0,0,1,.64,2.95V31a6.23,6.23,0,0,1-.65,2.93A4.64,4.64,0,0,1,190,35.88a6.1,6.1,0,0,1-5.54,0A4.5,4.5,0,0,1,182.62,34Zm7.61-.78a5.11,5.11,0,0,0,.45-2.22v-.54a5.12,5.12,0,0,0-.44-2.19A3.2,3.2,0,0,0,189,26.8a3.3,3.3,0,0,0-4.82,1.44,5.19,5.19,0,0,0-.43,2.21V31a5.2,5.2,0,0,0,.44,2.2,3.33,3.33,0,0,0,1.23,1.43,3.5,3.5,0,0,0,3.57,0A3.29,3.29,0,0,0,190.23,33.19Z"/><path d="M194.11,33.78l1.5-.23a1.61,1.61,0,0,0,.54,1.25,2.43,2.43,0,0,0,1.58.42,2.62,2.62,0,0,0,1.38-.3,1,1,0,0,0,.47-.87.89.89,0,0,0-.52-.87,7.15,7.15,0,0,0-1.62-.5,12.16,12.16,0,0,1-1.61-.44,2.44,2.44,0,0,1-1.06-.74,2.09,2.09,0,0,1-.44-1.43,2.24,2.24,0,0,1,.92-1.88,3.93,3.93,0,0,1,2.46-.71,3.67,3.67,0,0,1,2.36.71,2.57,2.57,0,0,1,.94,2l-1.5.23q-.09-1.62-1.89-1.62a2.18,2.18,0,0,0-1.27.32,1,1,0,0,0-.44.87.88.88,0,0,0,.28.69,1.91,1.91,0,0,0,.69.37c.28.09.66.18,1.16.29a14.43,14.43,0,0,1,1.63.44,2.59,2.59,0,0,1,1.06.74,2.14,2.14,0,0,1,.44,1.43,2.23,2.23,0,0,1-.93,1.89,4.13,4.13,0,0,1-2.55.71,4.18,4.18,0,0,1-2.61-.72A2.57,2.57,0,0,1,194.11,33.78Z"/><path d="M204.31,35.89a2.33,2.33,0,0,1-.64-1.82V29.12h-1.48V27.77h1.5V25.61h1.67v2.16h2.36v1.35h-2.36V33.8a1.29,1.29,0,0,0,.33,1,1.49,1.49,0,0,0,1,.3h1l-.25,1.36h-1.1A3,3,0,0,1,204.31,35.89Z"/><path d="M210.6,32.38a3.06,3.06,0,0,0,.62,2.07,2.25,2.25,0,0,0,1.79.7,2.09,2.09,0,0,0,1.39-.45,1.92,1.92,0,0,0,.66-1.22l1.55.28a3.07,3.07,0,0,1-1.15,2,3.86,3.86,0,0,1-2.52.79,3.94,3.94,0,0,1-3-1.09,4.32,4.32,0,0,1-1-3.1v-.65a4.9,4.9,0,0,1,.48-2.22A3.54,3.54,0,0,1,210.76,28a3.93,3.93,0,0,1,2.05-.52,3.63,3.63,0,0,1,2.81,1.11,4.38,4.38,0,0,1,1,3.12v.67Zm0-1.23H215a2.74,2.74,0,0,0-.69-1.71,2.18,2.18,0,0,0-3,0A2.79,2.79,0,0,0,210.62,31.15Z"/><path d="M223.52,29.23h-.64c-1.63,0-2.44.84-2.44,2.53v4.61h-1.67V27.64h1.66v1.77a2.67,2.67,0,0,1,1-1.32,2.55,2.55,0,0,1,1.49-.45h.63Z"/><path d="M232.56,30.9v5.47h-1.67V31.21a2.54,2.54,0,0,0-.51-1.72,1.78,1.78,0,0,0-1.44-.59,1.94,1.94,0,0,0-1.49.59,2.35,2.35,0,0,0-.54,1.66v5.22h-1.68V27.64h1.66V29A2.7,2.7,0,0,1,228,27.87a3.14,3.14,0,0,1,1.58-.39,2.81,2.81,0,0,1,2.23.9A3.73,3.73,0,0,1,232.56,30.9Z"/></g></svg>