<svg xmlns="http://www.w3.org/2000/svg" viewBox="0 0 333 103"><defs><style>.cls-1{fill:#fff;opacity:0.77;}</style></defs><g id="SVG"><path class="cls-1" d="M41.27,0H333a0,0,0,0,1,0,0V103a0,0,0,0,1,0,0H0a0,0,0,0,1,0,0V41.27A41.27,41.27,0,0,1,41.27,0Z"/><path d="M58.48,29.48l2.39-.33c.05,1.57,1,2.35,2.71,2.35a2.84,2.84,0,0,0,1.67-.42A1.3,1.3,0,0,0,65.83,30a1.12,1.12,0,0,0-.36-.87,2.6,2.6,0,0,0-.91-.53c-.36-.13-.87-.28-1.51-.44a17.68,17.68,0,0,1-2.22-.69,3.62,3.62,0,0,1-1.47-1.11,3.12,3.12,0,0,1-.62-2,3.51,3.51,0,0,1,.61-2,4.12,4.12,0,0,1,1.72-1.41,6.22,6.22,0,0,1,2.6-.52A5,5,0,0,1,67,21.44a4,4,0,0,1,1.37,3L66,24.74a2.28,2.28,0,0,0-.71-1.63A2.81,2.81,0,0,0,62.1,23a1.38,1.38,0,0,0-.56,1.13,1.19,1.19,0,0,0,.67,1.11,8.76,8.76,0,0,0,2.09.68,19.28,19.28,0,0,1,2.22.7A3.63,3.63,0,0,1,68,27.71a3.11,3.11,0,0,1,.62,2A3.48,3.48,0,0,1,68,31.81a4,4,0,0,1-1.77,1.38,6.75,6.75,0,0,1-2.68.49,5.49,5.49,0,0,1-3.67-1.09A4.08,4.08,0,0,1,58.48,29.48Z"/><path d="M70.1,28.8v-.71a5.56,5.56,0,0,1,.56-2.59,4,4,0,0,1,1.59-1.71,4.7,4.7,0,0,1,2.4-.6,4.22,4.22,0,0,1,2.9,1,3.88,3.88,0,0,1,1.26,2.65l-2.2.35a2.14,2.14,0,0,0-.54-1.38,1.92,1.92,0,0,0-2.79.22,3.44,3.44,0,0,0-.55,2.14v.59a3.42,3.42,0,0,0,.56,2.14,1.81,1.81,0,0,0,1.48.7c1.16,0,1.78-.71,1.86-2.12l2.25.34a4.22,4.22,0,0,1-1.3,2.85,5,5,0,0,1-6.31-.21A5.12,5.12,0,0,1,70.1,28.8Z"/><path d="M89.61,27v6.45H87v-6a2.31,2.31,0,0,0-.48-1.56,1.73,1.73,0,0,0-1.36-.55,1.75,1.75,0,0,0-1.35.55,2.18,2.18,0,0,0-.5,1.54v6h-2.6V19.6h2.6v3.22c0,.45,0,1.12,0,2a3.16,3.16,0,0,1,1.24-1.22,3.58,3.58,0,0,1,1.78-.43,3.07,3.07,0,0,1,2.43,1A4.17,4.17,0,0,1,89.61,27Z"/><path d="M104.64,27.28c-.35,1.37-1,3.43-1.9,6.18h-3l-1.43-7.39L96.7,33.46H93.76c-.86-2.71-1.45-4.75-1.79-6.13a37.11,37.11,0,0,1-.74-3.92H93.8A68,68,0,0,0,95.29,31L97,23.41h2.81l1.55,7.46a73.05,73.05,0,0,0,1.56-7.46h2.47A29.26,29.26,0,0,1,104.64,27.28Z"/><path d="M116.08,31.31v2.15h-3.25V31.19A3.1,3.1,0,0,1,111.71,33a3.44,3.44,0,0,1-2.15.65,3.24,3.24,0,0,1-2.29-.79,2.8,2.8,0,0,1-.87-2.17,2.67,2.67,0,0,1,1.12-2.29,5.7,5.7,0,0,1,3.41-.83h1.51v-.25a2.34,2.34,0,0,0-.43-1.57,1.65,1.65,0,0,0-1.3-.49,1.88,1.88,0,0,0-1.33.43,1.82,1.82,0,0,0-.49,1.27l-2.37-.35a3.21,3.21,0,0,1,1.23-2.51,4.68,4.68,0,0,1,3.06-.94,4.36,4.36,0,0,1,3.16,1,4.27,4.27,0,0,1,1.06,3.2v3.89Zm-8.62-10.77a1.22,1.22,0,0,1,.41-1,1.51,1.51,0,0,1,1-.36,1.45,1.45,0,0,1,1,.36,1.21,1.21,0,0,1,.4,1,1.23,1.23,0,0,1-.4,1,1.49,1.49,0,0,1-1,.34,1.53,1.53,0,0,1-1-.34A1.23,1.23,0,0,1,107.46,20.54Zm5,8.84v-.07h-1.53c-1.24,0-1.86.4-1.86,1.19a1,1,0,0,0,.4.83,1.66,1.66,0,0,0,1,.31,1.8,1.8,0,0,0,1.38-.6A2.36,2.36,0,0,0,112.44,29.38Zm-.75-8.84a1.21,1.21,0,0,1,.4-1,1.67,1.67,0,0,1,2.07,0,1.21,1.21,0,0,1,.4,1,1.23,1.23,0,0,1-.4,1,1.57,1.57,0,0,1-1,.34,1.52,1.52,0,0,1-1-.36A1.2,1.2,0,0,1,111.69,20.54Z"/><path d="M126.48,25.45a6.39,6.39,0,0,1,.48,2.6v.73a5.51,5.51,0,0,1-1.08,3.59,3.59,3.59,0,0,1-2.9,1.31,2.9,2.9,0,0,1-2.7-1.43v1.21h-2.53V19.6h2.59v5a3.07,3.07,0,0,1,2.82-1.45,3.42,3.42,0,0,1,2,.58A3.85,3.85,0,0,1,126.48,25.45Zm-2.72.55a1.81,1.81,0,0,0-1.52-.71,1.79,1.79,0,0,0-1.5.71,3.48,3.48,0,0,0-.54,2.13v.61a3.49,3.49,0,0,0,.54,2.14,1.8,1.8,0,0,0,1.52.7,1.78,1.78,0,0,0,1.5-.7,3.49,3.49,0,0,0,.54-2.14v-.61A3.48,3.48,0,0,0,123.76,26Z"/><path d="M128.73,20.54a1.37,1.37,0,0,1,.43-1.05,1.66,1.66,0,0,1,1.13-.38,1.62,1.62,0,0,1,1.1.38,1.5,1.5,0,0,1,0,2.1,1.61,1.61,0,0,1-1.1.37,1.65,1.65,0,0,1-1.13-.37A1.37,1.37,0,0,1,128.73,20.54ZM129,33.46v-10h2.59V33.46Z"/><path d="M133.49,30.44l2.23-.31a1.63,1.63,0,0,0,.51,1.22,2.25,2.25,0,0,0,1.49.41,2.47,2.47,0,0,0,1.3-.27.89.89,0,0,0,.43-.79.77.77,0,0,0-.49-.77,8.19,8.19,0,0,0-1.61-.47A14.1,14.1,0,0,1,135.5,29a3,3,0,0,1-1.25-.9,2.62,2.62,0,0,1-.53-1.76A2.73,2.73,0,0,1,134.8,24a4.65,4.65,0,0,1,3-.85,4.39,4.39,0,0,1,2.82.84,3,3,0,0,1,1.1,2.32l-2.21.33a1.54,1.54,0,0,0-1.77-1.57,2,2,0,0,0-1.17.29.93.93,0,0,0-.41.77.81.81,0,0,0,.52.79,9.61,9.61,0,0,0,1.61.48,13.16,13.16,0,0,1,1.86.51,2.93,2.93,0,0,1,1.23.88,2.61,2.61,0,0,1,.52,1.73,2.75,2.75,0,0,1-1.1,2.28,6,6,0,0,1-6.13,0A3.16,3.16,0,0,1,133.49,30.44Z"/><path d="M143.25,28.8v-.71a5.68,5.68,0,0,1,.56-2.59,4.11,4.11,0,0,1,1.59-1.71,4.7,4.7,0,0,1,2.4-.6,4.21,4.21,0,0,1,2.9,1A3.89,3.89,0,0,1,152,26.82l-2.21.35a2.14,2.14,0,0,0-.54-1.38,1.91,1.91,0,0,0-2.78.22,3.44,3.44,0,0,0-.56,2.14v.59a3.36,3.36,0,0,0,.57,2.14,1.78,1.78,0,0,0,1.48.7c1.15,0,1.77-.71,1.85-2.12l2.25.34a4.17,4.17,0,0,1-1.3,2.85,5,5,0,0,1-6.31-.21A5.12,5.12,0,0,1,143.25,28.8Z"/><path d="M162.77,27v6.45h-2.59v-6a2.31,2.31,0,0,0-.48-1.56,1.74,1.74,0,0,0-1.36-.55,1.77,1.77,0,0,0-1.36.55,2.23,2.23,0,0,0-.5,1.54v6h-2.59V19.6h2.59v3.22c0,.45,0,1.12,0,2a3.18,3.18,0,0,1,1.25-1.22,3.52,3.52,0,0,1,1.77-.43,3,3,0,0,1,2.43,1A4.13,4.13,0,0,1,162.77,27Z"/><path d="M178.18,33.46V28.07h-5.75v5.39h-2.76V20.6h2.76v5.22h5.75V20.6h2.76V33.46Z"/><path d="M192.7,31.31v2.15h-3.25V31.19A3,3,0,0,1,188.33,33a3.41,3.41,0,0,1-2.14.65,3.26,3.26,0,0,1-2.3-.79,2.8,2.8,0,0,1-.87-2.17,2.68,2.68,0,0,1,1.13-2.29,5.64,5.64,0,0,1,3.4-.83h1.52v-.25a2.39,2.39,0,0,0-.43-1.57,1.67,1.67,0,0,0-1.31-.49,1.9,1.9,0,0,0-1.33.43,1.82,1.82,0,0,0-.49,1.27l-2.37-.35a3.24,3.24,0,0,1,1.23-2.51,4.72,4.72,0,0,1,3.06-.94,4.38,4.38,0,0,1,3.17,1,4.31,4.31,0,0,1,1.06,3.2v3.89Zm-3.63-1.93v-.07h-1.54c-1.23,0-1.85.4-1.85,1.19a1,1,0,0,0,.39.83,1.67,1.67,0,0,0,1.06.31,1.8,1.8,0,0,0,1.37-.6A2.32,2.32,0,0,0,189.07,29.38Z"/><path d="M194.37,33.46V19.6H197V33.46Z"/><path d="M199.58,33.46V19.6h2.59V33.46Z"/><path d="M217.69,23.41V33.46h-2.53V32a3.06,3.06,0,0,1-1.23,1.24,3.54,3.54,0,0,1-1.77.43,3.1,3.1,0,0,1-2.44-1,4,4,0,0,1-.89-2.82V23.41h2.61v6a2.33,2.33,0,0,0,.47,1.56,1.67,1.67,0,0,0,1.33.54A1.78,1.78,0,0,0,214.6,31a2.17,2.17,0,0,0,.5-1.52V23.41Z"/><path d="M229.18,27v6.45h-2.59v-6a2.31,2.31,0,0,0-.48-1.56,1.73,1.73,0,0,0-1.36-.55,1.75,1.75,0,0,0-1.35.55,2.18,2.18,0,0,0-.5,1.54v6h-2.6v-10h2.53v1.45a3.08,3.08,0,0,1,1.24-1.24,3.67,3.67,0,0,1,1.81-.43,3.07,3.07,0,0,1,2.43,1A4.17,4.17,0,0,1,229.18,27Z"/><path d="M240.31,19.6V33.46h-2.59V32.23a3.07,3.07,0,0,1-2.82,1.45,3.41,3.41,0,0,1-2.76-1.28,5.53,5.53,0,0,1-1-3.56v-.75a6.43,6.43,0,0,1,.49-2.59A3.89,3.89,0,0,1,233,23.79a3.65,3.65,0,0,1,2.08-.6,2.93,2.93,0,0,1,2.66,1.35V19.6Zm-2.47,9.14v-.61A3.48,3.48,0,0,0,237.3,26a1.81,1.81,0,0,0-1.52-.71,1.79,1.79,0,0,0-1.5.71,3.48,3.48,0,0,0-.54,2.13v.61a3.51,3.51,0,0,0,.54,2.15,1.82,1.82,0,0,0,1.52.69,1.78,1.78,0,0,0,1.5-.7A3.49,3.49,0,0,0,237.84,28.74Z"/><path d="M255.73,19.6V33.46h-2.6V32.23a3.07,3.07,0,0,1-2.81,1.45,3.38,3.38,0,0,1-2.76-1.28,5.53,5.53,0,0,1-1-3.56v-.75A6.27,6.27,0,0,1,247,25.5a3.83,3.83,0,0,1,1.39-1.71,3.65,3.65,0,0,1,2.08-.6,2.91,2.91,0,0,1,2.65,1.35V19.6Zm-2.47,9.14v-.61a3.41,3.41,0,0,0-.55-2.13,2,2,0,0,0-3,0,3.48,3.48,0,0,0-.54,2.13v.61a3.51,3.51,0,0,0,.54,2.15,1.82,1.82,0,0,0,1.52.69,1.78,1.78,0,0,0,1.5-.7A3.42,3.42,0,0,0,253.26,28.74Z"/><path d="M260.38,29.15A2.77,2.77,0,0,0,261,31a2.12,2.12,0,0,0,1.62.62,1.83,1.83,0,0,0,2-1.53l2.37.49a3.93,3.93,0,0,1-1.46,2.29,5.58,5.58,0,0,1-6.47-.39,4.84,4.84,0,0,1-1.24-3.58v-.73a5.51,5.51,0,0,1,.58-2.6A4.25,4.25,0,0,1,260,23.8a4.7,4.7,0,0,1,2.42-.61,4.35,4.35,0,0,1,3.32,1.29,5.09,5.09,0,0,1,1.22,3.65v1Zm0-1.71h4a2.55,2.55,0,0,0-.61-1.59,2,2,0,0,0-2.78,0A2.61,2.61,0,0,0,260.4,27.44Z"/><path d="M274.88,25.86h-.76a2.73,2.73,0,0,0-2,.63,2.64,2.64,0,0,0-.65,2v5h-2.59v-10h2.53v2.13A3.14,3.14,0,0,1,272.5,24a2.58,2.58,0,0,1,1.64-.57h.74Z"/><path d="M69.18,54.14v.14A3.26,3.26,0,0,1,67.93,57a5.2,5.2,0,0,1-3.33,1H59.28V45.1h5.3A5.06,5.06,0,0,1,67.8,46,3,3,0,0,1,69,48.47v.12a2.65,2.65,0,0,1-.51,1.6,3.24,3.24,0,0,1-1.51,1.09,3.29,3.29,0,0,1,1.68,1A2.86,2.86,0,0,1,69.18,54.14ZM62,50.49H64.2a2.43,2.43,0,0,0,1.52-.43,1.49,1.49,0,0,0,.54-1.23v-.06a1.48,1.48,0,0,0-.53-1.22,2.38,2.38,0,0,0-1.53-.43H62Zm4,2.31a2.5,2.5,0,0,0-1.6-.46H62v3.6h2.37a2.51,2.51,0,0,0,1.59-.46,1.58,1.58,0,0,0,.57-1.3V54.1A1.6,1.6,0,0,0,65.92,52.8Z"/><path d="M80.39,55.82V58H77.14V55.69A3.1,3.1,0,0,1,76,57.53a3.42,3.42,0,0,1-2.15.65,3.25,3.25,0,0,1-2.29-.79,2.79,2.79,0,0,1-.87-2.17,2.67,2.67,0,0,1,1.12-2.29,5.77,5.77,0,0,1,3.41-.83h1.51v-.25a2.34,2.34,0,0,0-.43-1.57,1.65,1.65,0,0,0-1.3-.49,1.88,1.88,0,0,0-1.33.43,1.82,1.82,0,0,0-.49,1.27l-2.37-.35a3.21,3.21,0,0,1,1.23-2.51,4.68,4.68,0,0,1,3.06-.94,4.34,4.34,0,0,1,3.16,1,4.27,4.27,0,0,1,1.06,3.2v3.9Zm-3.64-1.94v-.07H75.22c-1.24,0-1.86.4-1.86,1.19a1,1,0,0,0,.4.84,1.72,1.72,0,0,0,1,.3,1.8,1.8,0,0,0,1.38-.6A2.36,2.36,0,0,0,76.75,53.88Z"/><path d="M90.8,47.91V58H88.27V56.51A3.06,3.06,0,0,1,87,57.75a3.54,3.54,0,0,1-1.77.43,3.1,3.1,0,0,1-2.44-1,4,4,0,0,1-.89-2.82V47.91h2.61v6A2.33,2.33,0,0,0,85,55.5a1.67,1.67,0,0,0,1.33.54,1.78,1.78,0,0,0,1.36-.54,2.17,2.17,0,0,0,.5-1.52V47.91Z"/><path d="M92.72,54.94l2.22-.31a1.7,1.7,0,0,0,.51,1.22,2.21,2.21,0,0,0,1.49.41A2.51,2.51,0,0,0,98.25,56a.88.88,0,0,0,.43-.79.78.78,0,0,0-.49-.77A8.41,8.41,0,0,0,96.58,54a13.68,13.68,0,0,1-1.85-.49,3.06,3.06,0,0,1-1.26-.9,2.68,2.68,0,0,1-.53-1.76A2.73,2.73,0,0,1,94,48.54a4.68,4.68,0,0,1,3-.85,4.34,4.34,0,0,1,2.81.84,3,3,0,0,1,1.11,2.32l-2.21.33a1.54,1.54,0,0,0-1.78-1.57,2,2,0,0,0-1.16.29.93.93,0,0,0-.41.77.81.81,0,0,0,.51.79,9.92,9.92,0,0,0,1.61.48,12.44,12.44,0,0,1,1.86.51,2.89,2.89,0,0,1,1.24.88,2.61,2.61,0,0,1,.52,1.73,2.75,2.75,0,0,1-1.1,2.28,5,5,0,0,1-3.07.84,4.91,4.91,0,0,1-3.06-.83A3.08,3.08,0,0,1,92.72,54.94Z"/><path d="M111.78,50a6.39,6.39,0,0,1,.48,2.6v.73a6.53,6.53,0,0,1-.49,2.61,3.81,3.81,0,0,1-1.39,1.7,3.67,3.67,0,0,1-2.08.59,2.94,2.94,0,0,1-2.66-1.34V62h-2.59V47.91h2.59v1.25a3.09,3.09,0,0,1,2.82-1.47,3.42,3.42,0,0,1,2,.58A3.85,3.85,0,0,1,111.78,50Zm-2.7.55a1.81,1.81,0,0,0-1.52-.71,1.79,1.79,0,0,0-1.5.71,3.48,3.48,0,0,0-.54,2.13v.61a3.51,3.51,0,0,0,.54,2.15,1.82,1.82,0,0,0,1.52.69,1.78,1.78,0,0,0,1.5-.7,3.49,3.49,0,0,0,.54-2.14v-.61A3.48,3.48,0,0,0,109.08,50.5Z"/><path d="M123.38,55.82V58h-3.24V55.69A3.06,3.06,0,0,1,119,57.53a3.39,3.39,0,0,1-2.14.65,3.28,3.28,0,0,1-2.3-.79,2.82,2.82,0,0,1-.86-2.17,2.67,2.67,0,0,1,1.12-2.29,5.75,5.75,0,0,1,3.41-.83h1.51v-.25a2.34,2.34,0,0,0-.43-1.57,1.66,1.66,0,0,0-1.31-.49,1.87,1.87,0,0,0-1.32.43,1.78,1.78,0,0,0-.49,1.27l-2.37-.35a3.23,3.23,0,0,1,1.22-2.51,4.73,4.73,0,0,1,3.07-.94,4.36,4.36,0,0,1,3.16,1,4.27,4.27,0,0,1,1.06,3.2v3.9Zm-3.63-1.94v-.07h-1.53c-1.24,0-1.86.4-1.86,1.19a1,1,0,0,0,.4.84,1.7,1.7,0,0,0,1,.3,1.83,1.83,0,0,0,1.38-.6A2.36,2.36,0,0,0,119.75,53.88Z"/><path d="M131,50.36h-.76a2.73,2.73,0,0,0-2,.63,2.66,2.66,0,0,0-.65,2v5h-2.59V47.91h2.53V50a3.14,3.14,0,0,1,1-1.56,2.58,2.58,0,0,1,1.65-.57H131Z"/><path d="M133.29,50.12h-1.41v-2h1.41v-.66q0-3.34,3.51-3.34h.94l.34,2.18h-1a1.17,1.17,0,0,0-.91.31,1.32,1.32,0,0,0-.29.94v.57h2.27v2H135.9V58h-2.61Z"/><path d="M148.5,47.91V58H146V56.51a3,3,0,0,1-1.22,1.24,3.58,3.58,0,0,1-1.78.43,3.13,3.13,0,0,1-2.44-1,4.09,4.09,0,0,1-.88-2.82V47.91h2.61v6a2.33,2.33,0,0,0,.47,1.56A1.65,1.65,0,0,0,144,56a1.75,1.75,0,0,0,1.36-.54,2.13,2.13,0,0,0,.5-1.52V47.91Z"/><path d="M150.54,53.3v-.71A5.56,5.56,0,0,1,151.1,50a4,4,0,0,1,1.59-1.71,4.7,4.7,0,0,1,2.4-.6,4.22,4.22,0,0,1,2.9,1,3.94,3.94,0,0,1,1.27,2.65l-2.21.35a2.16,2.16,0,0,0-.54-1.38,1.92,1.92,0,0,0-2.79.22,3.51,3.51,0,0,0-.55,2.14v.59a3.42,3.42,0,0,0,.56,2.14,1.81,1.81,0,0,0,1.48.7c1.16,0,1.78-.71,1.86-2.12l2.25.34a4.15,4.15,0,0,1-1.3,2.85,5,5,0,0,1-6.31-.21A5.12,5.12,0,0,1,150.54,53.3Z"/><path d="M170.06,51.51V58h-2.6v-6a2.31,2.31,0,0,0-.48-1.56,1.72,1.72,0,0,0-1.35-.55,1.75,1.75,0,0,0-1.36.55,2.18,2.18,0,0,0-.5,1.54v6h-2.6V44.1h2.6v3.22c0,.45,0,1.12,0,2A3.23,3.23,0,0,1,165,48.12a3.58,3.58,0,0,1,1.78-.43,3.07,3.07,0,0,1,2.43,1A4.18,4.18,0,0,1,170.06,51.51Z"/><path d="M171.85,54.94l2.23-.31a1.7,1.7,0,0,0,.51,1.22,2.19,2.19,0,0,0,1.49.41,2.54,2.54,0,0,0,1.31-.27.89.89,0,0,0,.42-.79.78.78,0,0,0-.49-.77,8.19,8.19,0,0,0-1.61-.47,14.1,14.1,0,0,1-1.85-.49,3,3,0,0,1-1.25-.9,2.62,2.62,0,0,1-.53-1.76,2.73,2.73,0,0,1,1.08-2.27,4.65,4.65,0,0,1,3-.85,4.39,4.39,0,0,1,2.82.84,3,3,0,0,1,1.1,2.32l-2.21.33a1.54,1.54,0,0,0-1.77-1.57,2,2,0,0,0-1.17.29.92.92,0,0,0-.4.77.81.81,0,0,0,.51.79,9.92,9.92,0,0,0,1.61.48,13.16,13.16,0,0,1,1.86.51,2.87,2.87,0,0,1,1.23.88,2.61,2.61,0,0,1,.52,1.73,2.72,2.72,0,0,1-1.1,2.28,4.93,4.93,0,0,1-3.06.84,4.87,4.87,0,0,1-3.06-.83A3.12,3.12,0,0,1,171.85,54.94Z"/><path d="M198.88,51.78Q198.36,53.83,197,58h-3l-1.43-7.39L190.94,58H188q-1.29-4.07-1.78-6.13a34.84,34.84,0,0,1-.75-3.92H188a70.48,70.48,0,0,0,1.49,7.54l1.72-7.54h2.82l1.55,7.46a72.46,72.46,0,0,0,1.55-7.46h2.47A29,29,0,0,1,198.88,51.78Z"/><path d="M210.07,47.91V58h-2.53V56.51a3.1,3.1,0,0,1-1.22,1.24,3.58,3.58,0,0,1-1.78.43,3.11,3.11,0,0,1-2.44-1,4.09,4.09,0,0,1-.89-2.82V47.91h2.62v6a2.32,2.32,0,0,0,.46,1.56,1.68,1.68,0,0,0,1.33.54A1.76,1.76,0,0,0,207,55.5a2.17,2.17,0,0,0,.5-1.52V47.91ZM202.13,45a1.22,1.22,0,0,1,.41-1,1.51,1.51,0,0,1,1-.36,1.44,1.44,0,0,1,1,.36,1.21,1.21,0,0,1,.4,1,1.23,1.23,0,0,1-.4,1,1.47,1.47,0,0,1-1,.34,1.54,1.54,0,0,1-1.05-.34A1.23,1.23,0,0,1,202.13,45Zm4.23,0a1.19,1.19,0,0,1,.41-1,1.48,1.48,0,0,1,1-.36,1.51,1.51,0,0,1,1,.36,1.22,1.22,0,0,1,.41,1,1.24,1.24,0,0,1-.41,1,1.55,1.55,0,0,1-1,.34,1.52,1.52,0,0,1-1-.35A1.21,1.21,0,0,1,206.36,45Z"/><path d="M221.57,51.51V58H219v-6a2.36,2.36,0,0,0-.47-1.56,2,2,0,0,0-2.72,0,2.23,2.23,0,0,0-.5,1.54v6h-2.59V47.91h2.53v1.45a3.06,3.06,0,0,1,1.23-1.24,3.7,3.7,0,0,1,1.81-.43,3.07,3.07,0,0,1,2.43,1A4.13,4.13,0,0,1,221.57,51.51Z"/><path d="M223.36,54.94l2.23-.31a1.7,1.7,0,0,0,.51,1.22,2.19,2.19,0,0,0,1.49.41A2.51,2.51,0,0,0,228.9,56a.9.9,0,0,0,.43-.79.8.8,0,0,0-.49-.77,8.56,8.56,0,0,0-1.62-.47,13.49,13.49,0,0,1-1.84-.49,2.94,2.94,0,0,1-1.26-.9,2.68,2.68,0,0,1-.53-1.76,2.73,2.73,0,0,1,1.08-2.27,4.65,4.65,0,0,1,3-.85,4.37,4.37,0,0,1,2.82.84,3,3,0,0,1,1.1,2.32l-2.2.33a1.54,1.54,0,0,0-1.78-1.57,2,2,0,0,0-1.16.29.9.9,0,0,0-.41.77.81.81,0,0,0,.51.79,9.92,9.92,0,0,0,1.61.48,13.16,13.16,0,0,1,1.86.51,2.81,2.81,0,0,1,1.23.88,2.61,2.61,0,0,1,.53,1.73,2.73,2.73,0,0,1-1.11,2.28,6,6,0,0,1-6.12,0A3.12,3.12,0,0,1,223.36,54.94Z"/><path d="M233.12,53.3v-.71a5.56,5.56,0,0,1,.57-2.59,4,4,0,0,1,1.59-1.71,4.65,4.65,0,0,1,2.4-.6,4.24,4.24,0,0,1,2.9,1,3.93,3.93,0,0,1,1.26,2.65l-2.2.35a2.16,2.16,0,0,0-.54-1.38,1.92,1.92,0,0,0-2.79.22,3.44,3.44,0,0,0-.55,2.14v.59a3.36,3.36,0,0,0,.56,2.14,1.79,1.79,0,0,0,1.48.7c1.16,0,1.78-.71,1.86-2.12l2.24.34a4.19,4.19,0,0,1-1.29,2.85,4.34,4.34,0,0,1-3,1,4.27,4.27,0,0,1-3.27-1.24A5.08,5.08,0,0,1,233.12,53.3Z"/><path d="M252.64,51.51V58h-2.59v-6a2.31,2.31,0,0,0-.48-1.56,1.73,1.73,0,0,0-1.36-.55,1.78,1.78,0,0,0-1.36.55,2.23,2.23,0,0,0-.5,1.54v6h-2.59V44.1h2.59v3.22c0,.45,0,1.12,0,2a3.25,3.25,0,0,1,1.25-1.22,3.57,3.57,0,0,1,1.77-.43,3,3,0,0,1,2.43,1A4.13,4.13,0,0,1,252.64,51.51Z"/><path d="M257.17,53.65a2.77,2.77,0,0,0,.62,1.81,2.09,2.09,0,0,0,1.61.62,1.82,1.82,0,0,0,2-1.53l2.37.49a3.93,3.93,0,0,1-1.46,2.29,5.57,5.57,0,0,1-6.46-.39,4.83,4.83,0,0,1-1.25-3.57v-.74a5.51,5.51,0,0,1,.58-2.6,4.28,4.28,0,0,1,1.64-1.73,4.68,4.68,0,0,1,2.42-.61A4.32,4.32,0,0,1,262.51,49a5.09,5.09,0,0,1,1.22,3.65v1Zm0-1.71h4a2.56,2.56,0,0,0-.62-1.59,2,2,0,0,0-2.77,0A2.5,2.5,0,0,0,257.2,51.94Z"/><path d="M274.59,51.51V58H272v-6a2.31,2.31,0,0,0-.48-1.56,1.73,1.73,0,0,0-1.36-.55,1.78,1.78,0,0,0-1.36.55,2.23,2.23,0,0,0-.5,1.54v6h-2.59V47.91h2.53v1.45a3,3,0,0,1,1.24-1.24,3.63,3.63,0,0,1,1.8-.43,3,3,0,0,1,2.43,1A4.13,4.13,0,0,1,274.59,51.51Z"/><path d="M59.28,82.46V69.6H62V82.46Z"/><path d="M73.61,76v6.45H71v-6a2.31,2.31,0,0,0-.47-1.55,1.93,1.93,0,0,0-2.72,0,2.18,2.18,0,0,0-.5,1.53v6H64.73V68.6h2.59v3.22c0,.45,0,1.13,0,2a3.23,3.23,0,0,1,1.24-1.22,3.58,3.58,0,0,1,1.78-.43,3.07,3.07,0,0,1,2.43,1A4.13,4.13,0,0,1,73.61,76Z"/><path d="M85,76v6.45H82.39v-6a2.27,2.27,0,0,0-.48-1.55,1.71,1.71,0,0,0-1.36-.56,1.76,1.76,0,0,0-1.36.56,2.18,2.18,0,0,0-.5,1.53v6H76.1v-10h2.53v1.45a3,3,0,0,1,1.24-1.24,3.63,3.63,0,0,1,1.8-.43,3,3,0,0,1,2.43,1A4.13,4.13,0,0,1,85,76Z"/><path d="M89.51,78.15A2.77,2.77,0,0,0,90.12,80a2.12,2.12,0,0,0,1.62.62,1.83,1.83,0,0,0,2-1.53l2.37.49a3.93,3.93,0,0,1-1.46,2.29,5.58,5.58,0,0,1-6.47-.39,4.83,4.83,0,0,1-1.24-3.57v-.74a5.51,5.51,0,0,1,.58-2.6,4.25,4.25,0,0,1,1.63-1.73,4.73,4.73,0,0,1,2.42-.61,4.33,4.33,0,0,1,3.32,1.29,5.09,5.09,0,0,1,1.22,3.65v1Zm0-1.71h4a2.5,2.5,0,0,0-.61-1.59,2,2,0,0,0-2.77,0A2.56,2.56,0,0,0,89.53,76.44Z"/><path d="M106.93,76v6.45h-2.6v-6a2.31,2.31,0,0,0-.47-1.55,1.71,1.71,0,0,0-1.36-.56,1.74,1.74,0,0,0-1.36.56,2.18,2.18,0,0,0-.5,1.53v6H98.05v-10h2.53v1.45a3.06,3.06,0,0,1,1.23-1.24,3.7,3.7,0,0,1,1.81-.43,3.05,3.05,0,0,1,2.43,1A4.13,4.13,0,0,1,106.93,76Z"/><path d="M113.83,82.46V69.6h8.23v2.16h-5.48v3.47h5.17v2.15h-5.17v5.08Z"/><path d="M129.75,74.86H129a2.72,2.72,0,0,0-2,.63,2.62,2.62,0,0,0-.65,2v5h-2.6v-10h2.53v2.13A3.09,3.09,0,0,1,127.38,73a2.58,2.58,0,0,1,1.64-.57h.73Z"/><path d="M130.59,77.85v-.76a5.28,5.28,0,0,1,.6-2.57,4.37,4.37,0,0,1,1.69-1.72,4.89,4.89,0,0,1,2.47-.61,4.56,4.56,0,0,1,3.4,1.27A4.9,4.9,0,0,1,140,77.05v.73a5.34,5.34,0,0,1-.59,2.58,4.23,4.23,0,0,1-1.67,1.71,4.94,4.94,0,0,1-2.49.61,4.58,4.58,0,0,1-3.39-1.26A4.82,4.82,0,0,1,130.59,77.85Zm6.76-.11v-.59A3.46,3.46,0,0,0,136.8,75a2,2,0,0,0-3,0,3.46,3.46,0,0,0-.55,2.15v.59a3.44,3.44,0,0,0,.55,2.15,2,2,0,0,0,3,0A3.42,3.42,0,0,0,137.35,77.74Z"/><path d="M150.91,76v6.45h-2.6v-6a2.27,2.27,0,0,0-.48-1.55,1.69,1.69,0,0,0-1.35-.56,1.73,1.73,0,0,0-1.36.56,2.14,2.14,0,0,0-.5,1.53v6H142V68.6h2.6v3.22c0,.45,0,1.13,0,2a3.16,3.16,0,0,1,1.24-1.22,3.58,3.58,0,0,1,1.78-.43,3.07,3.07,0,0,1,2.43,1A4.18,4.18,0,0,1,150.91,76Z"/><path d="M155.44,78.15a2.71,2.71,0,0,0,.61,1.81,2.09,2.09,0,0,0,1.61.62,1.81,1.81,0,0,0,2-1.53l2.37.49a3.88,3.88,0,0,1-1.46,2.29,5.57,5.57,0,0,1-6.46-.39,4.83,4.83,0,0,1-1.24-3.57v-.74a5.51,5.51,0,0,1,.58-2.6A4.19,4.19,0,0,1,155,72.8a4.7,4.7,0,0,1,2.42-.61,4.35,4.35,0,0,1,3.32,1.29A5.09,5.09,0,0,1,162,77.13v1Zm0-1.71h4a2.55,2.55,0,0,0-.61-1.59,2,2,0,0,0-2.78,0A2.55,2.55,0,0,0,155.46,76.44Z"/><path d="M168.47,79.81a7,7,0,0,1-.76-3.39v-.74a6.79,6.79,0,0,1,.79-3.36,5.41,5.41,0,0,1,2.19-2.18,6.7,6.7,0,0,1,3.25-.77,6.84,6.84,0,0,1,3.23.74,5.17,5.17,0,0,1,2.17,2.15,7.08,7.08,0,0,1,.76,3.4v.72a6.94,6.94,0,0,1-.77,3.35,5.37,5.37,0,0,1-2.19,2.19,6.74,6.74,0,0,1-3.26.76,6.85,6.85,0,0,1-3.24-.73A5.26,5.26,0,0,1,168.47,79.81Zm8.79-3.46v-.67a4.54,4.54,0,0,0-.93-3,3.22,3.22,0,0,0-4.84,0,4.51,4.51,0,0,0-.94,3v.68a4.49,4.49,0,0,0,.94,3,3,3,0,0,0,2.43,1.09,3,3,0,0,0,2.41-1.1A4.59,4.59,0,0,0,177.26,76.35Z"/><path d="M181.53,79.44l2.23-.31a1.63,1.63,0,0,0,.51,1.22,2.19,2.19,0,0,0,1.49.42,2.46,2.46,0,0,0,1.3-.28.88.88,0,0,0,.43-.79.78.78,0,0,0-.49-.77,8.19,8.19,0,0,0-1.61-.47,12.34,12.34,0,0,1-1.85-.49,3,3,0,0,1-1.25-.9,2.63,2.63,0,0,1-.54-1.76A2.74,2.74,0,0,1,182.84,73a4.63,4.63,0,0,1,3-.85,4.39,4.39,0,0,1,2.82.84,3,3,0,0,1,1.1,2.32l-2.21.33a1.54,1.54,0,0,0-1.77-1.57,1.94,1.94,0,0,0-1.17.3.9.9,0,0,0-.41.76.81.81,0,0,0,.51.79,9.79,9.79,0,0,0,1.62.48,13.16,13.16,0,0,1,1.86.51,2.93,2.93,0,0,1,1.23.88,2.63,2.63,0,0,1,.52,1.73,2.75,2.75,0,0,1-1.1,2.28,5,5,0,0,1-3.06.84,4.86,4.86,0,0,1-3.07-.83A3.12,3.12,0,0,1,181.53,79.44Z"/><path d="M193.11,81.83a2.91,2.91,0,0,1-.78-2.27V74.62h-1.55v-2h1.57V70.21h2.59V72.6h2.39v2h-2.39v4.53a1.29,1.29,0,0,0,.34,1,1.57,1.57,0,0,0,1.05.3h1L197,82.52h-1.39A3.6,3.6,0,0,1,193.11,81.83Z"/><path d="M201.07,78.15a2.77,2.77,0,0,0,.61,1.81,2.09,2.09,0,0,0,1.61.62,1.81,1.81,0,0,0,2-1.53l2.37.49a3.83,3.83,0,0,1-1.46,2.29,5.57,5.57,0,0,1-6.46-.39,4.83,4.83,0,0,1-1.24-3.57v-.74a5.51,5.51,0,0,1,.58-2.6,4.25,4.25,0,0,1,1.63-1.73,4.7,4.7,0,0,1,2.42-.61,4.35,4.35,0,0,1,3.32,1.29,5.09,5.09,0,0,1,1.21,3.65v1Zm0-1.71h4a2.55,2.55,0,0,0-.61-1.59,2,2,0,0,0-2.78,0A2.55,2.55,0,0,0,201.09,76.44Z"/><path d="M215.57,74.86h-.76a2.73,2.73,0,0,0-2,.63,2.66,2.66,0,0,0-.65,2v5h-2.6v-10h2.54v2.13A3,3,0,0,1,213.19,73a2.58,2.58,0,0,1,1.64-.57h.74Z"/><path d="M226.1,76v6.45h-2.59v-6a2.27,2.27,0,0,0-.48-1.55,1.7,1.7,0,0,0-1.36-.56,1.76,1.76,0,0,0-1.36.56,2.18,2.18,0,0,0-.5,1.53v6h-2.59v-10h2.53v1.45A3,3,0,0,1,221,72.62a3.63,3.63,0,0,1,1.8-.43,3,3,0,0,1,2.43,1A4.13,4.13,0,0,1,226.1,76Z"/></g></svg>