<svg xmlns="http://www.w3.org/2000/svg" viewBox="0 0 224 60"><g id="SVG"><path d="M2.81,13.94l1.6-.22q.07,2.4,2.7,2.4a2.67,2.67,0,0,0,1.72-.49,1.49,1.49,0,0,0,.62-1.24,1.33,1.33,0,0,0-.34-1,2.11,2.11,0,0,0-.86-.54,12,12,0,0,0-1.44-.41,15.3,15.3,0,0,1-1.92-.58,3.12,3.12,0,0,1-1.25-1,2.75,2.75,0,0,1-.52-1.78A3,3,0,0,1,3.6,7.52,3.43,3.43,0,0,1,5,6.33a4.91,4.91,0,0,1,2.15-.44,4.12,4.12,0,0,1,2.78.92A3.27,3.27,0,0,1,11,9.35l-1.6.23A2.2,2.2,0,0,0,8.76,7.9,2.45,2.45,0,0,0,7.1,7.35a2.44,2.44,0,0,0-1.61.49A1.57,1.57,0,0,0,4.9,9.08a1.32,1.32,0,0,0,.35.95,2.16,2.16,0,0,0,.87.55A13.65,13.65,0,0,0,7.58,11a12.76,12.76,0,0,1,1.89.58,3.05,3.05,0,0,1,1.25.95,2.72,2.72,0,0,1,.52,1.75,3,3,0,0,1-.5,1.67,3.38,3.38,0,0,1-1.45,1.18,5.16,5.16,0,0,1-2.23.45,4.66,4.66,0,0,1-3.12-1A3.38,3.38,0,0,1,2.81,13.94Z"/><path d="M12.89,13.34v-.63a4.86,4.86,0,0,1,.48-2.21A3.52,3.52,0,0,1,14.72,9a4,4,0,0,1,2-.52,3.56,3.56,0,0,1,2.45.82,3.3,3.3,0,0,1,1.08,2.21l-1.51.23a2.17,2.17,0,0,0-.57-1.36,1.87,1.87,0,0,0-1.41-.51,2,2,0,0,0-1.6.74,3.35,3.35,0,0,0-.6,2.16v.48a3.34,3.34,0,0,0,.6,2.17,2,2,0,0,0,1.6.73c1.26,0,1.94-.72,2.05-2.18l1.53.26a3.59,3.59,0,0,1-1.11,2.44,3.66,3.66,0,0,1-2.58.89,3.6,3.6,0,0,1-2.79-1.1A4.49,4.49,0,0,1,12.89,13.34Z"/><path d="M29.69,11.92V17.4H28V12.23a2.6,2.6,0,0,0-.5-1.72,1.81,1.81,0,0,0-1.44-.59,1.94,1.94,0,0,0-1.5.59A2.35,2.35,0,0,0,24,12.17V17.4H22.36V5.3H24V8.41c0,.71,0,1.24,0,1.59a2.72,2.72,0,0,1,1.08-1.1,3.08,3.08,0,0,1,1.59-.4,2.78,2.78,0,0,1,2.22.9A3.73,3.73,0,0,1,29.69,11.92Z"/><path d="M42.65,12.08c-.32,1.2-.85,3-1.61,5.32H39.1l-1.66-6.85L35.66,17.4H33.72C33,15,32.43,13.16,32.12,12a33.21,33.21,0,0,1-.67-3.29h1.62q.2,1.38.57,3c.24,1.09.61,2.52,1.1,4.3l1.89-7.3h1.73l1.78,7.28c.5-1.75.87-3.17,1.11-4.23s.44-2.09.59-3.05h1.54C43.21,9.73,43,10.87,42.65,12.08Z"/><path d="M52.8,16V17.4H50.31V15.27a2.78,2.78,0,0,1-1,1.71,3,3,0,0,1-1.9.6,2.92,2.92,0,0,1-2-.69,2.33,2.33,0,0,1-.76-1.83,2.45,2.45,0,0,1,.93-2,4.38,4.38,0,0,1,2.81-.77h1.75V12.1a2.44,2.44,0,0,0-.48-1.68,1.75,1.75,0,0,0-1.39-.53,2,2,0,0,0-1.42.46,1.89,1.89,0,0,0-.53,1.36l-1.55-.24a2.8,2.8,0,0,1,1-2.16A3.92,3.92,0,0,1,48.3,8.5a3.51,3.51,0,0,1,2.57.88,3.63,3.63,0,0,1,.88,2.67V16ZM45.7,6.23A.88.88,0,0,1,46,5.54a1,1,0,0,1,.72-.26,1,1,0,0,1,.7.26.9.9,0,0,1,.27.69.94.94,0,0,1-.27.7,1,1,0,0,1-.7.26A1,1,0,0,1,46,6.93.92.92,0,0,1,45.7,6.23Zm4.38,7.35v0H48.31a2.62,2.62,0,0,0-1.53.36,1.17,1.17,0,0,0-.48,1,1.21,1.21,0,0,0,.42,1,1.73,1.73,0,0,0,1.13.34,2.08,2.08,0,0,0,1.58-.68A2.79,2.79,0,0,0,50.08,13.58Zm-.9-7.35a.88.88,0,0,1,.28-.69,1,1,0,0,1,.71-.26,1,1,0,0,1,.71.26.88.88,0,0,1,.28.69.91.91,0,0,1-.28.7,1,1,0,0,1-.71.26,1,1,0,0,1-.71-.26A.91.91,0,0,1,49.18,6.23Z"/><path d="M62.18,12.7v.64a5.19,5.19,0,0,1-.45,2.23,3.3,3.3,0,0,1-1.24,1.48,3.34,3.34,0,0,1-1.88.53,2.63,2.63,0,0,1-2.48-1.39V17.4H54.47V5.3h1.67V9.91a2.86,2.86,0,0,1,1.08-1.05,3.12,3.12,0,0,1,1.53-.36,3.07,3.07,0,0,1,2.5,1.12A4.66,4.66,0,0,1,62.18,12.7Zm-2.3-2.08a2.15,2.15,0,0,0-3.23,0,3.3,3.3,0,0,0-.6,2.15v.54a3.27,3.27,0,0,0,.6,2.14,2,2,0,0,0,1.64.72,1.91,1.91,0,0,0,1.58-.73,3.26,3.26,0,0,0,.6-2.13v-.54A3.36,3.36,0,0,0,59.88,10.62Z"/><path d="M64.06,6.21a1,1,0,0,1,.31-.75,1.21,1.21,0,0,1,1.57,0,1,1,0,0,1,.3.75,1,1,0,0,1-.3.76,1.21,1.21,0,0,1-1.57,0A1,1,0,0,1,64.06,6.21Zm.26,11.19V8.66H66V17.4Z"/><path d="M68,14.8l1.5-.23a1.61,1.61,0,0,0,.54,1.25,2.43,2.43,0,0,0,1.58.42,2.62,2.62,0,0,0,1.38-.3,1,1,0,0,0,.48-.87A.91.91,0,0,0,73,14.2a7.18,7.18,0,0,0-1.63-.49,14.28,14.28,0,0,1-1.61-.45,2.5,2.5,0,0,1-1.06-.73,2.17,2.17,0,0,1-.44-1.44,2.28,2.28,0,0,1,.92-1.88,3.93,3.93,0,0,1,2.46-.71A3.65,3.65,0,0,1,74,9.21a2.58,2.58,0,0,1,.94,2l-1.49.24c-.06-1.08-.7-1.62-1.9-1.62a2.13,2.13,0,0,0-1.26.31,1,1,0,0,0-.45.87.91.91,0,0,0,.28.69,1.89,1.89,0,0,0,.7.38c.27.08.66.18,1.15.28a14.18,14.18,0,0,1,1.63.45,2.5,2.5,0,0,1,1.06.73A2.17,2.17,0,0,1,75.08,15a2.25,2.25,0,0,1-.93,1.89,4.14,4.14,0,0,1-2.54.7A4.2,4.2,0,0,1,69,16.85,2.59,2.59,0,0,1,68,14.8Z"/><path d="M76.65,13.34v-.63a4.86,4.86,0,0,1,.47-2.21A3.52,3.52,0,0,1,78.47,9a4,4,0,0,1,2-.52A3.55,3.55,0,0,1,83,9.32a3.26,3.26,0,0,1,1.09,2.21l-1.52.23A2.16,2.16,0,0,0,82,10.4a1.9,1.9,0,0,0-1.42-.51,1.93,1.93,0,0,0-1.59.74,3.35,3.35,0,0,0-.6,2.16v.48a3.34,3.34,0,0,0,.6,2.17,2,2,0,0,0,1.59.73c1.26,0,2-.72,2-2.18l1.54.26A3.63,3.63,0,0,1,83,16.69a3.69,3.69,0,0,1-2.59.89,3.63,3.63,0,0,1-2.79-1.1A4.49,4.49,0,0,1,76.65,13.34Z"/><path d="M93.44,11.92V17.4H91.77V12.23a2.54,2.54,0,0,0-.51-1.72,1.78,1.78,0,0,0-1.44-.59,1.94,1.94,0,0,0-1.49.59,2.35,2.35,0,0,0-.54,1.66V17.4H86.11V5.3h1.68V8.41c0,.71,0,1.24,0,1.59a2.7,2.7,0,0,1,1.07-1.1,3.08,3.08,0,0,1,1.59-.4,2.8,2.8,0,0,1,2.23.9A3.73,3.73,0,0,1,93.44,11.92Z"/><path d="M108,17.4v-5h-6v5h-1.76V6.05H102v4.86h6V6.05h1.77V17.4Z"/><path d="M120.19,16V17.4H117.7V15.27a2.78,2.78,0,0,1-1,1.71,3,3,0,0,1-1.9.6,2.92,2.92,0,0,1-2-.69,2.33,2.33,0,0,1-.76-1.83,2.43,2.43,0,0,1,.94-2,4.35,4.35,0,0,1,2.8-.77h1.75V12.1a2.44,2.44,0,0,0-.48-1.68,1.74,1.74,0,0,0-1.39-.53,2,2,0,0,0-1.42.46,1.89,1.89,0,0,0-.53,1.36l-1.55-.24a2.8,2.8,0,0,1,1-2.16,3.92,3.92,0,0,1,2.57-.81,3.51,3.51,0,0,1,2.57.88,3.63,3.63,0,0,1,.89,2.67V16Zm-2.72-2.41v0h-1.76a2.57,2.57,0,0,0-1.53.36,1.15,1.15,0,0,0-.49,1,1.21,1.21,0,0,0,.42,1,1.73,1.73,0,0,0,1.13.34,2.08,2.08,0,0,0,1.58-.68A2.79,2.79,0,0,0,117.47,13.58Z"/><path d="M121.86,17.4V5.3h1.68V17.4Z"/><path d="M126.2,17.4V5.3h1.67V17.4Z"/><path d="M141.75,8.66V17.4h-1.64V16.06A2.82,2.82,0,0,1,139,17.18a3,3,0,0,1-1.54.4,2.81,2.81,0,0,1-2.23-.9,3.68,3.68,0,0,1-.79-2.52V8.66h1.67v5.19a2.57,2.57,0,0,0,.5,1.7,1.78,1.78,0,0,0,1.43.59,1.93,1.93,0,0,0,1.47-.58,2.4,2.4,0,0,0,.53-1.68V8.66Z"/><path d="M151.74,11.92V17.4h-1.67V12.23a2.54,2.54,0,0,0-.51-1.72,1.78,1.78,0,0,0-1.44-.59,1.94,1.94,0,0,0-1.49.59,2.35,2.35,0,0,0-.54,1.66V17.4h-1.68V8.66h1.66V10a2.76,2.76,0,0,1,1.08-1.09,3.18,3.18,0,0,1,1.59-.39,2.78,2.78,0,0,1,2.22.9A3.73,3.73,0,0,1,151.74,11.92Z"/><path d="M161.48,5.3V17.4h-1.67V16.14a2.78,2.78,0,0,1-2.62,1.44,3.06,3.06,0,0,1-2.48-1.13,4.71,4.71,0,0,1-.94-3.09v-.63a4.62,4.62,0,0,1,1-3.08,3.21,3.21,0,0,1,2.58-1.15,2.66,2.66,0,0,1,2.49,1.37V5.3Zm-1.6,8v-.54a3.36,3.36,0,0,0-.59-2.15,2,2,0,0,0-1.63-.73,1.92,1.92,0,0,0-1.59.73,3.36,3.36,0,0,0-.59,2.15v.54a3.33,3.33,0,0,0,.59,2.14,2,2,0,0,0,1.63.72,1.92,1.92,0,0,0,1.59-.73A3.32,3.32,0,0,0,159.88,13.31Z"/><path d="M175.38,5.3V17.4H173.7V16.14a2.77,2.77,0,0,1-2.61,1.44,3.06,3.06,0,0,1-2.48-1.13,4.66,4.66,0,0,1-.94-3.09v-.63a4.67,4.67,0,0,1,1-3.08,3.23,3.23,0,0,1,2.59-1.15,2.63,2.63,0,0,1,2.48,1.37V5.3Zm-1.61,8v-.54a3.36,3.36,0,0,0-.58-2.15,2,2,0,0,0-1.63-.73,1.92,1.92,0,0,0-1.59.73,3.36,3.36,0,0,0-.59,2.15v.54a3.33,3.33,0,0,0,.59,2.14,2,2,0,0,0,1.62.72,1.93,1.93,0,0,0,1.6-.73A3.32,3.32,0,0,0,173.77,13.31Z"/><path d="M179.21,13.4a3.06,3.06,0,0,0,.62,2.07,2.25,2.25,0,0,0,1.79.7,2.11,2.11,0,0,0,1.39-.45,1.92,1.92,0,0,0,.66-1.22l1.55.29a3.05,3.05,0,0,1-1.15,2,3.86,3.86,0,0,1-2.52.8,3.94,3.94,0,0,1-3-1.1,4.31,4.31,0,0,1-1-3.1v-.65a4.9,4.9,0,0,1,.48-2.22A3.59,3.59,0,0,1,179.37,9a4,4,0,0,1,2-.52,3.63,3.63,0,0,1,2.81,1.11,4.4,4.4,0,0,1,1,3.12v.67Zm0-1.23h4.35a2.74,2.74,0,0,0-.69-1.71,2,2,0,0,0-1.49-.59,2,2,0,0,0-1.49.59A2.79,2.79,0,0,0,179.23,12.17Z"/><path d="M192.13,10.25h-.65c-1.62,0-2.43.84-2.43,2.54V17.4h-1.67V8.66H189v1.77a2.67,2.67,0,0,1,1-1.32,2.55,2.55,0,0,1,1.49-.45h.63Z"/><path d="M11.72,33.77v.11a2.8,2.8,0,0,1-1.06,2.31,4.41,4.41,0,0,1-2.84.86H3.57V25.7H7.8a4.25,4.25,0,0,1,2.73.8,2.63,2.63,0,0,1,1,2.16v.12A2.31,2.31,0,0,1,11,30.22a3,3,0,0,1-1.41,1,2.81,2.81,0,0,1,1.57.94A2.55,2.55,0,0,1,11.72,33.77ZM5.29,30.64H7.62a2.46,2.46,0,0,0,1.56-.46,1.57,1.57,0,0,0,.58-1.31v-.05a1.58,1.58,0,0,0-.58-1.31,2.46,2.46,0,0,0-1.56-.46H5.29Zm4.08,1.77a2.61,2.61,0,0,0-1.68-.49H5.29V35.7h2.4a2.62,2.62,0,0,0,1.67-.5A1.63,1.63,0,0,0,10,33.84v-.07A1.62,1.62,0,0,0,9.37,32.41Z"/><path d="M21.66,35.64v1.41H19.17V34.92a2.78,2.78,0,0,1-1,1.71,3,3,0,0,1-1.9.6,2.92,2.92,0,0,1-2-.69,2.31,2.31,0,0,1-.76-1.83,2.47,2.47,0,0,1,.93-2A4.38,4.38,0,0,1,17.19,32h1.75v-.22a2.46,2.46,0,0,0-.48-1.68,1.79,1.79,0,0,0-1.39-.53,2,2,0,0,0-1.42.46,1.89,1.89,0,0,0-.53,1.36l-1.55-.24a2.8,2.8,0,0,1,1-2.16,3.92,3.92,0,0,1,2.57-.81,3.47,3.47,0,0,1,2.57.89,3.59,3.59,0,0,1,.88,2.66v3.94Zm-2.72-2.41v0H17.18a2.63,2.63,0,0,0-1.54.36,1.17,1.17,0,0,0-.48,1,1.18,1.18,0,0,0,.42,1,1.73,1.73,0,0,0,1.13.35,2.08,2.08,0,0,0,1.58-.69A2.78,2.78,0,0,0,18.94,33.23Z"/><path d="M30.5,28.32v8.73H28.86V35.72a2.86,2.86,0,0,1-1.07,1.11,3,3,0,0,1-1.54.4,2.84,2.84,0,0,1-2.24-.9,3.73,3.73,0,0,1-.79-2.52V28.32H24.9V33.5a2.55,2.55,0,0,0,.49,1.7,1.78,1.78,0,0,0,1.43.59,1.87,1.87,0,0,0,1.47-.58,2.39,2.39,0,0,0,.53-1.67V28.32Z"/><path d="M32.53,34.46,34,34.22a1.68,1.68,0,0,0,.54,1.25,2.48,2.48,0,0,0,1.59.43,2.55,2.55,0,0,0,1.37-.31,1,1,0,0,0,.48-.86.91.91,0,0,0-.52-.88,7.23,7.23,0,0,0-1.62-.49,13.94,13.94,0,0,1-1.61-.44,2.55,2.55,0,0,1-1.07-.74,2.14,2.14,0,0,1-.44-1.43,2.29,2.29,0,0,1,.92-1.89,4,4,0,0,1,2.47-.71,3.69,3.69,0,0,1,2.36.71,2.54,2.54,0,0,1,.93,2l-1.49.24q-.09-1.62-1.89-1.62a2.17,2.17,0,0,0-1.27.31,1,1,0,0,0-.44.88.87.87,0,0,0,.28.68,1.77,1.77,0,0,0,.69.38c.28.08.66.18,1.15.29a12.14,12.14,0,0,1,1.63.44,2.38,2.38,0,0,1,1.06.74,2.08,2.08,0,0,1,.45,1.43,2.25,2.25,0,0,1-.93,1.89,4.13,4.13,0,0,1-2.55.7,4.2,4.2,0,0,1-2.61-.71A2.57,2.57,0,0,1,32.53,34.46Z"/><path d="M49.38,32.35V33A5.49,5.49,0,0,1,49,35.22a3.28,3.28,0,0,1-3.12,2,2.63,2.63,0,0,1-2.48-1.37v4.72H41.67V28.32h1.68v1.26A2.8,2.8,0,0,1,46,28.15a3.09,3.09,0,0,1,2.49,1.12A4.66,4.66,0,0,1,49.38,32.35Zm-2.3-2.08a2,2,0,0,0-1.63-.73,1.92,1.92,0,0,0-1.59.73,3.36,3.36,0,0,0-.59,2.15V33a3.33,3.33,0,0,0,.59,2.14,2,2,0,0,0,1.63.72,1.92,1.92,0,0,0,1.59-.73A3.32,3.32,0,0,0,47.67,33v-.54A3.36,3.36,0,0,0,47.08,30.27Z"/><path d="M59.19,35.64v1.41H56.7V34.92a2.82,2.82,0,0,1-1,1.71,3,3,0,0,1-1.9.6,2.92,2.92,0,0,1-2-.69A2.31,2.31,0,0,1,51,34.71a2.47,2.47,0,0,1,.93-2A4.38,4.38,0,0,1,54.72,32h1.75v-.22A2.46,2.46,0,0,0,56,30.07a1.79,1.79,0,0,0-1.39-.53,2,2,0,0,0-1.42.46,1.89,1.89,0,0,0-.53,1.36l-1.55-.24a2.8,2.8,0,0,1,1-2.16,3.9,3.9,0,0,1,2.57-.81,3.49,3.49,0,0,1,2.57.89,3.59,3.59,0,0,1,.88,2.66v3.94Zm-2.72-2.41v0H54.7a2.62,2.62,0,0,0-1.53.36,1.17,1.17,0,0,0-.48,1,1.18,1.18,0,0,0,.42,1,1.73,1.73,0,0,0,1.13.35,2.08,2.08,0,0,0,1.58-.69A2.78,2.78,0,0,0,56.47,33.23Z"/><path d="M65.61,29.9H65c-1.62,0-2.43.85-2.43,2.54v4.61H60.86V28.32h1.66v1.76a2.64,2.64,0,0,1,1-1.31A2.55,2.55,0,0,1,65,28.32h.63Z"/><path d="M67.9,29.79H66.46V28.44H67.9v-.68c0-1.88.95-2.81,2.84-2.81h.81l.24,1.42h-.9a1.28,1.28,0,0,0-1,.33,1.59,1.59,0,0,0-.3,1.07v.67h2.34v1.35H69.59v7.26H67.9Z"/><path d="M80.73,28.32v8.73H79.09V35.72A2.79,2.79,0,0,1,78,36.83a2.92,2.92,0,0,1-1.54.4,2.81,2.81,0,0,1-2.23-.9,3.68,3.68,0,0,1-.79-2.52V28.32h1.67V33.5a2.55,2.55,0,0,0,.5,1.7,1.78,1.78,0,0,0,1.43.59,1.9,1.9,0,0,0,1.47-.58,2.39,2.39,0,0,0,.53-1.67V28.32Z"/><path d="M82.87,33v-.63a4.9,4.9,0,0,1,.48-2.22,3.5,3.5,0,0,1,1.35-1.47,3.87,3.87,0,0,1,2-.53,3.61,3.61,0,0,1,2.45.82,3.21,3.21,0,0,1,1.08,2.21l-1.51.23a2.2,2.2,0,0,0-.57-1.36,1.87,1.87,0,0,0-1.41-.51,2,2,0,0,0-1.59.74,3.29,3.29,0,0,0-.61,2.16v.48a3.29,3.29,0,0,0,.61,2.17,2,2,0,0,0,1.59.73c1.26,0,1.94-.72,2-2.17l1.53.25a3.59,3.59,0,0,1-1.11,2.45,3.7,3.7,0,0,1-2.58.88,3.6,3.6,0,0,1-2.79-1.1A4.48,4.48,0,0,1,82.87,33Z"/><path d="M99.67,31.57v5.48H98V31.88a2.54,2.54,0,0,0-.5-1.72,1.81,1.81,0,0,0-1.44-.58,1.94,1.94,0,0,0-1.5.58A2.38,2.38,0,0,0,94,31.83v5.22H92.34V25H94v3.11c0,.71,0,1.24,0,1.59a2.7,2.7,0,0,1,1.07-1.1,3.18,3.18,0,0,1,1.59-.4,2.78,2.78,0,0,1,2.22.9A3.68,3.68,0,0,1,99.67,31.57Z"/><path d="M101.59,34.46l1.5-.24a1.61,1.61,0,0,0,.54,1.25,2.43,2.43,0,0,0,1.58.43,2.61,2.61,0,0,0,1.38-.31,1,1,0,0,0,.47-.86.91.91,0,0,0-.52-.88,7.23,7.23,0,0,0-1.62-.49,14.53,14.53,0,0,1-1.61-.44,2.52,2.52,0,0,1-1.06-.74,2.09,2.09,0,0,1-.44-1.43,2.27,2.27,0,0,1,.92-1.89,3.93,3.93,0,0,1,2.46-.71,3.67,3.67,0,0,1,2.36.71,2.58,2.58,0,0,1,.94,2l-1.5.24q-.09-1.62-1.89-1.62a2.19,2.19,0,0,0-1.27.31,1,1,0,0,0-.44.88.87.87,0,0,0,.28.68,1.92,1.92,0,0,0,.69.38c.28.08.66.18,1.16.29a12.57,12.57,0,0,1,1.63.44,2.5,2.5,0,0,1,1.06.74,2.13,2.13,0,0,1,.44,1.43,2.25,2.25,0,0,1-.93,1.89,4.13,4.13,0,0,1-2.55.7,4.24,4.24,0,0,1-2.61-.71A2.6,2.6,0,0,1,101.59,34.46Z"/><path d="M125.19,31.73c-.31,1.2-.84,3-1.6,5.32h-1.94L120,30.21l-1.78,6.84h-1.95c-.75-2.43-1.29-4.24-1.59-5.45a33.31,33.31,0,0,1-.68-3.28h1.62c.14.91.32,1.91.57,3s.62,2.52,1.11,4.3l1.89-7.29h1.73l1.78,7.27q.74-2.62,1.11-4.23c.24-1.07.44-2.08.58-3h1.55C125.75,29.38,125.5,30.52,125.19,31.73Z"/><path d="M134.93,28.32v8.73h-1.64V35.72a2.79,2.79,0,0,1-1.07,1.11,2.92,2.92,0,0,1-1.54.4,2.81,2.81,0,0,1-2.23-.9,3.68,3.68,0,0,1-.79-2.52V28.32h1.67V33.5a2.55,2.55,0,0,0,.49,1.7,1.78,1.78,0,0,0,1.44.59,1.86,1.86,0,0,0,1.46-.58,2.34,2.34,0,0,0,.53-1.67V28.32Zm-6.32-2.44a.91.91,0,0,1,.29-.69,1,1,0,0,1,.72-.26,1,1,0,0,1,.7.26,1,1,0,0,1,0,1.39,1,1,0,0,1-.7.26,1,1,0,0,1-.72-.26A.92.92,0,0,1,128.61,25.88Zm3.47,0a.94.94,0,0,1,.28-.69,1.11,1.11,0,0,1,1.43,0,1,1,0,0,1,0,1.39,1.11,1.11,0,0,1-1.43,0A1,1,0,0,1,132.08,25.88Z"/><path d="M144.92,31.57v5.48h-1.68V31.88a2.54,2.54,0,0,0-.5-1.72,1.81,1.81,0,0,0-1.44-.58,1.91,1.91,0,0,0-1.49.58,2.38,2.38,0,0,0-.54,1.67v5.22h-1.68V28.32h1.66v1.31a2.76,2.76,0,0,1,1.08-1.09,3.11,3.11,0,0,1,1.58-.39,2.81,2.81,0,0,1,2.23.9A3.73,3.73,0,0,1,144.92,31.57Z"/><path d="M146.84,34.46l1.5-.24a1.61,1.61,0,0,0,.54,1.25,2.43,2.43,0,0,0,1.58.43,2.61,2.61,0,0,0,1.38-.31,1,1,0,0,0,.48-.86.92.92,0,0,0-.53-.88,6.9,6.9,0,0,0-1.62-.49,14.53,14.53,0,0,1-1.61-.44,2.52,2.52,0,0,1-1.06-.74,2.14,2.14,0,0,1-.44-1.43,2.27,2.27,0,0,1,.92-1.89,3.93,3.93,0,0,1,2.46-.71,3.67,3.67,0,0,1,2.36.71,2.58,2.58,0,0,1,.94,2l-1.5.24q-.09-1.62-1.89-1.62a2.19,2.19,0,0,0-1.27.31,1,1,0,0,0-.44.88.9.9,0,0,0,.28.68,1.89,1.89,0,0,0,.7.38c.27.08.66.18,1.15.29a12.57,12.57,0,0,1,1.63.44,2.44,2.44,0,0,1,1.06.74,2.13,2.13,0,0,1,.44,1.43,2.25,2.25,0,0,1-.93,1.89,4.1,4.1,0,0,1-2.54.7,4.25,4.25,0,0,1-2.62-.71A2.6,2.6,0,0,1,146.84,34.46Z"/><path d="M155.46,33v-.63a4.9,4.9,0,0,1,.48-2.22,3.5,3.5,0,0,1,1.35-1.47,3.9,3.9,0,0,1,2-.53,3.61,3.61,0,0,1,2.45.82,3.21,3.21,0,0,1,1.08,2.21l-1.51.23a2.2,2.2,0,0,0-.57-1.36,1.87,1.87,0,0,0-1.41-.51,2,2,0,0,0-1.59.74,3.35,3.35,0,0,0-.61,2.16v.48a3.34,3.34,0,0,0,.61,2.17,2,2,0,0,0,1.59.73c1.26,0,1.95-.72,2-2.17l1.53.25a3.62,3.62,0,0,1-1.1,2.45,3.74,3.74,0,0,1-2.59.88,3.6,3.6,0,0,1-2.79-1.1A4.48,4.48,0,0,1,155.46,33Z"/><path d="M172.26,31.57v5.48h-1.67V31.88a2.54,2.54,0,0,0-.51-1.72,1.78,1.78,0,0,0-1.44-.58,1.91,1.91,0,0,0-1.49.58,2.38,2.38,0,0,0-.54,1.67v5.22h-1.68V25h1.68v3.11c0,.71,0,1.24,0,1.59a2.7,2.7,0,0,1,1.07-1.1,3.18,3.18,0,0,1,1.59-.4,2.81,2.81,0,0,1,2.23.9A3.73,3.73,0,0,1,172.26,31.57Z"/><path d="M176,33.05a3,3,0,0,0,.63,2.07,2.25,2.25,0,0,0,1.79.7,2.08,2.08,0,0,0,1.38-.45,1.9,1.9,0,0,0,.67-1.22l1.55.29a3.14,3.14,0,0,1-1.15,2,4.52,4.52,0,0,1-5.51-.31,4.29,4.29,0,0,1-1.05-3.1v-.65a4.78,4.78,0,0,1,.49-2.22,3.45,3.45,0,0,1,1.37-1.48,3.91,3.91,0,0,1,2-.53A3.65,3.65,0,0,1,181,29.26a4.44,4.44,0,0,1,1,3.12v.67Zm0-1.22h4.36a2.69,2.69,0,0,0-.69-1.71,2,2,0,0,0-1.49-.6,2,2,0,0,0-1.49.6A2.69,2.69,0,0,0,176,31.83Z"/><path d="M191.48,31.57v5.48h-1.67V31.88a2.54,2.54,0,0,0-.51-1.72,1.77,1.77,0,0,0-1.43-.58,1.94,1.94,0,0,0-1.5.58,2.38,2.38,0,0,0-.54,1.67v5.22h-1.67V28.32h1.65v1.31a2.9,2.9,0,0,1,1.08-1.09,3.18,3.18,0,0,1,1.59-.39,2.78,2.78,0,0,1,2.22.9A3.73,3.73,0,0,1,191.48,31.57Z"/><path d="M3.57,56.7V45.36H5.33V56.7Z"/><path d="M15.43,51.23V56.7H13.76V51.53a2.56,2.56,0,0,0-.51-1.72,1.78,1.78,0,0,0-1.44-.58,1.93,1.93,0,0,0-1.49.58,2.38,2.38,0,0,0-.54,1.67V56.7H8.1V44.6H9.78v3.11c0,.71,0,1.24,0,1.59a2.76,2.76,0,0,1,1.07-1.1,3.18,3.18,0,0,1,1.59-.39,2.78,2.78,0,0,1,2.23.9A3.73,3.73,0,0,1,15.43,51.23Z"/><path d="M25.31,51.23V56.7H23.64V51.53a2.56,2.56,0,0,0-.51-1.72,1.78,1.78,0,0,0-1.44-.58,1.93,1.93,0,0,0-1.49.58,2.38,2.38,0,0,0-.54,1.67V56.7H18V48h1.66v1.31a2.83,2.83,0,0,1,1.08-1.09,3.17,3.17,0,0,1,1.59-.38,2.75,2.75,0,0,1,2.22.9A3.73,3.73,0,0,1,25.31,51.23Z"/><path d="M29,52.7a3,3,0,0,0,.62,2.07,2.25,2.25,0,0,0,1.79.71A2.11,2.11,0,0,0,32.84,55a1.92,1.92,0,0,0,.66-1.23l1.55.29a3.1,3.1,0,0,1-1.15,2,3.86,3.86,0,0,1-2.52.79,3.93,3.93,0,0,1-3-1.1,4.29,4.29,0,0,1-1.05-3.1V52a5,5,0,0,1,.49-2.23,3.5,3.5,0,0,1,1.37-1.48,3.93,3.93,0,0,1,2.05-.52,3.62,3.62,0,0,1,2.81,1.1,4.45,4.45,0,0,1,1,3.13v.66Zm0-1.22h4.36a2.69,2.69,0,0,0-.69-1.71,2,2,0,0,0-1.49-.6,2,2,0,0,0-1.49.6A2.74,2.74,0,0,0,29.05,51.48Z"/><path d="M44.54,51.23V56.7H42.86V51.53a2.61,2.61,0,0,0-.5-1.72,1.81,1.81,0,0,0-1.44-.58,1.94,1.94,0,0,0-1.5.58,2.38,2.38,0,0,0-.54,1.67V56.7H37.21V48h1.65v1.31a2.9,2.9,0,0,1,1.08-1.09,3.17,3.17,0,0,1,1.59-.38,2.75,2.75,0,0,1,2.22.9A3.73,3.73,0,0,1,44.54,51.23Z"/><path d="M51.37,56.7V45.36h6.9V46.8H53.14v3.65H58v1.44H53.14V56.7Z"/><path d="M64.84,49.55h-.65c-1.62,0-2.43.85-2.43,2.54V56.7H60.09V48h1.65v1.76a2.75,2.75,0,0,1,1-1.31,2.6,2.6,0,0,1,1.5-.45h.63Z"/><path d="M65.81,52.67V52a4.85,4.85,0,0,1,.49-2.23,3.47,3.47,0,0,1,1.38-1.48,4.08,4.08,0,0,1,2.09-.52,3.73,3.73,0,0,1,2.85,1.1,4.36,4.36,0,0,1,1,3.09v.65a4.71,4.71,0,0,1-.49,2.21,3.73,3.73,0,0,1-1.4,1.49,4.08,4.08,0,0,1-2.09.53,3.71,3.71,0,0,1-2.83-1.11A4.37,4.37,0,0,1,65.81,52.67ZM72,52.58v-.49a3.36,3.36,0,0,0-.6-2.17,2.16,2.16,0,0,0-3.24,0,3.36,3.36,0,0,0-.61,2.17v.49a3.36,3.36,0,0,0,.61,2.17,2.16,2.16,0,0,0,3.24,0A3.36,3.36,0,0,0,72,52.58Z"/><path d="M83.11,51.23V56.7H81.44V51.53a2.56,2.56,0,0,0-.51-1.72,1.79,1.79,0,0,0-1.44-.58,1.91,1.91,0,0,0-1.49.58,2.38,2.38,0,0,0-.54,1.67V56.7H75.78V44.6h1.68v3.11c0,.71,0,1.24,0,1.59a2.76,2.76,0,0,1,1.07-1.1,3.18,3.18,0,0,1,1.59-.39,2.78,2.78,0,0,1,2.23.9A3.73,3.73,0,0,1,83.11,51.23Z"/><path d="M86.83,52.7a3,3,0,0,0,.63,2.07,2.25,2.25,0,0,0,1.79.71A2.08,2.08,0,0,0,90.63,55a1.93,1.93,0,0,0,.67-1.23l1.55.29a3.14,3.14,0,0,1-1.15,2,3.87,3.87,0,0,1-2.53.79,3.92,3.92,0,0,1-3-1.1,4.29,4.29,0,0,1-1-3.1V52a4.85,4.85,0,0,1,.49-2.23A3.5,3.5,0,0,1,87,48.33a3.91,3.91,0,0,1,2-.52,3.64,3.64,0,0,1,2.81,1.1,4.45,4.45,0,0,1,1,3.13v.66Zm0-1.22h4.36a2.69,2.69,0,0,0-.69-1.71,2,2,0,0,0-1.49-.6,2,2,0,0,0-1.49.6A2.69,2.69,0,0,0,86.85,51.48Z"/><path d="M99.32,54.3a6.44,6.44,0,0,1-.64-3v-.59a6.33,6.33,0,0,1,.65-2.93,4.59,4.59,0,0,1,1.86-1.94,6,6,0,0,1,5.54,0,4.39,4.39,0,0,1,1.82,1.92,6.31,6.31,0,0,1,.64,2.94v.61a6.25,6.25,0,0,1-.66,2.94,4.54,4.54,0,0,1-1.85,1.93,5.59,5.59,0,0,1-2.78.68,5.49,5.49,0,0,1-2.77-.67A4.46,4.46,0,0,1,99.32,54.3Zm7.61-.79a5,5,0,0,0,.44-2.21v-.54a5.2,5.2,0,0,0-.43-2.2,3.18,3.18,0,0,0-3-1.93,3.35,3.35,0,0,0-1.81.5,3.29,3.29,0,0,0-1.21,1.43,5.23,5.23,0,0,0-.43,2.22v.54a5,5,0,0,0,.44,2.19,3.25,3.25,0,0,0,1.22,1.43,3.3,3.3,0,0,0,1.79.5,3.26,3.26,0,0,0,1.79-.5A3.3,3.3,0,0,0,106.93,53.51Z"/><path d="M110.81,54.11l1.49-.24a1.68,1.68,0,0,0,.54,1.25,2.42,2.42,0,0,0,1.59.43,2.52,2.52,0,0,0,1.38-.31,1,1,0,0,0,.47-.86.91.91,0,0,0-.52-.88,7.23,7.23,0,0,0-1.62-.49,13.94,13.94,0,0,1-1.61-.44,2.46,2.46,0,0,1-1.06-.74A2.1,2.1,0,0,1,111,50.4a2.26,2.26,0,0,1,.92-1.88,3.92,3.92,0,0,1,2.47-.71,3.63,3.63,0,0,1,2.36.71,2.51,2.51,0,0,1,.93,2l-1.49.23q-.09-1.62-1.89-1.62a2.17,2.17,0,0,0-1.27.31,1,1,0,0,0-.44.88.85.85,0,0,0,.28.68,1.71,1.71,0,0,0,.69.38c.28.08.66.18,1.15.29a11.73,11.73,0,0,1,1.63.44,2.55,2.55,0,0,1,1.07.74,2.14,2.14,0,0,1,.44,1.43,2.25,2.25,0,0,1-.93,1.89,4.13,4.13,0,0,1-2.55.7,4.2,4.2,0,0,1-2.61-.71A2.54,2.54,0,0,1,110.81,54.11Z"/><path d="M121,56.21a2.31,2.31,0,0,1-.64-1.81v-5h-1.48V48.09h1.49V45.93h1.68v2.16h2.36v1.35h-2.36v4.68a1.32,1.32,0,0,0,.32,1,1.53,1.53,0,0,0,1.05.3h.95l-.25,1.37H123A2.92,2.92,0,0,1,121,56.21Z"/><path d="M127.3,52.7a3,3,0,0,0,.62,2.07,2.25,2.25,0,0,0,1.79.71A2.11,2.11,0,0,0,131.1,55a1.92,1.92,0,0,0,.66-1.23l1.55.29a3.1,3.1,0,0,1-1.15,2,3.86,3.86,0,0,1-2.52.79,3.93,3.93,0,0,1-3-1.1,4.29,4.29,0,0,1-1.05-3.1V52a5,5,0,0,1,.49-2.23,3.5,3.5,0,0,1,1.37-1.48,3.93,3.93,0,0,1,2-.52,3.62,3.62,0,0,1,2.81,1.1,4.45,4.45,0,0,1,1,3.13v.66Zm0-1.22h4.36a2.69,2.69,0,0,0-.69-1.71,2,2,0,0,0-1.49-.6,2,2,0,0,0-1.49.6A2.74,2.74,0,0,0,127.31,51.48Z"/><path d="M140.22,49.55h-.65c-1.62,0-2.43.85-2.43,2.54V56.7h-1.67V48h1.65v1.76a2.76,2.76,0,0,1,1-1.31,2.55,2.55,0,0,1,1.49-.45h.63Z"/><path d="M149.26,51.23V56.7h-1.68V51.53a2.56,2.56,0,0,0-.5-1.72,1.81,1.81,0,0,0-1.44-.58,1.94,1.94,0,0,0-1.5.58,2.38,2.38,0,0,0-.54,1.67V56.7h-1.67V48h1.66v1.31a2.76,2.76,0,0,1,1.08-1.09,3.11,3.11,0,0,1,1.58-.38,2.78,2.78,0,0,1,2.23.9A3.73,3.73,0,0,1,149.26,51.23Z"/></g></svg>