<svg xmlns="http://www.w3.org/2000/svg" viewBox="0 0 367 45"><defs><style>.cls-1{fill:#fff02d;}.cls-2{fill:#e6002d;}</style></defs><g id="SVG"><polygon class="cls-1" points="6.11 4 6.11 40.04 74.33 40.04 74.33 4 6.11 4"/><polygon class="cls-2" points="27.35 7.86 40.22 7.86 53.09 7.86 53.09 15.59 27.35 15.59 27.35 7.86"/><polygon class="cls-2" points="27.35 28.46 40.22 28.46 53.09 28.46 53.09 36.18 27.35 36.18 27.35 28.46"/><polygon class="cls-2" points="41.51 18.16 53.73 18.16 65.96 18.16 65.96 25.88 41.51 25.88 41.51 18.16"/><polygon class="cls-2" points="14.47 18.16 26.7 18.16 38.93 18.16 38.93 25.88 14.47 25.88 14.47 18.16"/><path d="M85.77,34.35A8,8,0,0,1,83,28.05l4.88-.67a4.46,4.46,0,0,0,1.5,3.55,6.36,6.36,0,0,0,4,1.12,5.66,5.66,0,0,0,3.35-.85A2.65,2.65,0,0,0,98,29a2.21,2.21,0,0,0-.73-1.71,5.15,5.15,0,0,0-1.81-1.05c-.73-.25-1.73-.53-3-.83A31.59,31.59,0,0,1,87.88,24a7.7,7.7,0,0,1-3-2.27,6.41,6.41,0,0,1-1.27-4.21,7,7,0,0,1,1.23-4.05,8.12,8.12,0,0,1,3.51-2.81,12.73,12.73,0,0,1,5.31-1,10.49,10.49,0,0,1,6.86,2.11,7.79,7.79,0,0,1,2.74,6l-4.88.67a4.31,4.31,0,0,0-1.4-3.25,5.17,5.17,0,0,0-3.4-1,5.08,5.08,0,0,0-3.15.87,2.73,2.73,0,0,0-1.15,2.25A2.21,2.21,0,0,0,90,18.91,5.19,5.19,0,0,0,91.78,20c.72.25,1.74.52,3,.83a35.63,35.63,0,0,1,4.55,1.38,7.43,7.43,0,0,1,3.06,2.25,6.41,6.41,0,0,1,1.28,4.21,7,7,0,0,1-1.3,4.17,8.13,8.13,0,0,1-3.63,2.76,14.12,14.12,0,0,1-5.42.95Q88.4,36.51,85.77,34.35Z"/><path d="M108.14,34.1c-1.6-1.7-2.4-4.17-2.4-7.43V25.21a11.5,11.5,0,0,1,1.14-5.29,8.38,8.38,0,0,1,3.26-3.49A9.52,9.52,0,0,1,115,15.2a8.59,8.59,0,0,1,5.92,2,8.06,8.06,0,0,1,2.59,5.43l-4.51.71a4.36,4.36,0,0,0-1.1-2.82,3.52,3.52,0,0,0-2.69-1,3.61,3.61,0,0,0-3,1.46,7.1,7.1,0,0,0-1.12,4.38v1.21a6.85,6.85,0,0,0,1.15,4.35,3.64,3.64,0,0,0,3,1.44c2.36,0,3.63-1.44,3.79-4.33l4.59.71A8.51,8.51,0,0,1,121,34.53a10.11,10.11,0,0,1-12.88-.43Z"/><path d="M142.34,17.25A8.41,8.41,0,0,1,144.13,23V36.18h-5.29V23.88a4.68,4.68,0,0,0-1-3.17,3.5,3.5,0,0,0-2.78-1.13,3.54,3.54,0,0,0-2.77,1.13,4.49,4.49,0,0,0-1,3.13V36.18H126V7.86h5.3v6.59c0,.92,0,2.3-.08,4.13a6.56,6.56,0,0,1,2.54-2.5,7.38,7.38,0,0,1,3.63-.88A6.23,6.23,0,0,1,142.34,17.25Z"/><path d="M174.15,15.66a66.4,66.4,0,0,1-1.52,7.78q-1.06,4.15-3.82,12.74h-5.63l-3.34-14.31-3.67,14.31h-5.59Q148,27.75,147,23.54a70.13,70.13,0,0,1-1.49-7.88h5.38c.25,2.06.61,4.23,1.07,6.53s1.15,5.27,2.06,8.94l3.71-15.47h4.76L166,31.09q1.47-5.58,2.17-9t1.09-6.44Z"/><path d="M189.14,15.66h5.21V36.18h-5l0-3.29a6.54,6.54,0,0,1-2.5,2.81,7.7,7.7,0,0,1-7.76-.23,7.59,7.59,0,0,1-2.73-3.4,12.88,12.88,0,0,1-1-5.31V25.21a12.81,12.81,0,0,1,1-5.29,8,8,0,0,1,2.83-3.49,7.64,7.64,0,0,1,4.3-1.23,6,6,0,0,1,5.67,3.21Zm-11-7.8h5.42v4.76h-5.42Zm11,17.44A7,7,0,0,0,188,20.94a4,4,0,0,0-6.15,0,7.16,7.16,0,0,0-1.1,4.36v1.25a7.16,7.16,0,0,0,1.1,4.38A3.75,3.75,0,0,0,185,32.34,3.62,3.62,0,0,0,188,30.9a7.12,7.12,0,0,0,1.1-4.35ZM186.76,7.86h5.43v4.76h-5.43Z"/><path d="M212.43,16.39a7.85,7.85,0,0,1,2.74,3.42,13.29,13.29,0,0,1,1,5.32v1.5A11.2,11.2,0,0,1,213.94,34,7.3,7.3,0,0,1,208,36.64a5.93,5.93,0,0,1-5.5-2.92v2.46h-5.17V7.86h5.29v10.3a6.3,6.3,0,0,1,5.76-3A7.06,7.06,0,0,1,212.43,16.39Zm-1.71,8.91a7.16,7.16,0,0,0-1.1-4.36,3.7,3.7,0,0,0-3.11-1.44,3.62,3.62,0,0,0-3.06,1.44,7.09,7.09,0,0,0-1.11,4.36v1.25a7.05,7.05,0,0,0,1.11,4.35,3.67,3.67,0,0,0,3.1,1.44,3.62,3.62,0,0,0,3.07-1.44,7.12,7.12,0,0,0,1.1-4.35Z"/><path d="M224.28,12.62h-5.72V7.86h5.72Zm-.21,23.56h-5.34V15.66h5.34Z"/><path d="M229,34.93A6.33,6.33,0,0,1,226.65,30l4.55-.63a3.44,3.44,0,0,0,1,2.53,4.49,4.49,0,0,0,3,.85c2.37,0,3.55-.74,3.55-2.21a1.74,1.74,0,0,0-1.07-1.71,16.24,16.24,0,0,0-3.35-1,26.78,26.78,0,0,1-3.74-1,5.77,5.77,0,0,1-2.52-1.81,5.38,5.38,0,0,1-1-3.49,5.61,5.61,0,0,1,2.21-4.65,9.59,9.59,0,0,1,6.05-1.73,8.91,8.91,0,0,1,5.75,1.71,6.1,6.1,0,0,1,2.25,4.76l-4.5.66c-.14-2.16-1.35-3.25-3.63-3.25a4,4,0,0,0-2.38.61,1.92,1.92,0,0,0-.83,1.64A1.71,1.71,0,0,0,233.09,23a16,16,0,0,0,3.32,1,25.59,25.59,0,0,1,3.75,1,6,6,0,0,1,2.53,1.82,5.24,5.24,0,0,1,1.06,3.48,5.57,5.57,0,0,1-2.25,4.65,10.08,10.08,0,0,1-6.26,1.73A9.9,9.9,0,0,1,229,34.93Z"/><path d="M248,34.1c-1.6-1.7-2.4-4.17-2.4-7.43V25.21a11.5,11.5,0,0,1,1.15-5.29A8.29,8.29,0,0,1,250,16.43a9.57,9.57,0,0,1,4.9-1.23,8.62,8.62,0,0,1,5.93,2,8,8,0,0,1,2.58,5.43l-4.5.71a4.32,4.32,0,0,0-1.11-2.82,3.51,3.51,0,0,0-2.69-1,3.58,3.58,0,0,0-3,1.46A7.1,7.1,0,0,0,251,25.34v1.21a6.91,6.91,0,0,0,1.15,4.35,3.66,3.66,0,0,0,3,1.44q3.54,0,3.79-4.33l4.59.71a8.55,8.55,0,0,1-2.65,5.81A10.12,10.12,0,0,1,248,34.1Z"/><path d="M282.66,17.25A8.41,8.41,0,0,1,284.45,23V36.18h-5.29V23.88a4.68,4.68,0,0,0-1-3.17,3.5,3.5,0,0,0-2.78-1.13,3.54,3.54,0,0,0-2.77,1.13,4.49,4.49,0,0,0-1,3.13V36.18h-5.3V7.86h5.3v6.59c0,.92,0,2.3-.08,4.13a6.56,6.56,0,0,1,2.54-2.5,7.38,7.38,0,0,1,3.63-.88A6.23,6.23,0,0,1,282.66,17.25Z"/><path d="M319.71,36.18h-5.63v-11H303v11h-5.63V9.91H303V20.58h11.12V9.91h5.63Z"/><path d="M335.94,15.66h5.22V36.18h-5l0-3.29a6.54,6.54,0,0,1-2.5,2.81,7.7,7.7,0,0,1-7.76-.23,7.59,7.59,0,0,1-2.73-3.4,13,13,0,0,1-1-5.31V25.21a13,13,0,0,1,1-5.29A8,8,0,0,1,326,16.43a7.64,7.64,0,0,1,4.3-1.23,6,6,0,0,1,5.67,3.21Zm0,9.64a7,7,0,0,0-1.12-4.36,3.7,3.7,0,0,0-3.09-1.44,3.65,3.65,0,0,0-3.07,1.44,7.16,7.16,0,0,0-1.1,4.36v1.25a7.16,7.16,0,0,0,1.1,4.38,3.75,3.75,0,0,0,3.11,1.41,3.62,3.62,0,0,0,3.07-1.44,7.12,7.12,0,0,0,1.1-4.35Z"/><path d="M350,36.18h-5.29V7.86H350Z"/><path d="M358.81,36.18h-5.3V7.86h5.3Z"/></g></svg>