<svg width="308" height="82" viewBox="0 0 308 82" fill="none" xmlns="http://www.w3.org/2000/svg">
<path d="M5.24696 74.844L0 15.9931H57.6551L52.4026 74.8348L28.7923 81.3803L5.24696 74.844Z" fill="#264DE4"/>
<path d="M47.9058 71.0879L52.3945 20.8051H28.8275V76.3772L47.9058 71.0879Z" fill="#2965F1"/>
<path d="M12.0286 42.632L12.6755 49.8497H28.8276V42.632H12.0286Z" fill="#EBEBEB"/>
<path d="M11.3848 35.2409H28.8275V28.023H28.8026H10.7287L11.3848 35.2409Z" fill="#EBEBEB"/>
<path d="M28.7943 68.8962L28.8275 68.887V61.3774L28.7959 61.3859L20.7574 59.2153L20.2435 53.4588H16.3374H12.998L14.0092 64.7918L28.7943 68.8962Z" fill="#EBEBEB"/>
<path d="M13.5687 0H22.3108V3.65576H17.2245V7.31151H22.3108V10.9673H13.5687V0Z" fill="black"/>
<path d="M24.0592 0H32.8012V3.17892H27.7149V3.8147H32.8012V11.1262H24.0592V7.78835H29.1454V7.15256H24.0592V0Z" fill="black"/>
<path d="M34.5496 0H43.2916V3.17892H38.2053V3.8147H43.2916V11.1262H34.5496V7.78835H39.6359V7.15256H34.5496V0Z" fill="black"/>
<path d="M46.8833 28.023H28.8026V35.2409H38.9732L38.3164 42.632H28.8026V49.8497H37.6905L36.8527 59.2107L28.8026 61.3835V68.8927L43.5995 64.7918L43.7081 63.5723L45.4042 44.5702L45.5803 42.632L46.8833 28.023Z" fill="white"/>
<text fill="black" xml:space="preserve" style="white-space: pre" font-family="Inter" font-size="21" letter-spacing="0em"><tspan x="74" y="42.1364">Web ads with CSS </tspan><tspan x="74" y="67.1364">animation</tspan></text>
</svg>
