<?xml version="1.0" encoding="utf-8"?>
<!-- Generator: Adobe Illustrator 25.3.1, SVG Export Plug-In . SVG Version: 6.00 Build 0)  -->
<svg version="1.1" id="Capa_1" xmlns="http://www.w3.org/2000/svg" xmlns:xlink="http://www.w3.org/1999/xlink" x="0px" y="0px"
	 viewBox="0 0 489.3 489.3" style="enable-background:new 0 0 489.3 489.3;" xml:space="preserve">
<style type="text/css">
	.st0{fill:#FFFFFF;}
</style>
<g>
	<g>
		<path class="st0" d="M443.3,50.1H46c-5.8,0-10.4,4.4-10.4,9.7V237c0,5.4,4.7,9.7,10.4,9.7s10.5-4.4,10.5-9.7V69.6H433v350H251.7
			c-5.8,0-10.5,4.4-10.5,9.8c0,5.4,4.7,9.8,10.5,9.8h191.6c5.8,0,10.5-4.4,10.5-9.8V59.9C453.8,54.5,449.1,50.1,443.3,50.1z"/>
		<path class="st0" d="M35.5,429.3c0,5.4,4.7,9.8,10.4,9.8h145.7c5.8,0,10.5-4.4,10.5-9.8V293.9c0-5.4-4.7-9.8-10.5-9.8H46
			c-5.8,0-10.4,4.4-10.4,9.8L35.5,429.3L35.5,429.3L35.5,429.3z M56.4,303.6h124.8v116H56.4V303.6z"/>
		<path class="st0" d="M226.1,261.9c2.1,1.9,4.7,2.9,7.4,2.9s5.4-1,7.4-2.9l118.5-110.3v63.5c0,5.4,4.7,9.8,10.5,9.8
			c5.8,0,10.5-4.4,10.5-9.8v-87c0-5.4-4.7-9.8-10.5-9.8h-93.6c-5.8,0-10.5,4.4-10.5,9.8c0,5.4,4.7,9.8,10.5,9.8h68.3L226.1,248.1
			C222,251.9,222,258,226.1,261.9z"/>
	</g>
</g>
</svg>
