<svg xmlns="http://www.w3.org/2000/svg" viewBox="0 0 1000 600"><defs><style>.cls-1{fill:#fff;}</style></defs><g id="txt-1"><path class="cls-1" d="M141.67,328l4.46-6.34a21.77,21.77,0,0,0,11.57,4.05c3,0,4.38-1,4.38-2.53V323c0-2.09-3.56-2.79-7.6-3.93-5.14-1.4-11-3.62-11-10.21v-.13c0-6.91,6-10.78,13.43-10.78a26.88,26.88,0,0,1,13.69,3.93l-4,6.66c-3.63-2-7.26-3.17-9.93-3.17s-3.84,1-3.84,2.35v.12c0,1.91,3.5,2.79,7.47,4.06,5.14,1.59,11.09,3.87,11.09,10.09v.12c0,7.55-6.09,11-14,11A27.07,27.07,0,0,1,141.67,328Z"/><path class="cls-1" d="M179.13,286.2h11v8.56h-11Zm.28,12.3h10.41v34H179.41Z"/><path class="cls-1" d="M199.61,298.5H210v4.82c2.39-2.86,5.48-5.46,10.75-5.46,7.87,0,12.46,4.82,12.46,12.62v22H222.82v-19c0-4.57-2.32-6.91-6.3-6.91S210,309,210,313.53v19H199.61Z"/><path class="cls-1" d="M242.27,298.5h10.41v4.82c2.4-2.86,5.48-5.46,10.75-5.46,7.88,0,12.47,4.82,12.47,12.62v22H265.49v-19c0-4.57-2.33-6.91-6.3-6.91s-6.51,2.34-6.51,6.91v19H242.27Z"/><path class="cls-1" d="M285.41,286.2h10.41v46.29H285.41Z"/><path class="cls-1" d="M305.82,286.2h11v8.56h-11Zm.27,12.3H316.5v34H306.09Z"/><path class="cls-1" d="M324.52,315.68v-.12c0-9.71,8-17.7,19.24-17.7,6.91,0,11.23,2.16,14.65,5.71L352,309.91c-2.32-2.28-4.65-3.74-8.35-3.74a9,9,0,0,0-8.9,9.26v.13a9,9,0,0,0,9.31,9.38c3.49,0,5.89-1.39,8.42-3.61l6.1,5.71c-3.56,3.61-7.67,6.21-15,6.21C332.6,333.25,324.52,325.39,324.52,315.68Z"/><path class="cls-1" d="M365.4,286.2h10.41v17.12c2.39-2.86,5.48-5.46,10.75-5.46,7.87,0,12.46,4.82,12.46,12.62v22H388.61v-19c0-4.57-2.32-6.91-6.3-6.91s-6.5,2.34-6.5,6.91v19H365.4Z"/></g></svg>