<?xml version="1.0" encoding="utf-8"?>
<!-- Generator: Adobe Illustrator 25.0.1, SVG Export Plug-In . SVG Version: 6.00 Build 0)  -->
<svg version="1.1" id="txt-3" xmlns="http://www.w3.org/2000/svg" xmlns:xlink="http://www.w3.org/1999/xlink" x="0px" y="0px"
	 viewBox="0 0 1000 600" style="enable-background:new 0 0 1000 600;" xml:space="preserve">
<style type="text/css">
	.st0{fill:#FFFFFF;}
</style>
<g id="txt-2">
	<path class="st0" d="M490.4,285.8H480v17.1c-2.4-2.9-5.5-5.5-10.8-5.5c-7.9,0-12.5,4.8-12.5,12.6v22h10.4v-19
		c0-4.6,2.3-6.9,6.3-6.9s6.5,2.3,6.5,6.9v19h10.5V285.8z"/>
	<path class="st0" d="M449.9,322.3v-0.1c0-7.4-6.1-10.8-14.8-10.8c-3.1,0-6.1,0.4-9,1.4v-0.6c0-4,2.7-6.2,7.9-6.2
		c3.5,0,6.9,0.6,10.1,1.8l2.6-7.4c-4.5-1.9-9.4-2.8-14.2-2.7c-5.7,0-9.8,1.4-12.4,3.8s-4,6.3-4,10.8V332h10.1v-3.7
		c2.5,2.6,6,4.3,11.1,4.3C444.3,332.7,449.9,329.1,449.9,322.3z M426,320.1v-1.7c2.1-0.9,4.4-1.3,6.6-1.3c4.5,0,7.2,1.6,7.2,4.7v0.1
		c0,2.6-2.3,4.1-5.7,4.1C429.3,326.1,426,323.6,426,320.1z"/>
	<path class="st0" d="M407.2,298.1h-10.4v6.8c-2.1-4.7-5.5-7.7-11.7-7.5v10.1h0.5c6.9,0,11.2,3.9,11.2,12v12.6h10.4V298.1z"/>
	<path class="st0" d="M378.6,298.1h-10.4v4.8c-2.4-2.9-5.5-5.5-10.8-5.5c-4.8,0-8.4,2-10.3,5.4c-3-3.5-7.4-5.5-12-5.4
		c-7.7,0-12.4,4.3-12.4,12.5V332h10.4v-19c0-4.6,2.2-6.9,6.1-6.9s6.3,2.3,6.3,6.9v19h10.4v-19c0-4.6,2.2-6.9,6.1-6.9
		s6.3,2.3,6.3,6.9v19h10.4v-33.9H378.6z"/>
	<path class="st0" d="M315.3,315.3v-0.1c0-9.8-8.5-17.7-19.9-17.7s-19.8,7.8-19.8,17.6v0.1c0,9.8,8.5,17.7,19.9,17.7
		S315.3,325.1,315.3,315.3z M285.9,315.3v-0.1c0-5.2,4.2-9.4,9.3-9.4c0.1,0,0.2,0,0.3,0c6,0,9.5,4.2,9.5,9.3v0.1
		c0,5.2-4.2,9.4-9.3,9.4c-0.1,0-0.2,0-0.3,0C289.4,324.6,285.9,320.3,285.9,315.3z"/>
	<path class="st0" d="M268.1,298.1h-10.4v4.8c-2.4-2.9-5.5-5.5-10.8-5.5c-7.9,0-12.5,4.8-12.5,12.6v22h10.4v-19
		c0-4.6,2.3-6.9,6.3-6.9s6.5,2.4,6.5,7v19H268v-34H268.1z"/>
	<path class="st0" d="M225.2,285.8h-11v8.6h11V285.8z M224.9,298.1h-10.4v34h10.4V298.1z"/>
	<path class="st0" d="M207.6,327.6l-4.5-6.3c-3.4,2.4-7.4,3.8-11.6,4.1c-3,0-4.4-1-4.4-2.5v-0.2c0-2.1,3.6-2.8,7.6-3.9
		c5.1-1.4,11-3.6,11-10.2v-0.1c0-6.9-6-10.8-13.4-10.8c-4.8,0.1-9.6,1.4-13.7,3.9l4,6.7c3.6-2,7.3-3.2,9.9-3.2s3.8,1,3.8,2.3v0.1
		c0,1.9-3.5,2.8-7.5,4.1c-5.1,1.6-11.1,3.9-11.1,10.1v0.1c0,7.5,6.1,11,14,11C197.5,332.7,203,330.9,207.6,327.6z"/>
	<path class="st0" d="M172.1,315.3v-0.1c0-9.7-8-17.7-19.2-17.7c-6.9,0-11.2,2.2-14.7,5.7l6.4,6.3c2.3-2.3,4.7-3.7,8.4-3.7
		c5,0.1,9,4.1,8.9,9.1c0,0.1,0,0.1,0,0.2v0.1c0.2,5-3.6,9.2-8.6,9.4c-0.2,0-0.5,0-0.7,0c-3.5,0-5.9-1.4-8.4-3.6l-6.1,5.7
		c3.6,3.6,7.7,6.2,15,6.2C164,332.9,172.1,325,172.1,315.3z"/>
	<path class="st0" d="M131.2,285.8h-10.4v17.1c-2.4-2.9-5.5-5.5-10.8-5.5c-7.9,0-12.5,4.8-12.5,12.6v22h10.4v-19
		c0-4.6,2.3-6.9,6.3-6.9s6.5,2.3,6.5,6.9v19h10.4v-46.2H131.2z"/>
</g>
</svg>
